<svg xmlns="http://www.w3.org/2000/svg" xmlns:xlink="http://www.w3.org/1999/xlink" width="500" zoomAndPan="magnify" viewBox="0 0 375 374.999991" height="500" preserveAspectRatio="xMidYMid meet" version="1.0"><defs><clipPath id="d904fe4a22"><path d="M 0 59 L 358 59 L 358 345.75 L 0 345.75 Z M 0 59 " clip-rule="nonzero"/></clipPath></defs><g clip-path="url(#d904fe4a22)"><path fill="#000000" d="M 171.621094 345.75 C 158.835938 345.75 146.261719 338.921875 137.734375 334.230469 C 136.03125 333.378906 135.175781 331.457031 135.390625 329.75 C 147.324219 267.675781 114.289062 253.382812 112.585938 252.316406 C 86.371094 237.382812 69.109375 222.023438 57.597656 209.011719 C 67.828125 211.785156 92.550781 220.742188 151.800781 251.25 C 214.886719 283.671875 221.707031 219.035156 217.230469 184.90625 C 216.804688 182.34375 214.246094 180.640625 211.902344 181.277344 C 211.265625 181.492188 155.636719 197.492188 129.210938 192.160156 C 114.503906 189.171875 102.140625 179.359375 94.257812 171.679688 C 117.273438 177.652344 163.097656 187.464844 186.96875 179.359375 C 229.167969 165.707031 195.066406 113.015625 128.996094 127.734375 C 99.796875 134.347656 86.585938 111.308594 83.175781 103.84375 C 87.4375 99.148438 99.796875 86.992188 115.78125 85.925781 C 127.292969 85.070312 138.585938 90.191406 149.457031 100.855469 C 152.015625 103.84375 172.902344 125.601562 213.609375 102.5625 C 214.035156 102.351562 217.230469 100.429688 220.855469 98.511719 C 248.5625 133.066406 298.007812 200.90625 329.550781 208.796875 C 341.910156 211.996094 374.945312 250.609375 344.679688 280.898438 C 343.402344 281.964844 341.699219 282.394531 340.207031 281.964844 C 291.1875 267.460938 276.695312 310.550781 276.265625 312.472656 C 274.988281 316.097656 269.875 316.523438 268.167969 313.113281 C 248.773438 272.582031 199.542969 304.367188 195.917969 323.992188 C 193.359375 338.285156 184.835938 345.75 171.621094 345.75 Z M 135.390625 107.894531 C 126.226562 118.988281 108.535156 118.136719 100.222656 106.402344 C 109.390625 95.308594 127.292969 96.164062 135.390625 107.894531 Z M 143.277344 106.402344 C 132.832031 87.203125 104.914062 85.710938 92.550781 104.054688 C 91.914062 105.335938 91.699219 106.828125 92.339844 107.894531 C 102.78125 127.09375 130.914062 128.800781 143.0625 110.242188 C 143.914062 108.960938 143.914062 107.683594 143.277344 106.402344 Z M 249.625 266.394531 C 240.460938 266.394531 233.003906 265.328125 232.578125 265.328125 C 229.59375 264.902344 227.886719 261.488281 229.59375 258.929688 C 248.132812 227.78125 238.96875 166.558594 238.757812 165.917969 C 238.117188 160.800781 245.578125 158.878906 247.070312 164 C 253.890625 185.546875 254.527344 192.160156 265.609375 212.425781 C 273.070312 225.863281 280.742188 239.730469 280.742188 256.367188 C 280.742188 263.621094 261.5625 266.394531 249.625 266.394531 Z M 240.035156 257.433594 C 250.691406 258.289062 264.757812 258.074219 272.003906 254.234375 C 271.152344 234.394531 257.300781 217.542969 249.839844 200.265625 C 249.839844 218.609375 247.921875 240.582031 240.035156 257.433594 Z M 117.914062 111.523438 C 111.519531 111.523438 112.800781 101.070312 119.40625 103.203125 C 123.667969 104.484375 122.816406 111.523438 117.914062 111.523438 Z M 48.859375 197.703125 C 41.402344 187.039062 38.203125 178.933594 36.925781 175.519531 C 3.25 157.386719 0.0546875 135.203125 1.121094 124.320312 C 53.761719 146.722656 100.222656 160.160156 118.128906 160.160156 C 119.832031 160.160156 125.160156 160.160156 125.800781 155.679688 C 126.652344 151.628906 123.027344 148.855469 111.308594 144.375 C 74.011719 130.722656 46.515625 117.710938 23.285156 102.988281 C 22.433594 102.351562 17.957031 99.789062 13.695312 97.230469 C 27.761719 80.378906 52.269531 68.003906 84.238281 62.457031 C 129.847656 54.351562 190.164062 62.03125 215.3125 91.683594 C 212.328125 93.605469 209.558594 95.097656 209.34375 95.308594 C 172.046875 116.003906 156.488281 95.738281 155.636719 95.097656 C 142.851562 82.296875 129.210938 76.324219 115.144531 77.390625 C 91.484375 78.882812 75.5 99.789062 74.863281 100.644531 C 74.011719 101.710938 73.796875 103.203125 74.222656 104.695312 C 74.4375 105.121094 89.566406 145.226562 130.703125 136.054688 C 182.917969 124.535156 216.804688 160.800781 184.410156 171.253906 C 154.570312 181.066406 83.386719 159.945312 82.746094 159.734375 C 78.910156 158.667969 75.714844 162.933594 78.058594 166.347656 C 78.910156 167.414062 98.519531 194.503906 127.503906 200.476562 C 151.589844 205.382812 194.640625 194.71875 209.34375 190.878906 C 210.625 206.664062 209.773438 237.382812 195.066406 247.835938 C 186.328125 254.023438 173.113281 252.527344 155.851562 243.78125 C 99.160156 214.769531 73.582031 204.957031 64.84375 202.183594 C 63.140625 201.542969 54.1875 199.199219 48.859375 197.703125 Z M 2.824219 116.003906 C 4.316406 111.734375 6.234375 107.894531 8.578125 104.054688 C 13.054688 106.828125 18.382812 109.816406 18.808594 110.242188 C 40.335938 123.894531 65.273438 136.054688 97.878906 148.425781 C 71.664062 142.453125 41.613281 132.214844 2.824219 116.003906 Z M 2.824219 116.003906 " fill-opacity="1" fill-rule="evenodd"/></g><path fill="#000000" d="M 170.34375 58.617188 L 194.640625 39.632812 C 197.410156 37.5 201.460938 39.417969 201.460938 43.046875 L 201.460938 51.792969 L 210.199219 40.914062 C 212.96875 37.714844 218.296875 39.847656 217.871094 43.898438 L 216.804688 54.351562 C 220.214844 48.378906 222.132812 42.40625 226.820312 43.6875 C 228.738281 44.328125 229.804688 46.03125 229.804688 48.167969 L 227.886719 72.910156 L 248.988281 52.21875 C 251.972656 49.234375 257.085938 52.007812 256.019531 56.058594 L 250.054688 82.9375 L 265.824219 60.753906 C 268.59375 56.914062 274.347656 59.472656 273.496094 63.953125 L 265.398438 111.308594 L 294.808594 81.871094 C 298.21875 78.457031 303.761719 82.511719 301.628906 86.992188 L 280.742188 128.160156 L 316.121094 107.683594 C 318.679688 106.191406 321.875 107.683594 322.515625 110.457031 L 325.925781 125.816406 C 327.632812 127.308594 332.53125 130.933594 339.566406 130.082031 C 342.125 129.65625 346.171875 130.296875 350.222656 135.414062 C 362.582031 150.558594 368.550781 199.199219 361.730469 237.808594 C 357.683594 224.582031 344.46875 205.171875 331.253906 201.972656 C 299.285156 193.863281 243.871094 114.082031 220.855469 87.203125 C 208.707031 73.125 190.589844 63.953125 170.34375 58.617188 Z M 170.34375 58.617188 " fill-opacity="1" fill-rule="evenodd"/></svg>