<svg xmlns="http://www.w3.org/2000/svg" xmlns:xlink="http://www.w3.org/1999/xlink" width="500" zoomAndPan="magnify" viewBox="0 0 375 374.999991" height="500" preserveAspectRatio="xMidYMid meet" version="1.0"><defs><clipPath id="6fac19e299"><path d="M 172 37.371094 L 340 37.371094 L 340 337.371094 L 172 337.371094 Z M 172 37.371094 " clip-rule="nonzero"/></clipPath><clipPath id="54c15ce7a2"><path d="M 35 55 L 163 55 L 163 283 L 35 283 Z M 35 55 " clip-rule="nonzero"/></clipPath><clipPath id="6657589c5f"><path d="M 65.398438 55.625 C 62.523438 70.050781 69.746094 84.925781 80.148438 95.3125 C 90.546875 105.695312 103.855469 112.609375 116.566406 120.03125 C 129.273438 127.453125 141.953125 135.894531 149.957031 148.253906 C 156.910156 158.996094 159.730469 171.867188 161.199219 184.585938 C 162.964844 199.96875 162.726562 216.160156 157.808594 230.675781 C 154.242188 221.9375 149.597656 213.558594 144.292969 205.746094 C 133.890625 190.363281 121.09375 176.773438 108.351562 163.277344 C 93.457031 147.503906 78.589844 131.734375 63.691406 115.960938 C 79.097656 144.8125 102.988281 168.035156 123.191406 193.804688 C 143.394531 219.542969 160.597656 250.277344 158.710938 282.929688 C 157.210938 266.230469 143.632812 252.972656 128.914062 244.890625 C 114.199219 236.8125 97.683594 232.320312 83.144531 223.882812 C 55.6875 207.839844 37.222656 177.433594 35.785156 145.738281 C 34.347656 113.6875 49.003906 83.21875 65.398438 55.625 Z M 65.398438 55.625 " clip-rule="nonzero"/></clipPath><linearGradient x1="-1204.20996" gradientTransform="matrix(-0.299742, 0, 0, 0.299282, -262.008079, 37.369879)" y1="60.999971" x2="-1204.20996" gradientUnits="userSpaceOnUse" y2="820.499977" id="08bddbe792"><stop stop-opacity="1" stop-color="rgb(53.503418%, 74.87793%, 25.770569%)" offset="0"/><stop stop-opacity="1" stop-color="rgb(53.413391%, 74.772644%, 25.761414%)" offset="0.125"/><stop stop-opacity="1" stop-color="rgb(53.234863%, 74.565125%, 25.744629%)" offset="0.25"/><stop stop-opacity="1" stop-color="rgb(53.05481%, 74.356079%, 25.727844%)" offset="0.375"/><stop stop-opacity="1" stop-color="rgb(52.876282%, 74.147034%, 25.71106%)" offset="0.5"/><stop stop-opacity="1" stop-color="rgb(52.696228%, 73.939514%, 25.694275%)" offset="0.625"/><stop stop-opacity="1" stop-color="rgb(52.5177%, 73.730469%, 25.67749%)" offset="0.75"/><stop stop-opacity="1" stop-color="rgb(52.337646%, 73.522949%, 25.660706%)" offset="0.875"/><stop stop-opacity="1" stop-color="rgb(52.157593%, 73.313904%, 25.645447%)" offset="1"/></linearGradient></defs><g clip-path="url(#6fac19e299)"><path fill="#006838" d="M 299.976562 37.371094 C 303.785156 56.402344 294.253906 76.035156 280.523438 89.746094 C 266.796875 103.480469 249.230469 112.578125 232.476562 122.367188 C 215.691406 132.152344 198.933594 143.316406 188.414062 159.625 C 179.242188 173.8125 175.496094 190.8125 173.578125 207.570312 C 171.179688 227.921875 171.507812 249.261719 177.984375 268.414062 C 182.6875 256.863281 188.832031 245.820312 195.816406 235.496094 C 209.546875 215.171875 226.453125 197.246094 243.265625 179.410156 C 262.929688 158.578125 282.5625 137.777344 302.226562 116.949219 C 281.875 155.015625 250.339844 185.722656 223.695312 219.691406 C 197.046875 253.691406 174.328125 294.273438 176.8125 337.371094 C 178.792969 315.3125 196.71875 297.804688 216.171875 287.148438 C 235.625 276.496094 257.414062 270.539062 276.570312 259.40625 C 312.808594 238.335938 337.175781 198.175781 339.066406 156.335938 C 340.984375 114.015625 321.648438 73.761719 299.976562 37.371094 Z M 299.976562 37.371094 " fill-opacity="1" fill-rule="nonzero"/></g><g clip-path="url(#54c15ce7a2)"><g clip-path="url(#6657589c5f)"><path fill="url(#08bddbe792)" d="M 162.964844 55.625 L 162.964844 282.929688 L 34.347656 282.929688 L 34.347656 55.625 Z M 162.964844 55.625 " fill-rule="nonzero"/></g></g></svg>