<svg xmlns="http://www.w3.org/2000/svg" xmlns:xlink="http://www.w3.org/1999/xlink" width="500" zoomAndPan="magnify" viewBox="0 0 375 374.999991" height="500" preserveAspectRatio="xMidYMid meet" version="1.0"><defs><clipPath id="57bf834abe"><path d="M 37.5 182 L 356.25 182 L 356.25 249.179688 L 37.5 249.179688 Z M 37.5 182 " clip-rule="nonzero"/></clipPath><clipPath id="b0d80de86a"><path d="M 169 126.179688 L 185 126.179688 L 185 160 L 169 160 Z M 169 126.179688 " clip-rule="nonzero"/></clipPath></defs><path fill="#435d2b" d="M 53.199219 141.125 C 53.199219 143.097656 54.785156 144.6875 56.753906 144.6875 L 63.558594 144.6875 C 65.527344 144.6875 67.117188 146.28125 67.117188 148.25 L 67.117188 150.359375 C 67.117188 152.332031 65.527344 153.921875 63.558594 153.921875 L 56.753906 153.921875 C 54.785156 153.921875 53.199219 155.515625 53.199219 157.488281 L 53.199219 158.226562 C 53.199219 160.199219 54.785156 161.792969 56.753906 161.792969 L 65.410156 161.792969 C 67.378906 161.792969 68.964844 163.382812 68.964844 165.355469 L 68.964844 167.960938 C 68.964844 169.933594 67.378906 171.523438 65.410156 171.523438 L 44.636719 171.523438 C 42.667969 171.523438 41.082031 169.933594 41.082031 167.960938 L 41.082031 131.394531 C 41.082031 129.421875 42.667969 127.828125 44.636719 127.828125 L 65.421875 127.828125 C 67.386719 127.828125 68.976562 129.421875 68.976562 131.394531 L 68.976562 134 C 68.976562 135.972656 67.386719 137.5625 65.421875 137.5625 L 56.761719 137.5625 C 54.792969 137.5625 53.207031 139.152344 53.207031 141.125 Z M 53.199219 141.125 " fill-opacity="1" fill-rule="nonzero"/><path fill="#435d2b" d="M 76.183594 138.089844 C 77.976562 134.722656 80.527344 132.097656 83.820312 130.210938 C 87.121094 128.328125 90.910156 127.390625 95.195312 127.390625 C 100.640625 127.390625 105.214844 128.84375 108.925781 131.765625 C 111.265625 133.597656 113.078125 135.84375 114.363281 138.5 C 115.511719 140.871094 113.796875 143.632812 111.15625 143.632812 L 105.070312 143.632812 C 103.929688 143.632812 102.851562 143.097656 102.195312 142.160156 C 101.542969 141.222656 100.734375 140.441406 99.800781 139.847656 C 98.417969 138.976562 96.820312 138.546875 95.007812 138.546875 C 92.203125 138.546875 89.972656 139.554688 88.300781 141.554688 C 86.632812 143.554688 85.796875 146.230469 85.796875 149.578125 C 85.796875 152.929688 86.632812 155.660156 88.300781 157.671875 C 89.964844 159.671875 92.203125 160.679688 95.007812 160.679688 C 96.820312 160.679688 98.417969 160.25 99.800781 159.378906 C 100.734375 158.792969 101.535156 158.023438 102.195312 157.066406 C 102.859375 156.109375 103.929688 155.59375 105.070312 155.59375 L 111.15625 155.59375 C 113.789062 155.59375 115.511719 158.355469 114.363281 160.726562 C 113.078125 163.382812 111.265625 165.628906 108.925781 167.464844 C 105.214844 170.371094 100.640625 171.835938 95.195312 171.835938 C 90.910156 171.835938 87.109375 170.898438 83.820312 169.015625 C 80.515625 167.132812 77.976562 164.515625 76.183594 161.148438 C 74.390625 157.78125 73.496094 153.921875 73.496094 149.589844 C 73.496094 145.253906 74.390625 141.457031 76.183594 138.089844 Z M 76.183594 138.089844 " fill-opacity="1" fill-rule="nonzero"/><path fill="#435d2b" d="M 131.503906 169.082031 C 128.085938 167.160156 125.367188 164.496094 123.371094 161.089844 C 121.375 157.683594 120.371094 153.824219 120.371094 149.53125 C 120.371094 145.234375 121.375 141.378906 123.371094 137.972656 C 125.367188 134.566406 128.085938 131.910156 131.503906 130.007812 C 134.921875 128.101562 138.679688 127.15625 142.761719 127.15625 C 146.84375 127.15625 150.652344 128.101562 154.050781 130.007812 C 157.449219 131.910156 160.136719 134.566406 162.125 137.972656 C 164.101562 141.378906 165.09375 145.234375 165.09375 149.53125 C 165.09375 153.824219 164.101562 157.683594 162.125 161.089844 C 160.148438 164.496094 157.441406 167.160156 154.019531 169.082031 C 150.601562 171.007812 146.84375 171.964844 142.761719 171.964844 C 138.679688 171.964844 134.933594 171.007812 131.503906 169.082031 Z M 150.085938 157.644531 C 151.878906 155.621094 152.773438 152.910156 152.773438 149.519531 C 152.773438 146.132812 151.878906 143.3125 150.085938 141.3125 C 148.292969 139.308594 145.851562 138.304688 142.761719 138.304688 C 139.675781 138.304688 137.171875 139.308594 135.398438 141.3125 C 133.625 143.3125 132.742188 146.054688 132.742188 149.519531 C 132.742188 152.988281 133.625 155.671875 135.398438 157.671875 C 137.171875 159.671875 139.625 160.679688 142.761719 160.679688 C 145.898438 160.679688 148.292969 159.664062 150.085938 157.644531 Z M 150.085938 157.644531 " fill-opacity="1" fill-rule="nonzero"/><g clip-path="url(#57bf834abe)"><path fill="#435d2b" d="M 37.585938 182.039062 L 356.136719 182.039062 L 356.136719 249.171875 L 37.585938 249.171875 Z M 37.585938 182.039062 " fill-opacity="1" fill-rule="nonzero"/></g><path fill="#cff09a" d="M 73.164062 195.929688 L 73.164062 198.664062 C 73.164062 200.78125 71.449219 202.5 69.335938 202.5 L 58.222656 202.5 C 56.109375 202.5 54.394531 204.21875 54.394531 206.335938 L 54.394531 206.941406 C 54.394531 209.058594 56.109375 210.777344 58.222656 210.777344 L 64.40625 210.777344 C 66.519531 210.777344 68.234375 212.496094 68.234375 214.613281 L 68.234375 216.878906 C 68.234375 218.996094 66.519531 220.714844 64.40625 220.714844 L 58.222656 220.714844 C 56.109375 220.714844 54.394531 222.433594 54.394531 224.550781 L 54.394531 235.289062 C 54.394531 237.40625 52.679688 239.125 50.566406 239.125 L 45.183594 239.125 C 43.070312 239.125 41.355469 237.40625 41.355469 235.289062 L 41.355469 195.929688 C 41.355469 193.8125 43.070312 192.09375 45.183594 192.09375 L 69.335938 192.09375 C 71.449219 192.09375 73.164062 193.8125 73.164062 195.929688 Z M 73.164062 195.929688 " fill-opacity="1" fill-rule="nonzero"/><path fill="#cff09a" d="M 101.371094 237.105469 L 93.382812 222.238281 C 93.226562 221.953125 92.933594 221.777344 92.613281 221.777344 C 92.125 221.777344 91.738281 222.167969 91.738281 222.65625 L 91.738281 235.289062 C 91.738281 237.40625 90.023438 239.125 87.910156 239.125 L 82.511719 239.125 C 80.398438 239.125 78.6875 237.40625 78.6875 235.289062 L 78.6875 195.929688 C 78.6875 193.8125 80.398438 192.09375 82.511719 192.09375 L 99.253906 192.09375 C 103.023438 192.09375 106.21875 192.746094 108.839844 194.0625 C 111.460938 195.371094 113.425781 197.179688 114.761719 199.472656 C 116.09375 201.765625 116.757812 204.332031 116.757812 207.175781 C 116.757812 210.375 115.882812 213.1875 114.128906 215.609375 C 113.078125 217.0625 111.730469 218.265625 110.097656 219.210938 C 108.226562 220.292969 107.515625 222.636719 108.597656 224.511719 L 113.699219 233.367188 C 115.171875 235.921875 113.328125 239.125 110.386719 239.125 L 104.730469 239.125 C 103.316406 239.125 102.03125 238.355469 101.359375 237.105469 Z M 91.738281 209 C 91.738281 211.117188 93.449219 212.835938 95.566406 212.835938 L 98.195312 212.835938 C 99.964844 212.835938 101.300781 212.417969 102.1875 211.566406 C 103.074219 210.726562 103.523438 209.496094 103.523438 207.898438 C 103.523438 206.382812 103.0625 205.191406 102.15625 204.324219 C 101.253906 203.457031 99.929688 203.027344 98.195312 203.027344 L 95.566406 203.027344 C 93.449219 203.027344 91.738281 204.742188 91.738281 206.863281 Z M 91.738281 209 " fill-opacity="1" fill-rule="nonzero"/><path fill="#cff09a" d="M 135.71875 195.929688 L 135.71875 235.289062 C 135.71875 237.40625 134.007812 239.125 131.894531 239.125 L 126.496094 239.125 C 124.382812 239.125 122.667969 237.40625 122.667969 235.289062 L 122.667969 195.929688 C 122.667969 193.8125 124.382812 192.09375 126.496094 192.09375 L 131.894531 192.09375 C 134.007812 192.09375 135.71875 193.8125 135.71875 195.929688 Z M 135.71875 195.929688 " fill-opacity="1" fill-rule="nonzero"/><path fill="#cff09a" d="M 156.222656 206.402344 C 156.222656 208.523438 157.9375 210.238281 160.050781 210.238281 L 167.375 210.238281 C 169.488281 210.238281 171.203125 211.957031 171.203125 214.078125 L 171.203125 216.339844 C 171.203125 218.460938 169.488281 220.175781 167.375 220.175781 L 160.050781 220.175781 C 157.9375 220.175781 156.222656 221.894531 156.222656 224.015625 L 156.222656 224.8125 C 156.222656 226.933594 157.9375 228.652344 160.050781 228.652344 L 169.371094 228.652344 C 171.484375 228.652344 173.199219 230.367188 173.199219 232.488281 L 173.199219 235.289062 C 173.199219 237.40625 171.484375 239.125 169.371094 239.125 L 147.007812 239.125 C 144.894531 239.125 143.179688 237.40625 143.179688 235.289062 L 143.179688 195.929688 C 143.179688 193.8125 144.894531 192.09375 147.007812 192.09375 L 169.371094 192.09375 C 171.484375 192.09375 173.199219 193.8125 173.199219 195.929688 L 173.199219 198.730469 C 173.199219 200.847656 171.484375 202.566406 169.371094 202.566406 L 160.050781 202.566406 C 157.9375 202.566406 156.222656 204.285156 156.222656 206.402344 Z M 156.222656 206.402344 " fill-opacity="1" fill-rule="nonzero"/><path fill="#cff09a" d="M 219.285156 239.125 L 212.128906 239.125 C 210.839844 239.125 209.644531 238.480469 208.933594 237.40625 L 199.71875 223.457031 C 197.625 220.285156 192.707031 221.777344 192.707031 225.574219 L 192.707031 235.289062 C 192.707031 237.40625 190.992188 239.125 188.878906 239.125 L 183.484375 239.125 C 181.371094 239.125 179.65625 237.40625 179.65625 235.289062 L 179.65625 195.929688 C 179.65625 193.8125 181.371094 192.09375 183.484375 192.09375 L 190.632812 192.09375 C 191.925781 192.09375 193.125 192.746094 193.835938 193.832031 L 203.039062 207.9375 C 205.125 211.128906 210.070312 209.644531 210.070312 205.835938 L 210.070312 195.929688 C 210.070312 193.8125 211.785156 192.09375 213.898438 192.09375 L 219.296875 192.09375 C 221.410156 192.09375 223.121094 193.8125 223.121094 195.929688 L 223.121094 235.289062 C 223.121094 237.40625 221.410156 239.125 219.296875 239.125 Z M 219.285156 239.125 " fill-opacity="1" fill-rule="nonzero"/><path fill="#cff09a" d="M 262.070312 195.058594 C 265.773438 197.042969 268.625 199.804688 270.621094 203.367188 C 272.621094 206.929688 273.621094 210.992188 273.621094 215.570312 C 273.621094 220.148438 272.609375 224.152344 270.59375 227.714844 C 268.578125 231.265625 265.714844 234.058594 262.011719 236.089844 C 258.3125 238.109375 254.015625 239.125 249.136719 239.125 L 234.390625 239.125 C 232.277344 239.125 230.5625 237.40625 230.5625 235.289062 L 230.5625 195.929688 C 230.5625 193.8125 232.277344 192.09375 234.390625 192.09375 L 249.136719 192.09375 C 254.066406 192.09375 258.378906 193.078125 262.082031 195.058594 Z M 257.113281 224.445312 C 259.285156 222.355469 260.375 219.398438 260.375 215.570312 C 260.375 211.742188 259.285156 208.707031 257.113281 206.597656 C 254.941406 204.488281 251.941406 203.425781 248.125 203.425781 L 247.421875 203.425781 C 245.308594 203.425781 243.59375 205.144531 243.59375 207.261719 L 243.59375 223.742188 C 243.59375 225.859375 245.308594 227.578125 247.421875 227.578125 L 248.125 227.578125 C 251.941406 227.578125 254.933594 226.53125 257.113281 224.445312 Z M 257.113281 224.445312 " fill-opacity="1" fill-rule="nonzero"/><path fill="#cff09a" d="M 296.34375 229.121094 L 303.269531 229.121094 C 305.382812 229.121094 307.097656 230.835938 307.097656 232.957031 L 307.097656 235.289062 C 307.097656 237.40625 305.382812 239.125 303.269531 239.125 L 283.304688 239.125 C 281.191406 239.125 279.476562 237.40625 279.476562 235.289062 L 279.476562 195.929688 C 279.476562 193.8125 281.191406 192.09375 283.304688 192.09375 L 288.699219 192.09375 C 290.8125 192.09375 292.527344 193.8125 292.527344 195.929688 L 292.527344 225.28125 C 292.527344 227.402344 294.242188 229.121094 296.355469 229.121094 Z M 296.34375 229.121094 " fill-opacity="1" fill-rule="nonzero"/><path fill="#cff09a" d="M 351.9375 197.6875 L 338.730469 223.351562 C 338.449219 223.898438 338.300781 224.492188 338.300781 225.105469 L 338.300781 235.277344 C 338.300781 237.398438 336.589844 239.117188 334.476562 239.117188 L 329.019531 239.117188 C 326.90625 239.117188 325.191406 237.398438 325.191406 235.277344 L 325.191406 225.105469 C 325.191406 224.492188 325.046875 223.898438 324.765625 223.351562 L 311.558594 197.6875 C 310.242188 195.128906 312.09375 192.09375 314.957031 192.09375 L 321.121094 192.09375 C 322.621094 192.09375 323.984375 192.972656 324.609375 194.335938 L 328.359375 202.578125 C 329.722656 205.574219 333.957031 205.574219 335.320312 202.578125 L 339.070312 194.335938 C 339.695312 192.972656 341.058594 192.09375 342.558594 192.09375 L 348.527344 192.09375 C 351.390625 192.09375 353.242188 195.128906 351.929688 197.6875 Z M 351.9375 197.6875 " fill-opacity="1" fill-rule="nonzero"/><path fill="#435d2b" d="M 203.449219 142.453125 C 201.324219 142.453125 194.058594 142.738281 187.925781 148.027344 C 185.207031 150.378906 183.601562 152.9375 182.683594 154.773438 C 184.710938 154.910156 188.292969 154.859375 192.269531 153.199219 " fill-opacity="1" fill-rule="nonzero"/><path fill="#435d2b" d="M 184.175781 157.800781 C 182.410156 157.566406 180.570312 157.878906 178.992188 158.421875 C 178.535156 158.578125 178.097656 158.765625 177.6875 158.949219 C 175.894531 159.78125 174.6875 160.84375 174.785156 161.429688 C 174.894531 162.09375 176.636719 162.007812 179.148438 162.25 C 179.664062 162.300781 180.210938 162.367188 180.777344 162.457031 C 181.59375 162.582031 182.46875 162.757812 183.375 163.023438 C 188.925781 164.59375 192.648438 168.226562 194.945312 171.125 C 193.425781 163.851562 189.328125 158.492188 184.175781 157.800781 Z M 184.175781 157.800781 " fill-opacity="1" fill-rule="nonzero"/><g clip-path="url(#b0d80de86a)"><path fill="#435d2b" d="M 176.792969 156.921875 C 177.191406 156.667969 177.582031 156.394531 177.96875 156.101562 C 179.34375 155.066406 180.621094 153.824219 181.613281 152.390625 C 186.179688 145.773438 184.332031 135.484375 177.601562 126.171875 C 178.507812 131.824219 178.789062 139.875 174.804688 147.871094 C 174.71875 148.035156 174.640625 148.203125 174.550781 148.359375 C 174.28125 148.894531 173.988281 149.402344 173.695312 149.902344 C 172.261719 152.324219 170.722656 154.265625 169.546875 155.769531 C 170.539062 156.65625 171.347656 157.78125 171.960938 159.15625 C 171.960938 159.175781 171.980469 159.195312 171.992188 159.214844 C 173.480469 158.734375 175.164062 157.964844 176.792969 156.910156 Z M 176.792969 156.921875 " fill-opacity="1" fill-rule="nonzero"/></g></svg>