<svg xmlns="http://www.w3.org/2000/svg" xmlns:xlink="http://www.w3.org/1999/xlink" width="500" zoomAndPan="magnify" viewBox="0 0 375 374.999991" height="500" preserveAspectRatio="xMidYMid meet" version="1.0"><path fill="#ffffff" d="M 226.167969 181.679688 L 318.96875 88.878906 C 327.511719 80.339844 327.527344 66.46875 318.984375 57.925781 C 310.457031 49.402344 296.582031 49.390625 288.03125 57.941406 L 195.230469 150.742188 L 102.429688 57.941406 C 93.890625 49.402344 80.023438 49.382812 71.480469 57.925781 C 62.953125 66.453125 62.941406 80.328125 71.492188 88.878906 L 164.292969 181.679688 L 71.492188 274.480469 C 62.953125 283.019531 62.9375 296.886719 71.480469 305.433594 C 80.003906 313.957031 93.878906 313.96875 102.429688 305.417969 L 195.230469 212.617188 L 288.03125 305.417969 C 296.570312 313.957031 310.441406 313.976562 318.984375 305.433594 C 327.511719 296.90625 327.519531 283.03125 318.96875 274.480469 Z M 226.167969 181.679688 " fill-opacity="1" fill-rule="evenodd"/></svg>