<svg xmlns="http://www.w3.org/2000/svg" xmlns:xlink="http://www.w3.org/1999/xlink" width="500" zoomAndPan="magnify" viewBox="0 0 375 374.999991" height="500" preserveAspectRatio="xMidYMid meet" version="1.0"><defs><clipPath id="05b7dc6e64"><path d="M 7.5 37.5 L 367.5 37.5 L 367.5 134 L 7.5 134 Z M 7.5 37.5 " clip-rule="nonzero"/></clipPath><clipPath id="e99c745211"><path d="M 7.5 229 L 367.5 229 L 367.5 325.5 L 7.5 325.5 Z M 7.5 229 " clip-rule="nonzero"/></clipPath><clipPath id="096bc93cfe"><path d="M 7.5 133 L 367.5 133 L 367.5 230 L 7.5 230 Z M 7.5 133 " clip-rule="nonzero"/></clipPath></defs><g clip-path="url(#05b7dc6e64)"><path fill="#ffffff" d="M 355.5 73.5 L 137.796875 73.5 C 137.472656 72.226562 137.09375 70.964844 136.664062 69.71875 C 136.238281 68.476562 135.757812 67.25 135.226562 66.046875 C 134.699219 64.84375 134.121094 63.660156 133.492188 62.503906 C 132.863281 61.347656 132.191406 60.21875 131.46875 59.117188 C 130.75 58.015625 129.984375 56.949219 129.175781 55.910156 C 128.367188 54.871094 127.515625 53.871094 126.621094 52.902344 C 125.730469 51.933594 124.800781 51.003906 123.832031 50.113281 C 122.863281 49.222656 121.859375 48.375 120.820312 47.566406 C 119.78125 46.757812 118.710938 45.996094 117.609375 45.277344 C 116.503906 44.558594 115.375 43.882812 114.21875 43.257812 C 113.058594 42.632812 111.878906 42.054688 110.671875 41.527344 C 109.46875 41 108.242188 40.523438 106.996094 40.09375 C 105.753906 39.667969 104.492188 39.292969 103.21875 38.96875 C 101.941406 38.648438 100.652344 38.378906 99.355469 38.160156 C 98.058594 37.945312 96.753906 37.78125 95.441406 37.675781 C 94.128906 37.566406 92.816406 37.511719 91.5 37.511719 C 90.183594 37.511719 88.871094 37.566406 87.558594 37.675781 C 86.246094 37.78125 84.941406 37.945312 83.644531 38.160156 C 82.347656 38.378906 81.058594 38.648438 79.78125 38.96875 C 78.507812 39.292969 77.246094 39.667969 76.003906 40.09375 C 74.757812 40.523438 73.53125 41 72.328125 41.527344 C 71.121094 42.054688 69.941406 42.632812 68.78125 43.257812 C 67.625 43.882812 66.496094 44.558594 65.390625 45.277344 C 64.289062 45.996094 63.21875 46.757812 62.179688 47.566406 C 61.140625 48.375 60.136719 49.222656 59.167969 50.113281 C 58.199219 51.003906 57.269531 51.933594 56.378906 52.902344 C 55.484375 53.871094 54.632812 54.871094 53.824219 55.910156 C 53.015625 56.949219 52.25 58.015625 51.53125 59.117188 C 50.808594 60.21875 50.136719 61.347656 49.507812 62.503906 C 48.878906 63.660156 48.300781 64.84375 47.773438 66.046875 C 47.242188 67.25 46.761719 68.476562 46.335938 69.71875 C 45.90625 70.964844 45.527344 72.226562 45.203125 73.5 L 19.5 73.5 C 18.710938 73.5 17.933594 73.578125 17.160156 73.730469 C 16.386719 73.882812 15.636719 74.113281 14.90625 74.414062 C 14.179688 74.714844 13.488281 75.085938 12.832031 75.523438 C 12.179688 75.960938 11.570312 76.457031 11.015625 77.015625 C 10.457031 77.570312 9.960938 78.179688 9.523438 78.832031 C 9.085938 79.488281 8.714844 80.179688 8.414062 80.90625 C 8.113281 81.636719 7.882812 82.386719 7.730469 83.160156 C 7.578125 83.933594 7.5 84.710938 7.5 85.5 C 7.5 86.289062 7.578125 87.066406 7.730469 87.839844 C 7.882812 88.613281 8.113281 89.363281 8.414062 90.09375 C 8.714844 90.820312 9.085938 91.511719 9.523438 92.167969 C 9.960938 92.820312 10.457031 93.429688 11.015625 93.984375 C 11.570312 94.542969 12.179688 95.039062 12.832031 95.476562 C 13.488281 95.914062 14.179688 96.285156 14.90625 96.585938 C 15.636719 96.886719 16.386719 97.117188 17.160156 97.269531 C 17.933594 97.421875 18.710938 97.5 19.5 97.5 L 45.203125 97.5 C 45.527344 98.773438 45.90625 100.035156 46.335938 101.28125 C 46.761719 102.523438 47.242188 103.75 47.773438 104.953125 C 48.300781 106.15625 48.878906 107.339844 49.507812 108.496094 C 50.136719 109.652344 50.808594 110.78125 51.53125 111.882812 C 52.25 112.984375 53.015625 114.050781 53.824219 115.089844 C 54.632812 116.128906 55.484375 117.128906 56.378906 118.097656 C 57.269531 119.066406 58.199219 119.996094 59.167969 120.886719 C 60.136719 121.777344 61.140625 122.625 62.179688 123.433594 C 63.21875 124.242188 64.289062 125.003906 65.390625 125.722656 C 66.496094 126.441406 67.625 127.117188 68.78125 127.742188 C 69.941406 128.367188 71.121094 128.945312 72.328125 129.472656 C 73.53125 130 74.757812 130.476562 76.003906 130.90625 C 77.246094 131.332031 78.507812 131.707031 79.78125 132.03125 C 81.058594 132.351562 82.347656 132.621094 83.644531 132.839844 C 84.941406 133.054688 86.246094 133.21875 87.558594 133.324219 C 88.871094 133.433594 90.183594 133.488281 91.5 133.488281 C 92.816406 133.488281 94.128906 133.433594 95.441406 133.324219 C 96.753906 133.21875 98.058594 133.054688 99.355469 132.839844 C 100.652344 132.621094 101.941406 132.351562 103.21875 132.03125 C 104.492188 131.707031 105.753906 131.332031 106.996094 130.90625 C 108.242188 130.476562 109.46875 130 110.671875 129.472656 C 111.878906 128.945312 113.058594 128.367188 114.21875 127.742188 C 115.375 127.117188 116.503906 126.441406 117.609375 125.722656 C 118.710938 125.003906 119.78125 124.242188 120.820312 123.433594 C 121.859375 122.625 122.863281 121.777344 123.832031 120.886719 C 124.800781 119.996094 125.730469 119.066406 126.621094 118.097656 C 127.515625 117.128906 128.367188 116.128906 129.175781 115.089844 C 129.984375 114.050781 130.75 112.984375 131.46875 111.882812 C 132.191406 110.78125 132.863281 109.652344 133.492188 108.496094 C 134.121094 107.339844 134.699219 106.15625 135.226562 104.953125 C 135.757812 103.75 136.238281 102.523438 136.664062 101.28125 C 137.09375 100.035156 137.472656 98.773438 137.796875 97.5 L 355.5 97.5 C 356.289062 97.5 357.066406 97.421875 357.839844 97.269531 C 358.613281 97.117188 359.363281 96.886719 360.09375 96.585938 C 360.820312 96.285156 361.511719 95.914062 362.167969 95.476562 C 362.820312 95.039062 363.429688 94.542969 363.984375 93.984375 C 364.542969 93.429688 365.039062 92.820312 365.476562 92.167969 C 365.914062 91.511719 366.285156 90.820312 366.585938 90.09375 C 366.886719 89.363281 367.117188 88.613281 367.269531 87.839844 C 367.421875 87.066406 367.5 86.289062 367.5 85.5 C 367.5 84.710938 367.421875 83.933594 367.269531 83.160156 C 367.117188 82.386719 366.886719 81.636719 366.585938 80.90625 C 366.285156 80.179688 365.914062 79.488281 365.476562 78.832031 C 365.039062 78.179688 364.542969 77.570312 363.984375 77.015625 C 363.429688 76.457031 362.820312 75.960938 362.167969 75.523438 C 361.511719 75.085938 360.820312 74.714844 360.09375 74.414062 C 359.363281 74.113281 358.613281 73.882812 357.839844 73.730469 C 357.066406 73.578125 356.289062 73.5 355.5 73.5 Z M 91.5 109.5 C 90.714844 109.5 89.929688 109.460938 89.148438 109.382812 C 88.367188 109.308594 87.589844 109.191406 86.816406 109.039062 C 86.046875 108.886719 85.285156 108.695312 84.53125 108.464844 C 83.78125 108.238281 83.042969 107.972656 82.316406 107.671875 C 81.589844 107.371094 80.878906 107.035156 80.1875 106.667969 C 79.492188 106.296875 78.820312 105.890625 78.167969 105.457031 C 77.511719 105.019531 76.882812 104.550781 76.273438 104.050781 C 75.667969 103.554688 75.085938 103.027344 74.53125 102.46875 C 73.972656 101.914062 73.445312 101.332031 72.949219 100.726562 C 72.449219 100.117188 71.980469 99.488281 71.542969 98.832031 C 71.109375 98.179688 70.703125 97.507812 70.332031 96.8125 C 69.964844 96.121094 69.628906 95.410156 69.328125 94.683594 C 69.027344 93.957031 68.761719 93.21875 68.535156 92.46875 C 68.304688 91.714844 68.113281 90.953125 67.960938 90.183594 C 67.808594 89.410156 67.691406 88.632812 67.617188 87.851562 C 67.539062 87.070312 67.5 86.285156 67.5 85.5 C 67.5 84.714844 67.539062 83.929688 67.617188 83.148438 C 67.691406 82.367188 67.808594 81.589844 67.960938 80.816406 C 68.113281 80.046875 68.304688 79.285156 68.535156 78.53125 C 68.761719 77.78125 69.027344 77.042969 69.328125 76.316406 C 69.628906 75.589844 69.964844 74.878906 70.332031 74.1875 C 70.703125 73.492188 71.109375 72.820312 71.542969 72.167969 C 71.980469 71.511719 72.449219 70.882812 72.949219 70.273438 C 73.445312 69.667969 73.972656 69.085938 74.53125 68.53125 C 75.085938 67.972656 75.667969 67.445312 76.273438 66.949219 C 76.882812 66.449219 77.511719 65.980469 78.167969 65.542969 C 78.820312 65.109375 79.492188 64.703125 80.1875 64.332031 C 80.878906 63.964844 81.589844 63.628906 82.316406 63.328125 C 83.042969 63.027344 83.78125 62.761719 84.53125 62.535156 C 85.285156 62.304688 86.046875 62.113281 86.816406 61.960938 C 87.589844 61.808594 88.367188 61.691406 89.148438 61.617188 C 89.929688 61.539062 90.714844 61.5 91.5 61.5 C 92.285156 61.5 93.070312 61.539062 93.851562 61.617188 C 94.632812 61.691406 95.410156 61.808594 96.183594 61.960938 C 96.953125 62.113281 97.714844 62.304688 98.46875 62.535156 C 99.21875 62.761719 99.957031 63.027344 100.683594 63.328125 C 101.410156 63.628906 102.121094 63.964844 102.8125 64.332031 C 103.507812 64.703125 104.179688 65.109375 104.832031 65.542969 C 105.488281 65.980469 106.117188 66.449219 106.726562 66.949219 C 107.332031 67.445312 107.914062 67.972656 108.46875 68.53125 C 109.027344 69.085938 109.554688 69.667969 110.050781 70.273438 C 110.550781 70.882812 111.019531 71.511719 111.457031 72.167969 C 111.890625 72.820312 112.296875 73.492188 112.667969 74.1875 C 113.035156 74.878906 113.371094 75.589844 113.671875 76.316406 C 113.972656 77.042969 114.238281 77.78125 114.464844 78.53125 C 114.695312 79.285156 114.886719 80.046875 115.039062 80.816406 C 115.191406 81.589844 115.308594 82.367188 115.382812 83.148438 C 115.460938 83.929688 115.5 84.714844 115.5 85.5 C 115.5 86.285156 115.460938 87.070312 115.382812 87.851562 C 115.308594 88.632812 115.191406 89.410156 115.039062 90.183594 C 114.886719 90.953125 114.695312 91.714844 114.464844 92.46875 C 114.238281 93.21875 113.972656 93.957031 113.671875 94.683594 C 113.371094 95.410156 113.035156 96.121094 112.667969 96.8125 C 112.296875 97.507812 111.890625 98.179688 111.457031 98.832031 C 111.019531 99.488281 110.550781 100.117188 110.050781 100.726562 C 109.554688 101.332031 109.027344 101.914062 108.46875 102.46875 C 107.914062 103.027344 107.332031 103.554688 106.726562 104.050781 C 106.117188 104.550781 105.488281 105.019531 104.832031 105.457031 C 104.179688 105.890625 103.507812 106.296875 102.8125 106.667969 C 102.121094 107.035156 101.410156 107.371094 100.683594 107.671875 C 99.957031 107.972656 99.21875 108.238281 98.46875 108.464844 C 97.714844 108.695312 96.953125 108.886719 96.183594 109.039062 C 95.410156 109.191406 94.632812 109.308594 93.851562 109.382812 C 93.070312 109.460938 92.285156 109.5 91.5 109.5 Z M 91.5 109.5 " fill-opacity="1" fill-rule="nonzero"/></g><g clip-path="url(#e99c745211)"><path fill="#ffffff" d="M 355.5 265.5 L 197.796875 265.5 C 197.472656 264.222656 197.09375 262.964844 196.664062 261.71875 C 196.238281 260.476562 195.757812 259.25 195.226562 258.046875 C 194.699219 256.84375 194.121094 255.660156 193.492188 254.503906 C 192.863281 253.347656 192.191406 252.21875 191.46875 251.117188 C 190.75 250.015625 189.984375 248.949219 189.175781 247.910156 C 188.363281 246.871094 187.515625 245.871094 186.621094 244.902344 C 185.730469 243.933594 184.800781 243.003906 183.832031 242.113281 C 182.863281 241.222656 181.859375 240.375 180.820312 239.566406 C 179.78125 238.757812 178.710938 237.996094 177.609375 237.277344 C 176.503906 236.558594 175.375 235.882812 174.21875 235.257812 C 173.058594 234.632812 171.878906 234.054688 170.671875 233.527344 C 169.46875 233 168.242188 232.523438 166.996094 232.09375 C 165.753906 231.667969 164.492188 231.292969 163.21875 230.96875 C 161.941406 230.648438 160.652344 230.378906 159.355469 230.160156 C 158.058594 229.945312 156.753906 229.78125 155.441406 229.675781 C 154.128906 229.566406 152.816406 229.511719 151.5 229.511719 C 150.183594 229.511719 148.871094 229.566406 147.558594 229.675781 C 146.246094 229.78125 144.941406 229.945312 143.644531 230.160156 C 142.347656 230.378906 141.058594 230.648438 139.78125 230.96875 C 138.507812 231.292969 137.246094 231.667969 136.003906 232.09375 C 134.757812 232.523438 133.53125 233 132.328125 233.527344 C 131.121094 234.054688 129.941406 234.632812 128.78125 235.257812 C 127.625 235.882812 126.496094 236.558594 125.390625 237.277344 C 124.289062 237.996094 123.21875 238.757812 122.179688 239.566406 C 121.140625 240.375 120.136719 241.222656 119.167969 242.113281 C 118.199219 243.003906 117.269531 243.933594 116.378906 244.902344 C 115.484375 245.871094 114.632812 246.871094 113.824219 247.910156 C 113.015625 248.949219 112.25 250.015625 111.53125 251.117188 C 110.808594 252.21875 110.136719 253.347656 109.507812 254.503906 C 108.878906 255.660156 108.300781 256.84375 107.773438 258.046875 C 107.242188 259.25 106.761719 260.476562 106.335938 261.71875 C 105.90625 262.964844 105.527344 264.222656 105.203125 265.5 L 19.5 265.5 C 18.710938 265.5 17.933594 265.578125 17.160156 265.730469 C 16.386719 265.882812 15.636719 266.113281 14.90625 266.414062 C 14.179688 266.714844 13.488281 267.085938 12.832031 267.523438 C 12.179688 267.960938 11.570312 268.457031 11.015625 269.015625 C 10.457031 269.570312 9.960938 270.179688 9.523438 270.832031 C 9.085938 271.488281 8.714844 272.179688 8.414062 272.90625 C 8.113281 273.636719 7.882812 274.386719 7.730469 275.160156 C 7.578125 275.933594 7.5 276.710938 7.5 277.5 C 7.5 278.289062 7.578125 279.066406 7.730469 279.839844 C 7.882812 280.613281 8.113281 281.363281 8.414062 282.09375 C 8.714844 282.820312 9.085938 283.511719 9.523438 284.167969 C 9.960938 284.820312 10.457031 285.429688 11.015625 285.984375 C 11.570312 286.542969 12.179688 287.039062 12.832031 287.476562 C 13.488281 287.914062 14.179688 288.285156 14.90625 288.585938 C 15.636719 288.886719 16.386719 289.117188 17.160156 289.269531 C 17.933594 289.421875 18.710938 289.5 19.5 289.5 L 105.203125 289.5 C 105.527344 290.773438 105.90625 292.035156 106.335938 293.28125 C 106.761719 294.523438 107.242188 295.75 107.773438 296.953125 C 108.300781 298.15625 108.878906 299.339844 109.507812 300.496094 C 110.136719 301.652344 110.808594 302.78125 111.53125 303.882812 C 112.25 304.984375 113.015625 306.050781 113.824219 307.089844 C 114.632812 308.128906 115.484375 309.128906 116.378906 310.097656 C 117.269531 311.066406 118.199219 311.996094 119.167969 312.886719 C 120.136719 313.777344 121.140625 314.625 122.179688 315.433594 C 123.21875 316.242188 124.289062 317.003906 125.390625 317.722656 C 126.496094 318.441406 127.625 319.117188 128.78125 319.742188 C 129.941406 320.367188 131.121094 320.945312 132.328125 321.472656 C 133.53125 322 134.757812 322.476562 136.003906 322.90625 C 137.246094 323.332031 138.507812 323.707031 139.78125 324.03125 C 141.058594 324.351562 142.347656 324.621094 143.644531 324.839844 C 144.941406 325.054688 146.246094 325.21875 147.558594 325.324219 C 148.871094 325.433594 150.183594 325.488281 151.5 325.488281 C 152.816406 325.488281 154.128906 325.433594 155.441406 325.324219 C 156.753906 325.21875 158.058594 325.054688 159.355469 324.839844 C 160.652344 324.621094 161.941406 324.351562 163.21875 324.03125 C 164.492188 323.707031 165.753906 323.332031 166.996094 322.90625 C 168.242188 322.476562 169.46875 322 170.671875 321.472656 C 171.878906 320.945312 173.058594 320.367188 174.21875 319.742188 C 175.375 319.117188 176.503906 318.441406 177.609375 317.722656 C 178.710938 317.003906 179.78125 316.242188 180.820312 315.433594 C 181.859375 314.625 182.863281 313.777344 183.832031 312.886719 C 184.800781 311.996094 185.730469 311.066406 186.621094 310.097656 C 187.515625 309.128906 188.367188 308.128906 189.175781 307.089844 C 189.984375 306.050781 190.75 304.984375 191.46875 303.882812 C 192.191406 302.78125 192.863281 301.652344 193.492188 300.496094 C 194.121094 299.339844 194.699219 298.15625 195.226562 296.953125 C 195.757812 295.75 196.238281 294.523438 196.664062 293.28125 C 197.09375 292.035156 197.472656 290.773438 197.796875 289.5 L 355.5 289.5 C 356.289062 289.5 357.066406 289.421875 357.839844 289.269531 C 358.613281 289.117188 359.363281 288.886719 360.09375 288.585938 C 360.820312 288.285156 361.511719 287.914062 362.167969 287.476562 C 362.820312 287.039062 363.429688 286.542969 363.984375 285.984375 C 364.542969 285.429688 365.039062 284.820312 365.476562 284.167969 C 365.914062 283.511719 366.285156 282.820312 366.585938 282.09375 C 366.886719 281.363281 367.117188 280.613281 367.269531 279.839844 C 367.421875 279.066406 367.5 278.289062 367.5 277.5 C 367.5 276.710938 367.421875 275.933594 367.269531 275.160156 C 367.117188 274.386719 366.886719 273.636719 366.585938 272.90625 C 366.285156 272.179688 365.914062 271.488281 365.476562 270.832031 C 365.039062 270.179688 364.542969 269.570312 363.984375 269.015625 C 363.429688 268.457031 362.820312 267.960938 362.167969 267.523438 C 361.511719 267.085938 360.820312 266.714844 360.09375 266.414062 C 359.363281 266.113281 358.613281 265.882812 357.839844 265.730469 C 357.066406 265.578125 356.289062 265.5 355.5 265.5 Z M 151.5 301.5 C 150.714844 301.5 149.929688 301.460938 149.148438 301.382812 C 148.367188 301.308594 147.589844 301.191406 146.816406 301.039062 C 146.046875 300.886719 145.285156 300.695312 144.53125 300.464844 C 143.78125 300.238281 143.042969 299.972656 142.316406 299.671875 C 141.589844 299.371094 140.878906 299.035156 140.1875 298.667969 C 139.492188 298.296875 138.820312 297.890625 138.167969 297.457031 C 137.511719 297.019531 136.882812 296.550781 136.273438 296.050781 C 135.667969 295.554688 135.085938 295.027344 134.53125 294.46875 C 133.972656 293.914062 133.445312 293.332031 132.949219 292.726562 C 132.449219 292.117188 131.980469 291.488281 131.542969 290.832031 C 131.109375 290.179688 130.703125 289.507812 130.332031 288.8125 C 129.964844 288.121094 129.628906 287.410156 129.328125 286.683594 C 129.027344 285.957031 128.761719 285.21875 128.535156 284.46875 C 128.304688 283.714844 128.113281 282.953125 127.960938 282.183594 C 127.808594 281.410156 127.691406 280.632812 127.617188 279.851562 C 127.539062 279.070312 127.5 278.285156 127.5 277.5 C 127.5 276.714844 127.539062 275.929688 127.617188 275.148438 C 127.691406 274.367188 127.808594 273.589844 127.960938 272.816406 C 128.113281 272.046875 128.304688 271.285156 128.535156 270.53125 C 128.761719 269.78125 129.027344 269.042969 129.328125 268.316406 C 129.628906 267.589844 129.964844 266.878906 130.332031 266.1875 C 130.703125 265.492188 131.109375 264.820312 131.542969 264.167969 C 131.980469 263.511719 132.449219 262.882812 132.949219 262.273438 C 133.445312 261.667969 133.972656 261.085938 134.53125 260.53125 C 135.085938 259.972656 135.667969 259.445312 136.273438 258.949219 C 136.882812 258.449219 137.511719 257.980469 138.167969 257.542969 C 138.820312 257.109375 139.492188 256.703125 140.1875 256.332031 C 140.878906 255.964844 141.589844 255.628906 142.316406 255.328125 C 143.042969 255.027344 143.78125 254.761719 144.53125 254.535156 C 145.285156 254.304688 146.046875 254.113281 146.816406 253.960938 C 147.589844 253.808594 148.367188 253.691406 149.148438 253.617188 C 149.929688 253.539062 150.714844 253.5 151.5 253.5 C 152.285156 253.5 153.070312 253.539062 153.851562 253.617188 C 154.632812 253.691406 155.410156 253.808594 156.183594 253.960938 C 156.953125 254.113281 157.714844 254.304688 158.46875 254.535156 C 159.21875 254.761719 159.957031 255.027344 160.683594 255.328125 C 161.410156 255.628906 162.121094 255.964844 162.8125 256.332031 C 163.507812 256.703125 164.179688 257.109375 164.832031 257.542969 C 165.488281 257.980469 166.117188 258.449219 166.726562 258.949219 C 167.332031 259.445312 167.914062 259.972656 168.46875 260.53125 C 169.027344 261.085938 169.554688 261.667969 170.050781 262.273438 C 170.550781 262.882812 171.019531 263.511719 171.457031 264.167969 C 171.890625 264.820312 172.296875 265.492188 172.667969 266.1875 C 173.035156 266.878906 173.371094 267.589844 173.671875 268.316406 C 173.972656 269.042969 174.238281 269.78125 174.464844 270.53125 C 174.695312 271.285156 174.886719 272.046875 175.039062 272.816406 C 175.191406 273.589844 175.308594 274.367188 175.382812 275.148438 C 175.460938 275.929688 175.5 276.714844 175.5 277.5 C 175.5 278.285156 175.460938 279.070312 175.382812 279.851562 C 175.308594 280.632812 175.191406 281.410156 175.039062 282.183594 C 174.886719 282.953125 174.695312 283.714844 174.464844 284.46875 C 174.238281 285.21875 173.972656 285.957031 173.671875 286.683594 C 173.371094 287.410156 173.035156 288.121094 172.667969 288.8125 C 172.296875 289.507812 171.890625 290.179688 171.457031 290.832031 C 171.019531 291.488281 170.550781 292.117188 170.050781 292.726562 C 169.554688 293.332031 169.027344 293.914062 168.46875 294.46875 C 167.914062 295.027344 167.332031 295.554688 166.726562 296.050781 C 166.117188 296.550781 165.488281 297.019531 164.832031 297.457031 C 164.179688 297.890625 163.507812 298.296875 162.8125 298.667969 C 162.121094 299.035156 161.410156 299.371094 160.683594 299.671875 C 159.957031 299.972656 159.21875 300.238281 158.46875 300.464844 C 157.714844 300.695312 156.953125 300.886719 156.183594 301.039062 C 155.410156 301.191406 154.632812 301.308594 153.851562 301.382812 C 153.070312 301.460938 152.285156 301.5 151.5 301.5 Z M 151.5 301.5 " fill-opacity="1" fill-rule="nonzero"/></g><g clip-path="url(#096bc93cfe)"><path fill="#ffffff" d="M 355.5 169.5 L 341.796875 169.5 C 341.472656 168.226562 341.09375 166.964844 340.664062 165.71875 C 340.238281 164.476562 339.757812 163.25 339.226562 162.046875 C 338.699219 160.84375 338.121094 159.660156 337.492188 158.503906 C 336.863281 157.347656 336.191406 156.21875 335.46875 155.117188 C 334.75 154.015625 333.984375 152.949219 333.175781 151.910156 C 332.363281 150.871094 331.515625 149.871094 330.621094 148.902344 C 329.730469 147.933594 328.800781 147.003906 327.832031 146.113281 C 326.863281 145.222656 325.859375 144.375 324.820312 143.566406 C 323.78125 142.757812 322.710938 141.996094 321.609375 141.277344 C 320.503906 140.558594 319.375 139.882812 318.21875 139.257812 C 317.058594 138.632812 315.878906 138.054688 314.671875 137.527344 C 313.46875 137 312.242188 136.523438 310.996094 136.09375 C 309.753906 135.667969 308.492188 135.292969 307.21875 134.96875 C 305.941406 134.648438 304.652344 134.378906 303.355469 134.160156 C 302.058594 133.945312 300.753906 133.78125 299.441406 133.675781 C 298.128906 133.566406 296.816406 133.511719 295.5 133.511719 C 294.183594 133.511719 292.871094 133.566406 291.558594 133.675781 C 290.246094 133.78125 288.941406 133.945312 287.644531 134.160156 C 286.347656 134.378906 285.058594 134.648438 283.78125 134.96875 C 282.507812 135.292969 281.246094 135.667969 280.003906 136.09375 C 278.757812 136.523438 277.53125 137 276.328125 137.527344 C 275.121094 138.054688 273.941406 138.632812 272.78125 139.257812 C 271.625 139.882812 270.496094 140.558594 269.390625 141.277344 C 268.289062 141.996094 267.21875 142.757812 266.179688 143.566406 C 265.140625 144.375 264.136719 145.222656 263.167969 146.113281 C 262.199219 147.003906 261.269531 147.933594 260.378906 148.902344 C 259.484375 149.871094 258.632812 150.871094 257.824219 151.910156 C 257.015625 152.949219 256.25 154.015625 255.53125 155.117188 C 254.808594 156.21875 254.136719 157.347656 253.507812 158.503906 C 252.878906 159.660156 252.300781 160.84375 251.773438 162.046875 C 251.242188 163.25 250.761719 164.476562 250.332031 165.71875 C 249.90625 166.964844 249.527344 168.226562 249.203125 169.5 L 19.5 169.5 C 18.710938 169.5 17.933594 169.578125 17.160156 169.730469 C 16.386719 169.882812 15.636719 170.113281 14.90625 170.414062 C 14.179688 170.714844 13.488281 171.085938 12.832031 171.523438 C 12.179688 171.960938 11.570312 172.457031 11.015625 173.015625 C 10.457031 173.570312 9.960938 174.179688 9.523438 174.832031 C 9.085938 175.488281 8.714844 176.179688 8.414062 176.90625 C 8.113281 177.636719 7.882812 178.386719 7.730469 179.160156 C 7.578125 179.933594 7.5 180.710938 7.5 181.5 C 7.5 182.289062 7.578125 183.066406 7.730469 183.839844 C 7.882812 184.613281 8.113281 185.363281 8.414062 186.09375 C 8.714844 186.820312 9.085938 187.511719 9.523438 188.167969 C 9.960938 188.820312 10.457031 189.429688 11.015625 189.984375 C 11.570312 190.542969 12.179688 191.039062 12.832031 191.476562 C 13.488281 191.914062 14.179688 192.285156 14.90625 192.585938 C 15.636719 192.886719 16.386719 193.117188 17.160156 193.269531 C 17.933594 193.421875 18.710938 193.5 19.5 193.5 L 249.203125 193.5 C 249.527344 194.773438 249.90625 196.035156 250.332031 197.28125 C 250.761719 198.523438 251.242188 199.75 251.773438 200.953125 C 252.300781 202.15625 252.878906 203.339844 253.507812 204.496094 C 254.136719 205.652344 254.808594 206.78125 255.53125 207.882812 C 256.25 208.984375 257.015625 210.050781 257.824219 211.089844 C 258.632812 212.128906 259.484375 213.128906 260.378906 214.097656 C 261.269531 215.066406 262.199219 215.996094 263.167969 216.886719 C 264.136719 217.777344 265.140625 218.625 266.179688 219.433594 C 267.21875 220.242188 268.289062 221.003906 269.390625 221.722656 C 270.496094 222.441406 271.625 223.117188 272.78125 223.742188 C 273.941406 224.367188 275.121094 224.945312 276.328125 225.472656 C 277.53125 226 278.757812 226.476562 280.003906 226.90625 C 281.246094 227.332031 282.507812 227.707031 283.78125 228.03125 C 285.058594 228.351562 286.347656 228.621094 287.644531 228.839844 C 288.941406 229.054688 290.246094 229.21875 291.558594 229.324219 C 292.871094 229.433594 294.183594 229.488281 295.5 229.488281 C 296.816406 229.488281 298.128906 229.433594 299.441406 229.324219 C 300.753906 229.21875 302.058594 229.054688 303.355469 228.839844 C 304.652344 228.621094 305.941406 228.351562 307.21875 228.03125 C 308.492188 227.707031 309.753906 227.332031 310.996094 226.90625 C 312.242188 226.476562 313.46875 226 314.671875 225.472656 C 315.878906 224.945312 317.058594 224.367188 318.21875 223.742188 C 319.375 223.117188 320.503906 222.441406 321.609375 221.722656 C 322.710938 221.003906 323.78125 220.242188 324.820312 219.433594 C 325.859375 218.625 326.863281 217.777344 327.832031 216.886719 C 328.800781 215.996094 329.730469 215.066406 330.621094 214.097656 C 331.515625 213.128906 332.363281 212.128906 333.175781 211.089844 C 333.984375 210.050781 334.75 208.984375 335.46875 207.882812 C 336.191406 206.78125 336.863281 205.652344 337.492188 204.496094 C 338.121094 203.339844 338.699219 202.15625 339.226562 200.953125 C 339.757812 199.75 340.238281 198.523438 340.664062 197.28125 C 341.09375 196.035156 341.472656 194.773438 341.796875 193.5 L 355.5 193.5 C 356.289062 193.5 357.066406 193.421875 357.839844 193.269531 C 358.613281 193.117188 359.363281 192.886719 360.09375 192.585938 C 360.820312 192.285156 361.511719 191.914062 362.167969 191.476562 C 362.820312 191.039062 363.429688 190.542969 363.984375 189.984375 C 364.542969 189.429688 365.039062 188.820312 365.476562 188.167969 C 365.914062 187.511719 366.285156 186.820312 366.585938 186.09375 C 366.886719 185.363281 367.117188 184.613281 367.269531 183.839844 C 367.421875 183.066406 367.5 182.289062 367.5 181.5 C 367.5 180.710938 367.421875 179.933594 367.269531 179.160156 C 367.117188 178.386719 366.886719 177.636719 366.585938 176.90625 C 366.285156 176.179688 365.914062 175.488281 365.476562 174.832031 C 365.039062 174.179688 364.542969 173.570312 363.984375 173.015625 C 363.429688 172.457031 362.820312 171.960938 362.167969 171.523438 C 361.511719 171.085938 360.820312 170.714844 360.09375 170.414062 C 359.363281 170.113281 358.613281 169.882812 357.839844 169.730469 C 357.066406 169.578125 356.289062 169.5 355.5 169.5 Z M 295.5 205.5 C 294.714844 205.5 293.929688 205.460938 293.148438 205.382812 C 292.367188 205.308594 291.589844 205.191406 290.816406 205.039062 C 290.046875 204.886719 289.285156 204.695312 288.53125 204.464844 C 287.78125 204.238281 287.042969 203.972656 286.316406 203.671875 C 285.589844 203.371094 284.878906 203.035156 284.1875 202.667969 C 283.492188 202.296875 282.820312 201.890625 282.167969 201.457031 C 281.511719 201.019531 280.882812 200.550781 280.273438 200.050781 C 279.667969 199.554688 279.085938 199.027344 278.53125 198.46875 C 277.972656 197.914062 277.445312 197.332031 276.949219 196.726562 C 276.449219 196.117188 275.980469 195.488281 275.542969 194.832031 C 275.109375 194.179688 274.703125 193.507812 274.332031 192.8125 C 273.964844 192.121094 273.628906 191.410156 273.328125 190.683594 C 273.027344 189.957031 272.761719 189.21875 272.535156 188.46875 C 272.304688 187.714844 272.113281 186.953125 271.960938 186.183594 C 271.808594 185.410156 271.691406 184.632812 271.617188 183.851562 C 271.539062 183.070312 271.5 182.285156 271.5 181.5 C 271.5 180.714844 271.539062 179.929688 271.617188 179.148438 C 271.691406 178.367188 271.808594 177.589844 271.960938 176.816406 C 272.113281 176.046875 272.304688 175.285156 272.535156 174.53125 C 272.761719 173.78125 273.027344 173.042969 273.328125 172.316406 C 273.628906 171.589844 273.964844 170.878906 274.332031 170.1875 C 274.703125 169.492188 275.109375 168.820312 275.542969 168.167969 C 275.980469 167.511719 276.449219 166.882812 276.949219 166.273438 C 277.445312 165.667969 277.972656 165.085938 278.53125 164.53125 C 279.085938 163.972656 279.667969 163.445312 280.273438 162.949219 C 280.882812 162.449219 281.511719 161.980469 282.167969 161.542969 C 282.820312 161.109375 283.492188 160.703125 284.1875 160.332031 C 284.878906 159.964844 285.589844 159.628906 286.316406 159.328125 C 287.042969 159.027344 287.78125 158.761719 288.53125 158.535156 C 289.285156 158.304688 290.046875 158.113281 290.816406 157.960938 C 291.589844 157.808594 292.367188 157.691406 293.148438 157.617188 C 293.929688 157.539062 294.714844 157.5 295.5 157.5 C 296.285156 157.5 297.070312 157.539062 297.851562 157.617188 C 298.632812 157.691406 299.410156 157.808594 300.183594 157.960938 C 300.953125 158.113281 301.714844 158.304688 302.46875 158.535156 C 303.21875 158.761719 303.957031 159.027344 304.683594 159.328125 C 305.410156 159.628906 306.121094 159.964844 306.8125 160.332031 C 307.507812 160.703125 308.179688 161.109375 308.832031 161.542969 C 309.488281 161.980469 310.117188 162.449219 310.726562 162.949219 C 311.332031 163.445312 311.914062 163.972656 312.46875 164.53125 C 313.027344 165.085938 313.554688 165.667969 314.050781 166.273438 C 314.550781 166.882812 315.019531 167.511719 315.457031 168.167969 C 315.890625 168.820312 316.296875 169.492188 316.667969 170.1875 C 317.035156 170.878906 317.371094 171.589844 317.671875 172.316406 C 317.972656 173.042969 318.238281 173.78125 318.464844 174.53125 C 318.695312 175.285156 318.886719 176.046875 319.039062 176.816406 C 319.191406 177.589844 319.308594 178.367188 319.382812 179.148438 C 319.460938 179.929688 319.5 180.714844 319.5 181.5 C 319.5 182.285156 319.460938 183.070312 319.382812 183.851562 C 319.308594 184.632812 319.191406 185.410156 319.039062 186.183594 C 318.886719 186.953125 318.695312 187.714844 318.464844 188.46875 C 318.238281 189.21875 317.972656 189.957031 317.671875 190.683594 C 317.371094 191.410156 317.035156 192.121094 316.667969 192.8125 C 316.296875 193.507812 315.890625 194.179688 315.457031 194.832031 C 315.019531 195.488281 314.550781 196.117188 314.050781 196.726562 C 313.554688 197.332031 313.027344 197.914062 312.46875 198.46875 C 311.914062 199.027344 311.332031 199.554688 310.726562 200.050781 C 310.117188 200.550781 309.488281 201.019531 308.832031 201.457031 C 308.179688 201.890625 307.507812 202.296875 306.8125 202.667969 C 306.121094 203.035156 305.410156 203.371094 304.683594 203.671875 C 303.957031 203.972656 303.21875 204.238281 302.46875 204.464844 C 301.714844 204.695312 300.953125 204.886719 300.183594 205.039062 C 299.410156 205.191406 298.632812 205.308594 297.851562 205.382812 C 297.070312 205.460938 296.285156 205.5 295.5 205.5 Z M 295.5 205.5 " fill-opacity="1" fill-rule="nonzero"/></g></svg>