<svg xmlns="http://www.w3.org/2000/svg" xmlns:xlink="http://www.w3.org/1999/xlink" width="500" zoomAndPan="magnify" viewBox="0 0 375 374.999991" height="500" preserveAspectRatio="xMidYMid meet" version="1.0"><defs><clipPath id="9ec9adfa99"><path d="M 282 278 L 322.316406 278 L 322.316406 322.316406 L 282 322.316406 Z M 282 278 " clip-rule="nonzero"/></clipPath><clipPath id="89df303fd6"><path d="M 278 296 L 309 296 L 309 322.316406 L 278 322.316406 Z M 278 296 " clip-rule="nonzero"/></clipPath><clipPath id="2340c02789"><path d="M 141 188 L 294 188 L 294 322.316406 L 141 322.316406 Z M 141 188 " clip-rule="nonzero"/></clipPath><clipPath id="4f75dd2a22"><path d="M 225 297 L 251 297 L 251 322.316406 L 225 322.316406 Z M 225 297 " clip-rule="nonzero"/></clipPath><clipPath id="661e5cf96c"><path d="M 235 292 L 270 292 L 270 322.316406 L 235 322.316406 Z M 235 292 " clip-rule="nonzero"/></clipPath><clipPath id="7eb4816aed"><path d="M 218 299 L 233 299 L 233 322.316406 L 218 322.316406 Z M 218 299 " clip-rule="nonzero"/></clipPath><clipPath id="84db6ecf62"><path d="M 73.316406 73.316406 L 92 73.316406 L 92 92 L 73.316406 92 Z M 73.316406 73.316406 " clip-rule="nonzero"/></clipPath><clipPath id="e22fef4110"><path d="M 121 73.316406 L 145 73.316406 L 145 97 L 121 97 Z M 121 73.316406 " clip-rule="nonzero"/></clipPath><clipPath id="eadffbb17b"><path d="M 141 221 L 203 221 L 203 322.316406 L 141 322.316406 Z M 141 221 " clip-rule="nonzero"/></clipPath><clipPath id="9059158c38"><path d="M 58 224.257812 L 140 224.257812 L 140 321.757812 L 58 321.757812 Z M 58 224.257812 " clip-rule="nonzero"/></clipPath></defs><g clip-path="url(#9ec9adfa99)"><path fill="#e15c63" d="M 308.445312 293.496094 C 301.980469 285.703125 294.917969 280.941406 290.050781 278.1875 C 278.726562 285.9375 280.289062 291.945312 292.828125 296.238281 L 308.480469 322.316406 L 322.316406 322.316406 C 321.015625 316.160156 317.699219 304.640625 308.445312 293.496094 Z M 308.445312 293.496094 " fill-opacity="1" fill-rule="nonzero"/></g><g clip-path="url(#89df303fd6)"><path fill="#d14b62" d="M 308.480469 322.316406 L 292.835938 322.316406 L 292.835938 322.304688 C 277.460938 315.484375 270.417969 305.125 292.828125 296.238281 C 294.855469 297.527344 297.101562 299.257812 299.257812 301.566406 C 306.355469 309.148438 308.007812 318.128906 308.480469 322.316406 Z M 308.480469 322.316406 " fill-opacity="1" fill-rule="nonzero"/></g><g clip-path="url(#2340c02789)"><path fill="#cdc7b9" d="M 292.828125 296.238281 C 292.332031 290.710938 291.46875 284.628906 290.050781 278.1875 C 286.664062 262.777344 280.113281 245.316406 267.828125 228.503906 C 251.597656 206.296875 231.976562 194.277344 220.226562 188.324219 C 199.738281 216.519531 174.769531 228.664062 144.441406 221.621094 C 142.734375 231.636719 141.566406 242.84375 141.453125 255.054688 C 141.253906 277.410156 144.664062 297.382812 149.390625 314.308594 C 150.15625 317.058594 150.957031 319.730469 151.785156 322.316406 L 218.183594 322.316406 L 235.773438 310 L 269.289062 322.316406 L 292.835938 322.316406 L 292.835938 322.304688 C 293.273438 317.550781 293.90625 308.195312 292.828125 296.238281 Z M 292.828125 296.238281 " fill-opacity="1" fill-rule="nonzero"/></g><path fill="#5d5560" d="M 247.355469 244.164062 C 248.789062 251.667969 243.871094 258.917969 236.371094 260.351562 C 228.867188 261.789062 221.617188 256.875 220.179688 249.367188 C 218.746094 241.863281 223.660156 234.613281 231.164062 233.179688 C 238.671875 231.742188 245.914062 236.65625 247.355469 244.164062 Z M 247.355469 244.164062 " fill-opacity="1" fill-rule="nonzero"/><path fill="#86cacf" d="M 289.816406 168.503906 C 297.476562 175.324219 293.304688 195.480469 278.535156 220.777344 C 268.136719 193.394531 267.351562 172.824219 276.03125 167.359375 C 280.027344 164.84375 286.292969 165.359375 289.816406 168.503906 Z M 289.816406 168.503906 " fill-opacity="1" fill-rule="nonzero"/><path fill="#86cacf" d="M 102.957031 227.863281 C 110.152344 226.78125 119.253906 238.214844 126.34375 257.761719 C 106.679688 250.988281 95.105469 242.078125 96.066406 234.859375 C 96.507812 231.535156 99.636719 228.359375 102.957031 227.863281 Z M 102.957031 227.863281 " fill-opacity="1" fill-rule="nonzero"/><path fill="#a8dee1" d="M 88.601562 258.234375 C 97.859375 256.386719 110.351562 270.617188 120.746094 295.476562 C 94.871094 287.941406 79.332031 277.125 80.125 267.726562 C 80.488281 263.394531 84.34375 259.082031 88.601562 258.234375 Z M 88.601562 258.234375 " fill-opacity="1" fill-rule="nonzero"/><path fill="#a8dee1" d="M 263.203125 130.710938 C 268.980469 135.863281 265.835938 151.0625 254.691406 170.148438 C 246.847656 149.488281 246.253906 133.976562 252.800781 129.847656 C 255.820312 127.949219 260.542969 128.34375 263.203125 130.710938 Z M 263.203125 130.710938 " fill-opacity="1" fill-rule="nonzero"/><g clip-path="url(#4f75dd2a22)"><path fill="#d14b62" d="M 235.773438 297.6875 C 247.488281 301.71875 251.765625 310.390625 250.84375 322.316406 L 232.398438 322.316406 C 224.707031 316.101562 222.382812 308.875 229.6875 299.820312 L 229.6875 299.816406 C 231.195312 299.414062 232.714844 298.917969 234.253906 298.316406 C 234.746094 298.125 235.25 297.914062 235.773438 297.6875 Z M 235.773438 297.6875 " fill-opacity="1" fill-rule="nonzero"/></g><g clip-path="url(#661e5cf96c)"><path fill="#e15c63" d="M 244.773438 292.390625 C 252.949219 302.367188 261.121094 312.339844 269.289062 322.316406 L 250.84375 322.316406 C 245.820312 314.101562 240.796875 305.898438 235.773438 297.6875 C 238.464844 296.507812 241.527344 294.835938 244.773438 292.390625 Z M 244.773438 292.390625 " fill-opacity="1" fill-rule="nonzero"/></g><g clip-path="url(#7eb4816aed)"><path fill="#e15c63" d="M 229.6875 299.820312 C 230.59375 307.320312 231.496094 314.816406 232.398438 322.316406 L 218.183594 322.316406 L 218.855469 301.308594 L 218.855469 301.300781 C 222.398438 301.230469 226 300.804688 229.6875 299.816406 Z M 229.6875 299.820312 " fill-opacity="1" fill-rule="nonzero"/></g><path fill="#e15c63" d="M 203.699219 163.324219 C 211.34375 164.332031 217.699219 174.191406 220.226562 188.324219 C 220.011719 204.894531 211.304688 220.082031 197.292969 227.925781 C 180.746094 237.199219 159.433594 234.757812 144.441406 221.621094 C 133.449219 211.9375 128.601562 200.804688 132.011719 193.484375 C 132.347656 192.761719 134.117188 189.175781 137.9375 187.65625 C 152.207031 181.96875 171.621094 214.316406 182.066406 209.71875 C 192.054688 205.320312 182.390625 172.253906 196.90625 164.621094 C 197.835938 164.136719 200.488281 162.894531 203.699219 163.324219 Z M 203.699219 163.324219 " fill-opacity="1" fill-rule="nonzero"/><g clip-path="url(#84db6ecf62)"><path fill="#7f5d46" d="M 91.761719 82.539062 C 91.761719 83.144531 91.699219 83.742188 91.582031 84.335938 C 91.464844 84.929688 91.289062 85.507812 91.058594 86.066406 C 90.828125 86.625 90.542969 87.15625 90.207031 87.660156 C 89.871094 88.164062 89.488281 88.632812 89.058594 89.058594 C 88.632812 89.488281 88.164062 89.871094 87.660156 90.207031 C 87.15625 90.542969 86.625 90.828125 86.066406 91.058594 C 85.507812 91.289062 84.929688 91.464844 84.335938 91.582031 C 83.742188 91.699219 83.144531 91.761719 82.539062 91.761719 C 81.933594 91.761719 81.332031 91.699219 80.738281 91.582031 C 80.144531 91.464844 79.570312 91.289062 79.007812 91.058594 C 78.449219 90.828125 77.917969 90.542969 77.414062 90.207031 C 76.910156 89.871094 76.445312 89.488281 76.015625 89.058594 C 75.589844 88.632812 75.207031 88.164062 74.871094 87.660156 C 74.535156 87.15625 74.25 86.625 74.019531 86.066406 C 73.785156 85.507812 73.613281 84.929688 73.492188 84.335938 C 73.375 83.742188 73.316406 83.144531 73.316406 82.539062 C 73.316406 81.933594 73.375 81.332031 73.492188 80.738281 C 73.613281 80.144531 73.785156 79.570312 74.019531 79.007812 C 74.25 78.449219 74.535156 77.917969 74.871094 77.414062 C 75.207031 76.910156 75.589844 76.445312 76.015625 76.015625 C 76.445312 75.589844 76.910156 75.207031 77.414062 74.871094 C 77.917969 74.535156 78.449219 74.25 79.007812 74.019531 C 79.570312 73.785156 80.144531 73.613281 80.738281 73.492188 C 81.332031 73.375 81.933594 73.316406 82.539062 73.316406 C 83.144531 73.316406 83.742188 73.375 84.335938 73.492188 C 84.929688 73.613281 85.507812 73.785156 86.066406 74.019531 C 86.625 74.25 87.15625 74.535156 87.660156 74.871094 C 88.164062 75.207031 88.632812 75.589844 89.058594 76.015625 C 89.488281 76.445312 89.871094 76.910156 90.207031 77.414062 C 90.542969 77.917969 90.828125 78.449219 91.058594 79.007812 C 91.289062 79.570312 91.464844 80.144531 91.582031 80.738281 C 91.699219 81.332031 91.761719 81.933594 91.761719 82.539062 Z M 91.761719 82.539062 " fill-opacity="1" fill-rule="nonzero"/></g><path fill="#7f5d46" d="M 105.597656 160.929688 C 105.597656 161.535156 105.535156 162.132812 105.417969 162.726562 C 105.300781 163.320312 105.125 163.898438 104.894531 164.457031 C 104.660156 165.015625 104.378906 165.546875 104.042969 166.050781 C 103.707031 166.554688 103.324219 167.019531 102.894531 167.449219 C 102.464844 167.878906 102 168.257812 101.496094 168.597656 C 100.992188 168.933594 100.460938 169.214844 99.902344 169.449219 C 99.34375 169.679688 98.765625 169.855469 98.171875 169.972656 C 97.578125 170.089844 96.980469 170.148438 96.375 170.148438 C 95.769531 170.148438 95.167969 170.089844 94.574219 169.972656 C 93.980469 169.855469 93.402344 169.679688 92.84375 169.449219 C 92.285156 169.214844 91.753906 168.933594 91.25 168.597656 C 90.746094 168.257812 90.28125 167.878906 89.851562 167.449219 C 89.425781 167.019531 89.042969 166.554688 88.707031 166.050781 C 88.371094 165.546875 88.085938 165.015625 87.855469 164.457031 C 87.621094 163.898438 87.445312 163.320312 87.328125 162.726562 C 87.210938 162.132812 87.152344 161.535156 87.152344 160.929688 C 87.152344 160.324219 87.210938 159.722656 87.328125 159.128906 C 87.445312 158.535156 87.621094 157.957031 87.855469 157.398438 C 88.085938 156.839844 88.371094 156.308594 88.707031 155.804688 C 89.042969 155.300781 89.425781 154.835938 89.851562 154.40625 C 90.28125 153.980469 90.746094 153.597656 91.25 153.261719 C 91.753906 152.921875 92.285156 152.640625 92.84375 152.40625 C 93.402344 152.175781 93.980469 152 94.574219 151.882812 C 95.167969 151.765625 95.769531 151.707031 96.375 151.707031 C 96.980469 151.707031 97.578125 151.765625 98.171875 151.882812 C 98.765625 152 99.34375 152.175781 99.902344 152.40625 C 100.460938 152.640625 100.992188 152.921875 101.496094 153.261719 C 102 153.597656 102.464844 153.980469 102.894531 154.40625 C 103.324219 154.835938 103.707031 155.300781 104.042969 155.804688 C 104.378906 156.308594 104.660156 156.839844 104.894531 157.398438 C 105.125 157.957031 105.300781 158.535156 105.417969 159.128906 C 105.535156 159.722656 105.597656 160.324219 105.597656 160.929688 Z M 105.597656 160.929688 " fill-opacity="1" fill-rule="nonzero"/><g clip-path="url(#e22fef4110)"><path fill="#7f5d46" d="M 133.261719 73.316406 C 139.628906 73.316406 144.789062 78.476562 144.789062 84.84375 C 144.789062 91.214844 139.628906 96.375 133.261719 96.375 C 126.894531 96.375 121.730469 91.214844 121.730469 84.84375 C 121.730469 78.476562 126.894531 73.316406 133.261719 73.316406 Z M 133.261719 73.316406 " fill-opacity="1" fill-rule="nonzero"/></g><path fill="#7f5d46" d="M 147.09375 128.648438 C 153.464844 128.648438 158.625 133.808594 158.625 140.179688 C 158.625 146.546875 153.464844 151.707031 147.09375 151.707031 C 140.726562 151.707031 135.566406 146.546875 135.566406 140.179688 C 135.566406 133.808594 140.726562 128.648438 147.09375 128.648438 Z M 147.09375 128.648438 " fill-opacity="1" fill-rule="nonzero"/><path fill="#604533" d="M 227.785156 94.066406 C 227.785156 94.671875 227.726562 95.269531 227.609375 95.863281 C 227.492188 96.457031 227.316406 97.035156 227.085938 97.59375 C 226.851562 98.152344 226.570312 98.683594 226.230469 99.1875 C 225.894531 99.691406 225.511719 100.15625 225.085938 100.585938 C 224.65625 101.011719 224.191406 101.394531 223.6875 101.730469 C 223.183594 102.070312 222.652344 102.351562 222.09375 102.585938 C 221.535156 102.816406 220.957031 102.992188 220.363281 103.109375 C 219.769531 103.226562 219.171875 103.285156 218.566406 103.285156 C 217.957031 103.285156 217.359375 103.226562 216.765625 103.109375 C 216.171875 102.992188 215.59375 102.816406 215.035156 102.585938 C 214.476562 102.351562 213.945312 102.070312 213.441406 101.730469 C 212.9375 101.394531 212.472656 101.011719 212.042969 100.585938 C 211.617188 100.15625 211.234375 99.691406 210.898438 99.1875 C 210.558594 98.683594 210.277344 98.152344 210.042969 97.59375 C 209.8125 97.035156 209.636719 96.457031 209.519531 95.863281 C 209.402344 95.269531 209.34375 94.671875 209.34375 94.066406 C 209.34375 93.457031 209.402344 92.859375 209.519531 92.265625 C 209.636719 91.671875 209.8125 91.09375 210.042969 90.535156 C 210.277344 89.976562 210.558594 89.445312 210.898438 88.941406 C 211.234375 88.4375 211.617188 87.972656 212.042969 87.542969 C 212.472656 87.117188 212.9375 86.734375 213.441406 86.398438 C 213.945312 86.058594 214.476562 85.777344 215.035156 85.542969 C 215.59375 85.3125 216.171875 85.136719 216.765625 85.019531 C 217.359375 84.902344 217.957031 84.84375 218.566406 84.84375 C 219.171875 84.84375 219.769531 84.902344 220.363281 85.019531 C 220.957031 85.136719 221.535156 85.3125 222.09375 85.542969 C 222.652344 85.777344 223.183594 86.058594 223.6875 86.398438 C 224.191406 86.734375 224.65625 87.117188 225.085938 87.542969 C 225.511719 87.972656 225.894531 88.4375 226.230469 88.941406 C 226.570312 89.445312 226.851562 89.976562 227.085938 90.535156 C 227.316406 91.09375 227.492188 91.671875 227.609375 92.265625 C 227.726562 92.859375 227.785156 93.457031 227.785156 94.066406 Z M 227.785156 94.066406 " fill-opacity="1" fill-rule="nonzero"/><path fill="#604533" d="M 103.285156 103.285156 C 109.65625 103.285156 114.816406 108.445312 114.816406 114.816406 C 114.816406 121.183594 109.65625 126.34375 103.285156 126.34375 C 96.921875 126.34375 91.761719 121.183594 91.761719 114.816406 C 91.761719 108.445312 96.921875 103.285156 103.285156 103.285156 Z M 103.285156 103.285156 " fill-opacity="1" fill-rule="nonzero"/><path fill="#604533" d="M 193.203125 107.898438 C 193.203125 108.65625 193.128906 109.40625 192.980469 110.148438 C 192.832031 110.890625 192.613281 111.613281 192.324219 112.3125 C 192.035156 113.011719 191.679688 113.675781 191.261719 114.304688 C 190.839844 114.933594 190.363281 115.515625 189.828125 116.050781 C 189.292969 116.585938 188.710938 117.0625 188.078125 117.484375 C 187.449219 117.902344 186.785156 118.257812 186.085938 118.550781 C 185.386719 118.839844 184.667969 119.058594 183.925781 119.203125 C 183.183594 119.351562 182.433594 119.425781 181.675781 119.425781 C 180.917969 119.425781 180.171875 119.351562 179.425781 119.203125 C 178.683594 119.058594 177.964844 118.839844 177.265625 118.550781 C 176.566406 118.257812 175.902344 117.902344 175.273438 117.484375 C 174.644531 117.0625 174.0625 116.585938 173.527344 116.050781 C 172.992188 115.515625 172.511719 114.933594 172.09375 114.304688 C 171.671875 113.675781 171.316406 113.011719 171.027344 112.3125 C 170.738281 111.613281 170.519531 110.890625 170.371094 110.148438 C 170.222656 109.40625 170.148438 108.65625 170.148438 107.898438 C 170.148438 107.144531 170.222656 106.394531 170.371094 105.652344 C 170.519531 104.910156 170.738281 104.1875 171.027344 103.488281 C 171.316406 102.789062 171.671875 102.125 172.09375 101.496094 C 172.511719 100.867188 172.992188 100.285156 173.527344 99.75 C 174.0625 99.214844 174.644531 98.738281 175.273438 98.316406 C 175.902344 97.894531 176.566406 97.539062 177.265625 97.25 C 177.964844 96.960938 178.683594 96.742188 179.425781 96.59375 C 180.171875 96.449219 180.917969 96.375 181.675781 96.375 C 182.433594 96.375 183.183594 96.449219 183.925781 96.59375 C 184.667969 96.742188 185.386719 96.960938 186.085938 97.25 C 186.785156 97.539062 187.449219 97.894531 188.078125 98.316406 C 188.710938 98.738281 189.292969 99.214844 189.828125 99.75 C 190.363281 100.285156 190.839844 100.867188 191.261719 101.496094 C 191.679688 102.125 192.035156 102.789062 192.324219 103.488281 C 192.613281 104.1875 192.832031 104.910156 192.980469 105.652344 C 193.128906 106.394531 193.203125 107.144531 193.203125 107.898438 Z M 193.203125 107.898438 " fill-opacity="1" fill-rule="nonzero"/><path fill="#604533" d="M 181.675781 174.757812 C 181.675781 175.363281 181.617188 175.964844 181.5 176.558594 C 181.382812 177.152344 181.207031 177.726562 180.972656 178.289062 C 180.742188 178.847656 180.457031 179.378906 180.121094 179.882812 C 179.785156 180.386719 179.402344 180.851562 178.976562 181.28125 C 178.546875 181.707031 178.082031 182.089844 177.578125 182.425781 C 177.074219 182.761719 176.542969 183.046875 175.984375 183.277344 C 175.425781 183.511719 174.847656 183.683594 174.253906 183.804688 C 173.660156 183.921875 173.058594 183.980469 172.453125 183.980469 C 171.847656 183.980469 171.25 183.921875 170.65625 183.804688 C 170.0625 183.683594 169.484375 183.511719 168.925781 183.277344 C 168.367188 183.046875 167.835938 182.761719 167.332031 182.425781 C 166.828125 182.089844 166.363281 181.707031 165.933594 181.28125 C 165.503906 180.851562 165.121094 180.386719 164.785156 179.882812 C 164.449219 179.378906 164.164062 178.847656 163.933594 178.289062 C 163.703125 177.726562 163.527344 177.152344 163.410156 176.558594 C 163.292969 175.964844 163.230469 175.363281 163.230469 174.757812 C 163.230469 174.152344 163.292969 173.554688 163.410156 172.960938 C 163.527344 172.367188 163.703125 171.789062 163.933594 171.230469 C 164.164062 170.671875 164.449219 170.136719 164.785156 169.636719 C 165.121094 169.132812 165.503906 168.664062 165.933594 168.238281 C 166.363281 167.808594 166.828125 167.425781 167.332031 167.089844 C 167.835938 166.753906 168.367188 166.46875 168.925781 166.238281 C 169.484375 166.007812 170.0625 165.832031 170.65625 165.714844 C 171.25 165.59375 171.847656 165.535156 172.453125 165.535156 C 173.058594 165.535156 173.660156 165.59375 174.253906 165.714844 C 174.847656 165.832031 175.425781 166.007812 175.984375 166.238281 C 176.542969 166.46875 177.074219 166.753906 177.578125 167.089844 C 178.082031 167.425781 178.546875 167.808594 178.976562 168.238281 C 179.402344 168.664062 179.785156 169.132812 180.121094 169.636719 C 180.457031 170.136719 180.742188 170.671875 180.972656 171.230469 C 181.207031 171.789062 181.382812 172.367188 181.5 172.960938 C 181.617188 173.554688 181.675781 174.152344 181.675781 174.757812 Z M 181.675781 174.757812 " fill-opacity="1" fill-rule="nonzero"/><g clip-path="url(#eadffbb17b)"><path fill="#bcb7ac" d="M 170.300781 300.527344 C 161.492188 287.847656 158.074219 273.527344 156.863281 262.316406 C 155.835938 252.773438 163.195312 244.472656 172.792969 244.261719 C 199.222656 243.679688 201.882812 225.480469 202.917969 224.171875 C 201.15625 225.558594 199.277344 226.816406 197.292969 227.925781 C 180.75 237.199219 159.433594 234.757812 144.441406 221.621094 C 142.734375 231.636719 141.566406 242.84375 141.457031 255.054688 C 141.253906 277.410156 144.664062 297.382812 149.390625 314.308594 C 150.15625 317.058594 150.957031 319.730469 151.785156 322.316406 L 196.085938 322.316406 C 184.457031 316.722656 176.179688 308.992188 170.300781 300.527344 Z M 170.300781 300.527344 " fill-opacity="1" fill-rule="nonzero"/></g><path fill="#afaaa0" d="M 157.195312 309.359375 C 156.574219 309.359375 155.964844 309.074219 155.570312 308.535156 C 154.917969 307.640625 155.113281 306.382812 156.007812 305.726562 C 159.171875 303.414062 162.554688 301.484375 166.058594 299.992188 C 167.207031 299.5 168.386719 299.050781 169.664062 298.625 C 181.226562 294.765625 191.726562 296.292969 201.882812 297.773438 C 207.476562 298.585938 212.761719 299.367188 218.242188 299.296875 C 218.265625 299.296875 218.289062 299.296875 218.3125 299.296875 C 218.476562 299.300781 218.640625 299.296875 218.800781 299.292969 C 222.496094 299.21875 225.882812 298.757812 229.167969 297.875 C 230.621094 297.488281 232.085938 297.007812 233.519531 296.445312 C 233.996094 296.261719 234.476562 296.058594 234.976562 295.84375 C 237.949219 294.539062 240.839844 292.835938 243.566406 290.785156 C 249.800781 286.089844 255.433594 279.386719 260.304688 270.867188 C 260.855469 269.902344 262.082031 269.570312 263.046875 270.121094 C 264.007812 270.671875 264.34375 271.898438 263.792969 272.859375 C 258.644531 281.855469 252.652344 288.964844 245.984375 293.992188 C 243.007812 296.234375 239.84375 298.09375 236.578125 299.527344 C 236.023438 299.765625 235.492188 299.988281 234.980469 300.1875 C 233.410156 300.800781 231.800781 301.328125 230.207031 301.753906 C 226.605469 302.722656 222.902344 303.230469 218.894531 303.308594 C 218.691406 303.316406 218.46875 303.320312 218.25 303.316406 C 212.46875 303.363281 206.792969 302.546875 201.304688 301.746094 C 191.167969 300.273438 181.59375 298.878906 170.9375 302.433594 C 169.765625 302.824219 168.6875 303.234375 167.636719 303.683594 C 164.410156 305.058594 161.296875 306.835938 158.375 308.972656 C 158.019531 309.234375 157.605469 309.359375 157.195312 309.359375 Z M 157.195312 309.359375 " fill-opacity="1" fill-rule="nonzero"/><path fill="#749dd1" d="M 128.285156 226.277344 L 69.285156 226.277344 C 67.933594 226.277344 66.832031 227.378906 66.832031 228.730469 L 66.832031 237.09375 L 130.738281 237.09375 L 130.738281 228.730469 C 130.738281 227.378906 129.636719 226.277344 128.285156 226.277344 Z M 128.285156 226.277344 " fill-opacity="1" fill-rule="nonzero"/><path fill="#749dd1" d="M 66.832031 308.933594 L 66.832031 317.296875 C 66.832031 318.652344 67.933594 319.753906 69.285156 319.753906 L 128.300781 319.753906 C 129.652344 319.753906 130.757812 318.652344 130.757812 317.296875 L 130.757812 308.933594 Z M 66.832031 308.933594 " fill-opacity="1" fill-rule="nonzero"/><path fill="#85b8db" d="M 130.738281 237.113281 L 66.832031 237.113281 C 66.832031 237.113281 50.886719 268.015625 66.832031 308.882812 L 130.738281 308.882812 C 146.683594 268.015625 130.738281 237.113281 130.738281 237.113281 Z M 130.738281 237.113281 " fill-opacity="1" fill-rule="nonzero"/><path fill="#d3dce5" d="M 125.445312 273.007812 C 125.445312 273.878906 125.402344 274.75 125.320312 275.621094 C 125.234375 276.488281 125.105469 277.351562 124.933594 278.207031 C 124.765625 279.0625 124.550781 279.910156 124.300781 280.746094 C 124.046875 281.582031 123.75 282.402344 123.417969 283.210938 C 123.082031 284.015625 122.710938 284.804688 122.296875 285.574219 C 121.886719 286.34375 121.4375 287.09375 120.953125 287.820312 C 120.46875 288.546875 119.949219 289.246094 119.394531 289.921875 C 118.839844 290.59375 118.253906 291.242188 117.636719 291.859375 C 117.019531 292.476562 116.375 293.0625 115.699219 293.617188 C 115.023438 294.171875 114.324219 294.691406 113.597656 295.175781 C 112.871094 295.660156 112.125 296.109375 111.351562 296.519531 C 110.582031 296.933594 109.792969 297.304688 108.988281 297.640625 C 108.179688 297.972656 107.359375 298.265625 106.523438 298.519531 C 105.6875 298.773438 104.84375 298.984375 103.988281 299.15625 C 103.128906 299.328125 102.265625 299.453125 101.398438 299.539062 C 100.527344 299.625 99.65625 299.667969 98.785156 299.667969 C 97.910156 299.667969 97.039062 299.625 96.171875 299.539062 C 95.300781 299.453125 94.441406 299.328125 93.582031 299.15625 C 92.726562 298.984375 91.878906 298.773438 91.046875 298.519531 C 90.210938 298.265625 89.386719 297.972656 88.582031 297.640625 C 87.773438 297.304688 86.988281 296.933594 86.214844 296.519531 C 85.445312 296.109375 84.699219 295.660156 83.972656 295.175781 C 83.246094 294.691406 82.546875 294.171875 81.871094 293.617188 C 81.195312 293.0625 80.550781 292.476562 79.933594 291.859375 C 79.3125 291.242188 78.730469 290.59375 78.175781 289.921875 C 77.621094 289.246094 77.101562 288.546875 76.617188 287.820312 C 76.128906 287.09375 75.683594 286.34375 75.269531 285.574219 C 74.859375 284.804688 74.484375 284.015625 74.152344 283.210938 C 73.816406 282.402344 73.523438 281.582031 73.269531 280.746094 C 73.015625 279.910156 72.804688 279.0625 72.636719 278.207031 C 72.464844 277.351562 72.335938 276.488281 72.25 275.621094 C 72.164062 274.75 72.121094 273.878906 72.121094 273.007812 C 72.121094 272.132812 72.164062 271.261719 72.25 270.394531 C 72.335938 269.523438 72.464844 268.660156 72.636719 267.804688 C 72.804688 266.949219 73.015625 266.101562 73.269531 265.265625 C 73.523438 264.429688 73.816406 263.609375 74.152344 262.804688 C 74.484375 261.996094 74.859375 261.207031 75.269531 260.4375 C 75.683594 259.667969 76.128906 258.917969 76.617188 258.195312 C 77.101562 257.46875 77.621094 256.765625 78.175781 256.09375 C 78.730469 255.417969 79.3125 254.769531 79.933594 254.152344 C 80.550781 253.535156 81.195312 252.949219 81.871094 252.394531 C 82.546875 251.84375 83.246094 251.324219 83.972656 250.835938 C 84.699219 250.351562 85.445312 249.902344 86.214844 249.492188 C 86.988281 249.082031 87.773438 248.707031 88.582031 248.375 C 89.386719 248.039062 90.210938 247.746094 91.046875 247.492188 C 91.878906 247.238281 92.726562 247.027344 93.582031 246.855469 C 94.441406 246.6875 95.300781 246.558594 96.171875 246.472656 C 97.039062 246.386719 97.910156 246.34375 98.785156 246.34375 C 99.65625 246.34375 100.527344 246.386719 101.398438 246.472656 C 102.265625 246.558594 103.128906 246.6875 103.988281 246.855469 C 104.84375 247.027344 105.6875 247.238281 106.523438 247.492188 C 107.359375 247.746094 108.179688 248.039062 108.988281 248.375 C 109.792969 248.707031 110.582031 249.082031 111.351562 249.492188 C 112.125 249.902344 112.871094 250.351562 113.597656 250.835938 C 114.324219 251.324219 115.023438 251.84375 115.699219 252.394531 C 116.375 252.949219 117.019531 253.535156 117.636719 254.152344 C 118.253906 254.769531 118.839844 255.417969 119.394531 256.09375 C 119.949219 256.765625 120.46875 257.46875 120.953125 258.195312 C 121.4375 258.917969 121.886719 259.667969 122.296875 260.4375 C 122.710938 261.207031 123.082031 261.996094 123.417969 262.804688 C 123.75 263.609375 124.046875 264.429688 124.300781 265.265625 C 124.550781 266.101562 124.765625 266.949219 124.933594 267.804688 C 125.105469 268.660156 125.234375 269.523438 125.320312 270.394531 C 125.402344 271.261719 125.445312 272.132812 125.445312 273.007812 Z M 125.445312 273.007812 " fill-opacity="1" fill-rule="nonzero"/><path fill="#536882" d="M 117.28125 273.007812 C 117.28125 273.527344 117.191406 274.046875 117.003906 274.558594 C 116.820312 275.074219 116.546875 275.570312 116.183594 276.054688 C 115.820312 276.535156 115.375 276.996094 114.847656 277.429688 C 114.320312 277.867188 113.71875 278.269531 113.046875 278.636719 C 112.378906 279.007812 111.648438 279.335938 110.859375 279.628906 C 110.066406 279.917969 109.234375 280.164062 108.359375 280.363281 C 107.480469 280.5625 106.578125 280.714844 105.644531 280.816406 C 104.714844 280.917969 103.773438 280.96875 102.824219 280.96875 C 101.875 280.96875 100.933594 280.917969 100.003906 280.816406 C 99.074219 280.714844 98.167969 280.5625 97.292969 280.363281 C 96.414062 280.164062 95.582031 279.917969 94.792969 279.628906 C 94.003906 279.335938 93.273438 279.007812 92.601562 278.636719 C 91.929688 278.269531 91.332031 277.867188 90.804688 277.429688 C 90.277344 276.996094 89.832031 276.535156 89.46875 276.054688 C 89.105469 275.570312 88.828125 275.074219 88.644531 274.558594 C 88.460938 274.046875 88.367188 273.527344 88.367188 273.007812 C 88.367188 272.484375 88.460938 271.964844 88.644531 271.453125 C 88.828125 270.941406 89.105469 270.441406 89.46875 269.957031 C 89.832031 269.476562 90.277344 269.015625 90.804688 268.582031 C 91.332031 268.148438 91.929688 267.746094 92.601562 267.375 C 93.273438 267.003906 94.003906 266.675781 94.792969 266.382812 C 95.582031 266.09375 96.414062 265.847656 97.292969 265.648438 C 98.167969 265.449219 99.074219 265.296875 100.003906 265.195312 C 100.933594 265.09375 101.875 265.042969 102.824219 265.042969 C 103.773438 265.042969 104.714844 265.09375 105.644531 265.195312 C 106.578125 265.296875 107.480469 265.449219 108.359375 265.648438 C 109.234375 265.847656 110.066406 266.09375 110.859375 266.382812 C 111.648438 266.675781 112.378906 267.003906 113.046875 267.375 C 113.71875 267.746094 114.320312 268.148438 114.847656 268.582031 C 115.375 269.015625 115.820312 269.476562 116.183594 269.957031 C 116.546875 270.441406 116.820312 270.941406 117.003906 271.453125 C 117.191406 271.964844 117.28125 272.484375 117.28125 273.007812 Z M 117.28125 273.007812 " fill-opacity="1" fill-rule="nonzero"/><path fill="#9eabc4" d="M 117.265625 273.007812 C 117.265625 276.226562 113.808594 279 108.835938 280.253906 C 107.449219 278.382812 106.613281 275.878906 106.613281 273.089844 C 106.613281 270.300781 107.484375 267.679688 108.933594 265.792969 C 113.859375 267.0625 117.265625 269.816406 117.265625 273.007812 Z M 117.265625 273.007812 " fill-opacity="1" fill-rule="nonzero"/><path fill="#9eabc4" d="M 88.367188 273.007812 C 88.367188 271.921875 88.769531 270.886719 89.46875 269.949219 L 89.335938 269.667969 C 88.816406 268.832031 85.796875 264.390625 81.1875 265.109375 C 80.886719 265.160156 80.636719 265.375 80.554688 265.675781 C 80.152344 266.894531 79.601562 270.21875 84.027344 273.007812 C 79.601562 275.792969 80.152344 279.117188 80.554688 280.335938 C 80.652344 280.621094 80.886719 280.851562 81.1875 280.902344 C 85.796875 281.636719 88.816406 277.195312 89.335938 276.34375 L 89.484375 276.113281 C 88.75 275.160156 88.351562 274.109375 88.351562 273.023438 Z M 88.367188 273.007812 " fill-opacity="1" fill-rule="nonzero"/><g clip-path="url(#9059158c38)"><path fill="#1a2c3d" d="M 132.410156 236.726562 L 132.410156 226.277344 C 132.410156 225.359375 131.65625 224.605469 130.738281 224.605469 L 66.832031 224.605469 C 65.910156 224.605469 65.160156 225.359375 65.160156 226.277344 L 65.160156 236.726562 C 63.308594 240.535156 50.050781 270.167969 65.160156 309.203125 L 65.160156 319.734375 C 65.160156 320.65625 65.910156 321.40625 66.832031 321.40625 L 130.738281 321.40625 C 131.65625 321.40625 132.410156 320.65625 132.410156 319.734375 L 132.410156 309.203125 C 147.519531 270.167969 134.261719 240.535156 132.410156 236.726562 Z M 129.070312 227.945312 L 129.070312 235.425781 L 68.5 235.425781 L 68.5 227.945312 Z M 68.5 318.066406 L 68.5 310.585938 L 129.070312 310.585938 L 129.070312 318.066406 Z M 129.570312 307.265625 L 68 307.265625 C 54.59375 271.835938 65.578125 243.941406 67.898438 238.746094 L 129.652344 238.746094 C 130.707031 241.085938 133.542969 248.011719 135.082031 258.082031 C 136.816406 269.367188 137.21875 286.996094 129.554688 307.265625 Z M 89.71875 267.347656 C 88.101562 265.410156 84.878906 262.554688 80.386719 263.574219 C 79.902344 263.691406 79.5 263.992188 79.285156 264.425781 C 78.398438 266.128906 77.898438 269.835938 81.304688 273.007812 C 77.898438 276.179688 78.398438 279.867188 79.285156 281.585938 C 79.519531 282.023438 79.917969 282.339844 80.386719 282.4375 C 81.039062 282.589844 81.65625 282.65625 82.257812 282.65625 C 85.777344 282.65625 88.332031 280.335938 89.71875 278.683594 C 92.625 281.101562 97.367188 282.65625 102.839844 282.65625 C 111.875 282.65625 118.96875 278.414062 118.96875 273.023438 C 118.96875 267.628906 111.890625 263.390625 102.839844 263.390625 C 97.367188 263.390625 92.640625 264.941406 89.734375 267.363281 Z M 82.007812 279.300781 C 81.824219 278.265625 81.972656 276.277344 84.929688 274.425781 C 85.410156 274.125 85.710938 273.589844 85.710938 273.007812 C 85.710938 272.421875 85.410156 271.90625 84.929688 271.585938 C 82.007812 269.734375 81.839844 267.765625 82.023438 266.710938 C 84.695312 266.628906 86.664062 268.78125 87.53125 269.949219 C 87.015625 270.902344 86.714844 271.9375 86.714844 273.007812 C 86.714844 274.074219 86.996094 275.109375 87.515625 276.0625 C 86.648438 277.230469 84.660156 279.402344 82.007812 279.300781 Z M 90.035156 273.007812 C 90.035156 270.019531 95.277344 266.710938 102.824219 266.710938 C 104.078125 266.710938 105.277344 266.8125 106.398438 266.980469 C 105.464844 268.800781 104.945312 270.886719 104.945312 273.089844 C 104.945312 275.292969 105.445312 277.261719 106.347656 279.050781 C 105.246094 279.21875 104.078125 279.316406 102.824219 279.316406 C 95.296875 279.316406 90.035156 275.996094 90.035156 273.023438 Z M 115.597656 273.007812 C 115.597656 274.941406 113.359375 277.03125 109.703125 278.25 C 108.785156 276.78125 108.269531 274.992188 108.269531 273.074219 C 108.269531 271.152344 108.835938 269.265625 109.785156 267.78125 C 113.375 269 115.597656 271.070312 115.597656 273.007812 Z M 98.785156 244.675781 C 83.15625 244.675781 70.453125 257.378906 70.453125 273.007812 C 70.453125 288.632812 83.15625 301.339844 98.785156 301.339844 C 114.410156 301.339844 127.117188 288.632812 127.117188 273.007812 C 127.117188 257.378906 114.410156 244.675781 98.785156 244.675781 Z M 98.785156 298 C 85.011719 298 73.792969 286.78125 73.792969 273.007812 C 73.792969 259.234375 85.011719 248.011719 98.785156 248.011719 C 112.558594 248.011719 123.777344 259.234375 123.777344 273.007812 C 123.777344 286.78125 112.558594 298 98.785156 298 Z M 98.785156 298 " fill-opacity="1" fill-rule="nonzero"/></g></svg>