<svg xmlns="http://www.w3.org/2000/svg" xmlns:xlink="http://www.w3.org/1999/xlink" width="500" zoomAndPan="magnify" viewBox="0 0 375 374.999991" height="500" preserveAspectRatio="xMidYMid meet" version="1.0"><defs><clipPath id="238f388c3b"><path d="M 17.4375 17.4375 L 170 17.4375 L 170 170 L 17.4375 170 Z M 17.4375 17.4375 " clip-rule="nonzero"/></clipPath><clipPath id="50b558b2fc"><path d="M 205 17.4375 L 357.9375 17.4375 L 357.9375 170 L 205 170 Z M 205 17.4375 " clip-rule="nonzero"/></clipPath><clipPath id="b3514c5448"><path d="M 17.4375 205 L 170 205 L 170 357.9375 L 17.4375 357.9375 Z M 17.4375 205 " clip-rule="nonzero"/></clipPath><clipPath id="6f184b96b0"><path d="M 205 205 L 357.9375 205 L 357.9375 357.9375 L 205 357.9375 Z M 205 205 " clip-rule="nonzero"/></clipPath></defs><g clip-path="url(#238f388c3b)"><path fill="#ffffff" d="M 140 17.4375 L 47.34375 17.4375 C 30.925781 17.4375 17.4375 30.925781 17.4375 47.34375 L 17.4375 140 C 17.4375 156.417969 30.925781 169.90625 47.34375 169.90625 L 140 169.90625 C 156.417969 169.90625 169.90625 156.417969 169.90625 140 L 169.90625 47.34375 C 169.90625 30.925781 156.417969 17.4375 140 17.4375 Z M 140 17.4375 " fill-opacity="1" fill-rule="nonzero"/></g><g clip-path="url(#50b558b2fc)"><path fill="#ffffff" d="M 327.65625 17.4375 L 235 17.4375 C 218.582031 17.4375 205.09375 30.925781 205.09375 47.34375 L 205.09375 140 C 205.09375 156.417969 218.582031 169.90625 235 169.90625 L 327.65625 169.90625 C 344.074219 169.90625 357.5625 156.417969 357.5625 140 L 357.5625 47.34375 C 357.5625 30.925781 344.074219 17.4375 327.65625 17.4375 Z M 327.65625 17.4375 " fill-opacity="1" fill-rule="nonzero"/></g><g clip-path="url(#b3514c5448)"><path fill="#ffffff" d="M 140 205.09375 L 47.34375 205.09375 C 30.925781 205.09375 17.4375 218.582031 17.4375 235 L 17.4375 327.65625 C 17.4375 344.074219 30.925781 357.5625 47.34375 357.5625 L 140 357.5625 C 156.417969 357.5625 169.90625 344.074219 169.90625 327.65625 L 169.90625 235 C 169.90625 218.582031 156.417969 205.09375 140 205.09375 Z M 140 205.09375 " fill-opacity="1" fill-rule="nonzero"/></g><g clip-path="url(#6f184b96b0)"><path fill="#ffffff" d="M 327.65625 205.09375 L 235 205.09375 C 218.582031 205.09375 205.09375 218.582031 205.09375 235 L 205.09375 327.65625 C 205.09375 344.074219 218.582031 357.5625 235 357.5625 L 327.65625 357.5625 C 344.074219 357.5625 357.5625 344.074219 357.5625 327.65625 L 357.5625 235 C 357.5625 218.582031 344.074219 205.09375 327.65625 205.09375 Z M 327.65625 205.09375 " fill-opacity="1" fill-rule="nonzero"/></g></svg>