<svg width="56" height="56" viewBox="0 0 56 56" fill="none" xmlns="http://www.w3.org/2000/svg">
<circle opacity="0.1" cx="28" cy="28" r="28" fill="#F7F7F8"/>
<path d="M27.9999 14C24.3319 14 21.3499 16.982 21.3499 20.65C21.3499 24.248 24.1639 27.16 27.8319 27.286C27.9439 27.272 28.0559 27.272 28.1399 27.286C28.1679 27.286 28.1819 27.286 28.2099 27.286C28.2239 27.286 28.2239 27.286 28.2379 27.286C31.8219 27.16 34.6359 24.248 34.6499 20.65C34.6499 16.982 31.6679 14 27.9999 14Z" fill="#F7F7F8"/>
<path d="M35.1118 31.01C31.2058 28.406 24.8358 28.406 20.9018 31.01C19.1238 32.2 18.1438 33.81 18.1438 35.532C18.1438 37.254 19.1238 38.85 20.8878 40.026C22.8478 41.342 25.4238 42 27.9998 42C30.5758 42 33.1518 41.342 35.1118 40.026C36.8758 38.836 37.8558 37.24 37.8558 35.504C37.8418 33.782 36.8758 32.186 35.1118 31.01Z" fill="#F7F7F8"/>
</svg>
