<svg xmlns="http://www.w3.org/2000/svg" xmlns:xlink="http://www.w3.org/1999/xlink" width="500" zoomAndPan="magnify" viewBox="0 0 375 374.999991" height="500" preserveAspectRatio="xMidYMid meet" version="1.0"><defs><clipPath id="565cafe0d2"><path d="M 21.546875 102.957031 L 301 102.957031 L 301 289.707031 L 21.546875 289.707031 Z M 21.546875 102.957031 " clip-rule="nonzero"/></clipPath><clipPath id="974f91d014"><path d="M 227 213 L 353.796875 213 L 353.796875 252 L 227 252 Z M 227 213 " clip-rule="nonzero"/></clipPath></defs><g clip-path="url(#565cafe0d2)"><path fill="#00bf63" d="M 215.457031 192.171875 C 215.457031 194.992188 217.742188 197.277344 220.558594 197.277344 L 295.132812 197.277344 C 297.949219 197.277344 300.234375 194.992188 300.234375 192.171875 C 300.234375 189.355469 297.949219 187.070312 295.132812 187.070312 L 285.152344 187.070312 L 298.472656 175.527344 C 299.59375 174.558594 300.234375 173.152344 300.234375 171.671875 C 300.234375 152.066406 292.433594 134.332031 278.273438 121.734375 C 264.660156 109.625 246.09375 102.957031 225.992188 102.957031 L 194.515625 102.957031 C 191.699219 102.957031 189.414062 105.238281 189.414062 108.058594 L 189.414062 124.734375 L 128.269531 124.734375 C 89.535156 124.734375 58.019531 156.246094 58.019531 194.984375 L 58.019531 215.15625 L 26.726562 215.15625 C 23.910156 215.15625 21.625 217.441406 21.625 220.257812 C 21.625 223.078125 23.910156 225.363281 26.726562 225.363281 L 58.019531 225.363281 L 58.019531 256.328125 C 58.019531 274.914062 73.144531 290.039062 91.730469 290.039062 L 106.558594 290.039062 C 120.085938 290.039062 131.09375 279.035156 131.09375 265.507812 L 131.09375 264.558594 C 131.09375 251.03125 120.085938 240.027344 106.558594 240.027344 C 93.03125 240.027344 82.027344 251.03125 82.027344 264.558594 C 82.027344 267.378906 84.3125 269.660156 87.128906 269.660156 C 89.949219 269.660156 92.234375 267.378906 92.234375 264.558594 C 92.234375 256.660156 98.660156 250.230469 106.558594 250.230469 C 114.460938 250.230469 120.886719 256.660156 120.886719 264.558594 L 120.886719 265.507812 C 120.886719 273.40625 114.460938 279.832031 106.558594 279.832031 L 91.730469 279.832031 C 78.769531 279.832031 68.226562 269.289062 68.226562 256.328125 L 68.226562 194.984375 C 68.226562 161.875 95.160156 134.9375 128.269531 134.9375 L 189.414062 134.9375 L 189.414062 172.628906 L 172.367188 188.429688 C 170.605469 190.066406 170.222656 192.703125 171.445312 194.773438 L 183.507812 215.15625 L 142.394531 215.15625 C 147.515625 209.570312 150.644531 202.128906 150.644531 193.96875 C 150.644531 176.660156 136.5625 162.578125 119.25 162.578125 C 116.433594 162.578125 114.148438 164.863281 114.148438 167.679688 C 114.148438 170.5 116.433594 172.785156 119.25 172.785156 C 130.933594 172.785156 140.4375 182.289062 140.4375 193.96875 C 140.4375 205.652344 130.933594 215.15625 119.25 215.15625 L 96.9375 215.15625 C 94.117188 215.15625 91.832031 217.441406 91.832031 220.257812 C 91.832031 223.078125 94.117188 225.363281 96.9375 225.363281 L 198.175781 225.363281 C 204.585938 225.363281 209.804688 230.578125 209.804688 236.992188 C 209.804688 239.808594 212.089844 242.09375 214.90625 242.09375 C 217.726562 242.09375 220.011719 239.808594 220.011719 236.992188 C 220.011719 224.953125 210.214844 215.15625 198.175781 215.15625 L 195.367188 215.15625 L 182.324219 193.117188 L 197.984375 178.597656 C 199.027344 177.632812 199.621094 176.277344 199.621094 174.855469 L 199.621094 113.160156 L 225.992188 113.160156 C 243.589844 113.160156 259.75 118.914062 271.488281 129.359375 C 283.066406 139.65625 289.433594 153.453125 289.988281 169.375 L 269.5625 187.070312 L 220.558594 187.070312 C 217.742188 187.070312 215.457031 189.355469 215.457031 192.171875 Z M 215.457031 192.171875 " fill-opacity="1" fill-rule="nonzero"/></g><path fill="#00bf63" d="M 237.269531 169.980469 C 247.753906 169.980469 256.28125 161.449219 256.28125 150.96875 C 256.28125 140.484375 247.753906 131.957031 237.269531 131.957031 C 226.789062 131.957031 218.261719 140.484375 218.261719 150.96875 C 218.261719 161.449219 226.789062 169.980469 237.269531 169.980469 Z M 237.269531 142.164062 C 242.125 142.164062 246.078125 146.113281 246.078125 150.96875 C 246.078125 155.824219 242.125 159.773438 237.269531 159.773438 C 232.414062 159.773438 228.464844 155.824219 228.464844 150.96875 C 228.464844 146.113281 232.414062 142.164062 237.269531 142.164062 Z M 237.269531 142.164062 " fill-opacity="1" fill-rule="nonzero"/><g clip-path="url(#974f91d014)"><path fill="#00bf63" d="M 348.300781 213.324219 L 232.738281 213.324219 C 229.921875 213.324219 227.636719 215.605469 227.636719 218.425781 C 227.636719 221.246094 229.921875 223.527344 232.738281 223.527344 L 292.234375 223.527344 L 312.507812 249.195312 C 313.515625 250.472656 315.007812 251.136719 316.515625 251.136719 C 317.625 251.136719 318.738281 250.777344 319.675781 250.039062 C 321.886719 248.292969 322.265625 245.082031 320.515625 242.871094 L 305.238281 223.527344 L 348.300781 223.527344 C 351.117188 223.527344 353.402344 221.246094 353.402344 218.425781 C 353.402344 215.609375 351.117188 213.324219 348.300781 213.324219 Z M 348.300781 213.324219 " fill-opacity="1" fill-rule="nonzero"/></g></svg>