<svg xmlns="http://www.w3.org/2000/svg" xmlns:xlink="http://www.w3.org/1999/xlink" width="500" zoomAndPan="magnify" viewBox="0 0 375 374.999991" height="500" preserveAspectRatio="xMidYMid meet" version="1.0"><defs><clipPath id="58a48d77bf"><path d="M 7 100.589844 L 88 100.589844 L 88 215 L 7 215 Z M 7 100.589844 " clip-rule="nonzero"/></clipPath><clipPath id="827e269f5a"><path d="M 151.597656 42 L 367.597656 42 L 367.597656 261 L 151.597656 261 Z M 151.597656 42 " clip-rule="nonzero"/></clipPath></defs><path fill="#000000" d="M 8.101562 201.238281 C 8.101562 201.238281 13.074219 354.042969 153.640625 326.628906 C 132.949219 308.074219 121.875 281.554688 120.984375 266.417969 C 140.597656 300.0625 158.660156 322.367188 185.402344 310.605469 C 212.472656 299.171875 248.882812 256.0625 235.699219 239.335938 C 222.46875 222.605469 167.527344 211.171875 124.035156 232.914062 C 80.542969 254.65625 24.519531 241.488281 8.101562 201.238281 Z M 184.136719 239.007812 C 188.96875 239.007812 192.910156 242.894531 192.910156 247.722656 C 192.910156 252.546875 188.96875 256.4375 184.136719 256.4375 C 179.351562 256.4375 175.410156 252.546875 175.410156 247.722656 C 175.410156 242.894531 179.351562 239.007812 184.136719 239.007812 Z M 184.136719 239.007812 " fill-opacity="1" fill-rule="evenodd"/><g clip-path="url(#58a48d77bf)"><path fill="#000000" d="M 28.789062 214.78125 C -22.019531 168.8125 29.824219 111.132812 77.304688 100.589844 C 79.085938 123.738281 64.449219 147.632812 49.855469 152.976562 C 77.679688 153.679688 87.671875 180.761719 87.671875 180.761719 C 87.671875 180.761719 37.894531 162.394531 28.789062 214.78125 Z M 28.789062 214.78125 " fill-opacity="1" fill-rule="evenodd"/></g><g clip-path="url(#827e269f5a)"><path fill="#231f20" d="M 243.222656 75.582031 C 245.066406 76.015625 246.839844 76.710938 248.632812 77.328125 C 251.480469 78.199219 254.328125 79.097656 257.097656 80.175781 C 266.972656 83.976562 277.023438 87.417969 286.410156 92.398438 C 288.488281 93.582031 290.515625 94.839844 292.667969 95.917969 C 296.773438 98.253906 300.75 100.796875 304.671875 103.390625 C 308.210938 105.519531 311.519531 108.039062 315.035156 110.21875 C 319.523438 113.25 324.011719 116.28125 328.394531 119.4375 C 332.167969 122.160156 335.960938 124.832031 339.5 127.835938 C 341.554688 129.554688 343.734375 131.121094 345.707031 132.917969 C 348.707031 135.359375 351.480469 138.082031 354.324219 140.699219 C 359.019531 145.066406 362.917969 150.148438 367.378906 154.746094 C 366.867188 152.488281 366.816406 150.148438 366.484375 147.863281 C 365.96875 142.316406 365.507812 136.746094 365.277344 131.171875 C 364.96875 120.644531 365.96875 110.117188 367.125 99.640625 C 367.304688 98.023438 367.558594 96.378906 367.378906 94.761719 C 365.226562 95.457031 363.097656 96.226562 360.96875 96.996094 C 355.832031 98.675781 350.566406 99.644531 345.167969 99.898438 C 335.527344 100.207031 325.601562 98.152344 317.417969 92.863281 C 315.316406 91.398438 313.1875 89.984375 311.445312 88.085938 C 309.433594 86.074219 307.71875 83.839844 306.292969 81.382812 C 304.867188 78.921875 303.777344 76.320312 303.03125 73.578125 C 301.628906 67.90625 301.285156 62.171875 302.003906 56.375 C 302.699219 52.546875 303.339844 48.515625 305.722656 45.332031 C 288.589844 37.5 271.484375 46.871094 271.484375 46.871094 L 270.175781 47.488281 C 267.484375 48.851562 264.738281 50.054688 262.074219 51.441406 C 260.019531 52.523438 257.890625 53.421875 255.839844 54.472656 C 245.015625 59.8125 234.089844 65 223.269531 70.367188 C 221.292969 71.496094 219.011719 70.546875 216.957031 70.1875 C 210.246094 69.03125 203.484375 68.40625 196.671875 68.3125 C 188.515625 68.109375 180.359375 68.417969 172.28125 69.570312 C 166.894531 70.394531 161.507812 71.191406 156.304688 72.808594 C 157.277344 75.425781 158.558594 77.917969 159.792969 80.433594 C 160.457031 81.949219 161.253906 83.386719 162.046875 84.851562 C 159.996094 84.542969 157.894531 84.515625 155.867188 84.082031 C 154.496094 83.789062 153.113281 83.644531 151.710938 83.644531 C 151.636719 87.238281 152.148438 90.808594 152.457031 94.378906 C 152.765625 97.945312 153.558594 100.796875 154.148438 104.007812 C 155.25 108.5 156.484375 112.96875 158.023438 117.332031 C 159.507812 121.289062 161.152344 125.164062 162.921875 128.992188 C 165.382812 133.921875 167.945312 138.824219 171.179688 143.292969 C 172.921875 145.628906 174.488281 148.121094 176.511719 150.253906 C 180.128906 154.59375 184.847656 157.800781 189.671875 160.652344 C 193.414062 162.757812 197.363281 164.453125 201.261719 166.222656 C 206.289062 168.277344 211.496094 169.921875 216.652344 171.640625 C 220.445312 172.617188 224.242188 173.644531 228.089844 174.542969 C 233.605469 176.214844 239.296875 177.164062 244.863281 178.601562 C 250.839844 180.011719 256.867188 181.324219 262.789062 182.992188 C 267.507812 184.351562 272.253906 185.558594 276.871094 187.203125 C 279.667969 188.230469 282.539062 189.027344 285.257812 190.257812 C 287.976562 191.492188 290.308594 192.339844 292.746094 193.597656 C 297.183594 195.832031 301.492188 198.375 305.390625 201.453125 C 306.417969 202.300781 307.570312 203.019531 308.46875 204.023438 C 309.726562 205.410156 311.238281 206.539062 312.445312 208.027344 C 315.136719 211.085938 317.546875 214.421875 319.394531 218.070312 C 321.34375 221.175781 322.34375 224.746094 323.472656 228.210938 C 325.984375 236.300781 326.242188 244.875 326.0625 253.273438 C 326.113281 254.789062 325.804688 256.328125 326.011719 257.84375 C 326.113281 258.613281 326.140625 259.410156 326.191406 260.207031 C 327.578125 259.320312 328.832031 258.273438 329.960938 257.074219 C 332.347656 254.824219 334.59375 252.445312 336.707031 249.933594 C 338.347656 248.214844 339.527344 246.132812 341.195312 244.441406 C 344.921875 239.449219 348.195312 234.175781 351.015625 228.621094 C 353.8125 222.664062 356.148438 216.476562 357.582031 210.058594 C 359.53125 202.40625 359.839844 194.394531 359.25 186.5625 C 358.660156 178.265625 356.632812 170.128906 353.683594 162.371094 C 351.992188 158.316406 350.144531 154.285156 347.835938 150.535156 C 341.679688 140.367188 333.5 131.480469 324.265625 124.035156 C 318.984375 119.640625 313.46875 115.558594 307.722656 111.785156 C 304.699219 109.320312 301.160156 107.652344 298.054688 105.316406 C 295.363281 103.621094 292.566406 102.105469 289.925781 100.359375 C 286.027344 97.972656 282 95.839844 278.078125 93.503906 C 275 91.785156 271.921875 89.984375 268.765625 88.417969 C 263.894531 85.878906 259.019531 83.285156 253.917969 81.253906 C 250.738281 79.921875 247.53125 78.714844 244.300781 77.507812 C 242.914062 76.96875 241.605469 76.300781 240.222656 75.785156 C 241.222656 75.734375 242.222656 75.453125 243.222656 75.582031 Z M 183.515625 82.925781 C 184.515625 80.5625 186.59375 78.558594 189.132812 77.917969 C 190.476562 77.554688 191.839844 77.476562 193.21875 77.679688 C 194.59375 77.886719 195.875 78.359375 197.058594 79.097656 C 198.109375 79.765625 198.800781 80.820312 199.46875 81.847656 C 200.980469 84.054688 200.953125 86.957031 200.210938 89.445312 C 199.757812 90.636719 199.105469 91.707031 198.253906 92.648438 C 197.398438 93.59375 196.402344 94.347656 195.261719 94.917969 C 193.644531 95.660156 191.824219 95.6875 190.105469 95.480469 C 187.386719 94.890625 185.183594 92.835938 183.824219 90.5 C 182.464844 88.164062 182.617188 85.339844 183.515625 82.925781 Z M 234.425781 115.742188 C 233.757812 118.464844 232.5 120.980469 231.425781 123.546875 C 229.371094 127.347656 226.703125 130.761719 223.753906 133.894531 C 221.035156 136.488281 218.164062 139.03125 214.753906 140.726562 C 211.804688 142.136719 208.804688 143.421875 205.675781 144.320312 C 199.617188 146.066406 193.453125 147.238281 187.183594 147.839844 C 185.898438 147.890625 184.539062 148.121094 183.335938 147.609375 C 182.894531 147.414062 182.53125 147.121094 182.246094 146.730469 C 181.964844 146.339844 181.796875 145.90625 181.746094 145.425781 C 181.589844 143.730469 181.589844 142.011719 181.15625 140.367188 C 186.515625 141.957031 192.261719 141.726562 197.722656 140.75 C 200.710938 140.160156 203.601562 139.25 206.390625 138.03125 C 209.199219 136.628906 211.890625 135.035156 214.472656 133.253906 C 216.546875 131.40625 218.804688 129.710938 220.679688 127.605469 C 223.140625 124.753906 225.472656 121.75 227.117188 118.335938 C 228.238281 116.15625 229.148438 113.890625 229.839844 111.539062 C 230.53125 109.183594 230.996094 106.789062 231.230469 104.347656 C 231.464844 101.90625 231.464844 99.464844 231.234375 97.023438 C 231.003906 94.582031 230.546875 92.1875 229.859375 89.832031 C 231.011719 90.910156 231.757812 92.324219 232.5 93.710938 C 234.65625 97.382812 235.628906 101.667969 235.757812 105.90625 C 235.726562 109.242188 235.28125 112.519531 234.425781 115.742188 Z M 234.425781 115.742188 " fill-opacity="1" fill-rule="nonzero"/></g><path fill="#231f20" d="M 222.320312 179.859375 C 220.539062 178.660156 218.660156 177.648438 216.675781 176.828125 C 213.726562 175.75 210.90625 174.339844 208.007812 173.15625 C 206.058594 172.257812 204.03125 171.515625 202.136719 170.539062 C 197.773438 168.277344 193.3125 166.148438 189.261719 163.347656 C 186.027344 161.164062 182.769531 158.984375 179.925781 156.285156 C 179.75 156.082031 179.539062 156.019531 179.28125 156.105469 C 178.667969 156.261719 178.566406 157.007812 178.539062 157.546875 C 178.566406 160.402344 178.882812 163.226562 179.488281 166.019531 C 180.09375 169.496094 180.949219 172.910156 182.054688 176.265625 C 183.15625 179.011719 184.15625 181.785156 185.386719 184.480469 C 186.027344 186.152344 187.054688 187.613281 187.824219 189.207031 C 189.976562 192.902344 192.15625 196.601562 194.671875 200.09375 C 195.671875 201.761719 197.03125 203.199219 198.210938 204.765625 C 199.238281 205.898438 199.953125 207.285156 201.058594 208.3125 C 201.367188 208.3125 201.597656 208.105469 201.851562 207.953125 C 205.777344 204.945312 209.828125 202.097656 213.472656 198.785156 C 215.710938 196.78125 217.652344 194.523438 219.292969 192.003906 C 221.0625 189.335938 221.730469 186.152344 223.21875 183.324219 C 223.628906 182.582031 223.574219 181.707031 223.5 180.914062 C 223.164062 180.496094 222.769531 180.144531 222.320312 179.859375 Z M 222.320312 179.859375 " fill-opacity="1" fill-rule="nonzero"/><path fill="#231f20" d="M 320.113281 256.535156 C 317.289062 250.960938 314.058594 245.542969 309.929688 240.84375 C 308.597656 238.96875 306.902344 237.351562 305.261719 235.734375 C 302.601562 233.175781 299.683594 230.953125 296.515625 229.058594 C 292.285156 226.566406 287.589844 224.925781 282.796875 223.847656 C 279.769531 223.203125 276.664062 223 273.589844 222.691406 C 271.28125 222.640625 268.972656 222.664062 266.664062 222.691406 C 263.507812 222.921875 260.355469 223.050781 257.199219 223.203125 C 258.558594 225.15625 260.789062 226.132812 262.457031 227.75 C 265.679688 230.246094 268.253906 233.292969 270.175781 236.890625 C 271.382812 239.515625 272.21875 242.257812 272.691406 245.109375 C 273.050781 247.058594 272.972656 249.035156 272.972656 251.011719 C 272.972656 253.53125 272.28125 256.019531 272.355469 258.5625 C 277.023438 259.308594 281.769531 259.769531 286.257812 261.234375 C 287.617188 261.746094 289.027344 262.210938 290.128906 263.183594 C 284.820312 265.058594 279.359375 266.472656 274.074219 268.472656 C 272.84375 268.9375 271.535156 269.296875 270.40625 269.964844 C 269.742188 271.375 269.457031 272.917969 268.972656 274.378906 C 268.433594 276.253906 267.714844 278.078125 267.097656 279.925781 C 266.40625 282.46875 265.382812 284.882812 264.484375 287.347656 C 263.585938 289.8125 262.507812 292.148438 261.277344 294.460938 C 259.96875 297.363281 258.175781 300.007812 256.351562 302.601562 C 255.328125 303.9375 254.148438 305.144531 253.199219 306.53125 C 263.558594 307.429688 274.179688 308.25 284.386719 305.628906 C 287.925781 304.902344 291.371094 303.855469 294.722656 302.5 C 296.925781 301.625 299.003906 300.445312 301.109375 299.367188 C 303.210938 298.285156 304.621094 296.875 306.417969 295.640625 C 313.085938 290.6875 318.085938 283.726562 321.421875 276.152344 C 322.523438 273.226562 323.601562 270.273438 324.191406 267.191406 C 324.164062 266.367188 323.753906 265.597656 323.472656 264.855469 C 322.34375 262.082031 321.546875 259.179688 320.113281 256.535156 Z M 320.113281 256.535156 " fill-opacity="1" fill-rule="nonzero"/></svg>