<?xml version="1.0" standalone="no"?>
<!DOCTYPE svg PUBLIC "-//W3C//DTD SVG 20010904//EN"
 "http://www.w3.org/TR/2001/REC-SVG-20010904/DTD/svg10.dtd">
<svg version="1.0" xmlns="http://www.w3.org/2000/svg"
 width="500.000000pt" height="500.000000pt" viewBox="0 0 500.000000 500.000000"
 preserveAspectRatio="xMidYMid meet">

<g transform="translate(0.000000,500.000000) scale(0.100000,-0.100000)"
fill="#000000" stroke="none">
<path d="M2954 4021 c-109 -67 -83 -277 62 -497 36 -55 45 -108 19 -118 -20
-7 -19 -26 1 -26 28 0 74 -56 74 -90 0 -31 -27 -96 -36 -87 -3 3 2 19 10 36
23 44 20 69 -13 102 -21 21 -39 29 -65 29 -19 0 -38 5 -41 10 -11 18 -71 11
-89 -9 -20 -22 -21 -41 -10 -114 5 -38 3 -51 -11 -67 -10 -11 -16 -23 -12 -26
3 -3 11 4 17 16 l12 23 23 -29 c22 -28 24 -28 70 -16 31 8 52 9 63 3 15 -9 12
-12 -14 -21 -18 -6 -36 -22 -43 -38 -11 -27 -11 -27 5 -4 9 12 26 22 38 22 33
0 49 15 41 39 -11 36 21 25 45 -16 17 -29 20 -41 11 -55 -6 -10 -11 -28 -11
-40 0 -18 5 -13 21 19 l20 41 -20 40 c-11 22 -17 42 -14 46 10 10 53 7 53 -3
0 -6 20 -13 45 -17 42 -6 45 -8 55 -48 16 -59 18 -64 19 -35 2 47 -11 88 -28
93 -9 2 -28 7 -43 10 -16 4 -28 10 -28 14 0 13 68 42 72 31 6 -19 101 8 125
35 27 32 33 32 33 2 0 -14 4 -27 8 -30 12 -7 2 56 -11 72 -6 7 -12 25 -13 39
-2 14 -12 35 -23 47 -29 31 -26 36 15 36 73 0 239 41 314 78 85 42 185 131
196 176 17 69 -35 115 -139 123 -75 6 -199 -17 -274 -52 l-53 -24 0 24 c0 13
-9 52 -20 87 -11 34 -20 77 -20 94 0 45 -34 84 -74 84 -34 0 -63 -16 -114 -64
l-32 -30 -43 41 c-70 68 -115 79 -173 44z m104 -10 c20 -11 52 -35 71 -55 l35
-36 -22 -38 c-11 -21 -34 -78 -51 -127 -31 -92 -33 -92 -49 -15 -6 25 -10 36
-11 25 0 -11 5 -49 13 -85 7 -37 11 -87 7 -115 l-6 -50 -32 50 c-80 126 -121
254 -109 339 10 62 61 122 109 125 4 1 24 -8 45 -18z m296 -13 c8 -13 18 -43
22 -68 3 -25 12 -64 20 -88 8 -23 14 -57 14 -76 0 -29 -7 -37 -71 -81 -39 -27
-100 -76 -135 -111 l-64 -62 0 32 c0 17 7 58 14 91 8 33 13 61 11 63 -6 7 -25
-74 -34 -146 -9 -67 -33 -122 -54 -122 -16 0 -1 193 22 281 34 132 103 246
176 291 40 24 61 23 79 -4z m471 -212 c46 -20 62 -54 45 -96 -17 -41 -105
-118 -176 -154 -108 -55 -306 -91 -459 -84 -68 3 -69 3 -35 15 22 7 28 12 15
12 -35 2 180 138 287 181 79 32 66 37 -15 6 -97 -36 -235 -116 -294 -169 -41
-36 -34 -11 9 38 91 103 270 215 398 249 72 19 181 20 225 2z m-558 -419 c6
-48 -17 -111 -43 -121 -9 -4 -7 5 7 23 18 25 21 39 17 95 -4 73 11 76 19 3z
m-67 -39 c0 -50 -28 -108 -52 -108 -5 0 2 14 16 31 30 36 35 92 11 142 l-16
32 21 -24 c14 -17 20 -37 20 -73z m130 52 c0 -52 -44 -130 -74 -130 -5 0 3 13
19 30 22 23 29 41 33 85 5 56 22 68 22 15z m-380 -27 c0 -28 -14 -43 -29 -34
-8 5 -10 14 -6 21 5 8 3 11 -6 8 -23 -8 -23 -38 0 -38 25 0 28 -28 5 -37 -19
-7 -44 21 -44 48 0 25 27 49 56 49 16 0 24 -6 24 -17z m406 -51 c-8 -15 -23
-35 -32 -43 -11 -8 -7 2 9 26 15 22 28 51 28 65 2 22 2 23 6 3 2 -12 -3 -35
-11 -51z m-322 12 c22 -21 20 -46 -4 -72 -36 -39 -80 -23 -80 29 0 32 23 59
50 59 10 0 26 -7 34 -16z m-84 -124 c11 -8 8 -9 -15 -4 -33 7 -55 22 -55 35 0
9 37 -8 70 -31z"/>
<path d="M2976 3284 c-4 -10 -2 -22 3 -27 14 -14 43 0 39 20 -4 24 -34 28 -42
7z"/>
<path d="M2320 3969 c-385 -44 -731 -239 -952 -539 -190 -258 -278 -522 -278
-831 0 -188 39 -376 110 -528 17 -35 29 -66 27 -68 -2 -2 -28 -16 -58 -31 -41
-21 -59 -37 -76 -72 l-24 -44 3 -366 c3 -413 3 -413 80 -463 l42 -27 1316 0
1316 0 42 27 c76 50 77 52 80 446 2 236 -1 361 -9 389 -13 52 -74 116 -118
124 -17 4 -31 11 -31 16 0 5 16 46 35 90 145 328 139 741 -15 1073 -58 127
-158 275 -185 275 -12 0 -24 -3 -27 -6 -4 -3 23 -48 58 -100 81 -120 117 -191
159 -317 102 -306 83 -646 -52 -939 l-36 -78 -279 0 c-153 0 -278 3 -278 7 0
14 63 100 82 112 15 9 24 7 47 -10 60 -44 194 -15 242 52 24 34 98 248 102
293 l2 31 -115 -1 c-95 0 -123 -4 -162 -21 -101 -46 -167 -135 -168 -223 0
-69 13 -79 41 -33 37 61 99 123 163 165 33 21 64 38 70 38 6 0 -12 -15 -39
-34 -63 -42 -122 -106 -145 -159 -11 -23 -18 -43 -16 -44 2 -2 22 4 46 12 58
21 63 12 7 -13 -64 -28 -158 -94 -195 -136 -31 -35 -33 -36 -108 -36 -66 0
-82 -4 -108 -24 -78 -59 -164 -84 -296 -86 -41 -1 -113 -2 -160 -3 -73 -1 -93
2 -143 25 -32 15 -70 37 -85 48 l-27 22 -8 -31 c-5 -21 -15 -33 -32 -37 -34
-9 -56 1 -103 46 -36 35 -47 40 -89 40 -44 1 -54 6 -117 60 -38 32 -103 77
-145 99 -79 42 -83 52 -12 26 42 -14 42 -14 36 8 -17 57 -84 136 -156 184 -52
34 -42 42 13 9 69 -40 123 -91 167 -157 34 -51 42 -58 48 -43 13 31 7 107 -9
139 -25 47 -87 103 -147 133 -50 24 -70 27 -174 30 l-118 4 7 -29 c4 -15 25
-84 47 -152 57 -177 102 -221 227 -221 44 0 64 5 85 22 l28 22 31 -36 c17 -20
39 -50 49 -67 l18 -31 -279 0 -278 0 -22 39 c-40 70 -91 216 -111 318 -26 126
-28 336 -5 467 45 261 168 498 362 698 197 203 441 335 712 385 170 31 412 21
598 -24 18 -4 22 -1 22 20 0 22 -6 26 -67 41 -146 34 -304 43 -463 25z m762
-2231 c21 -12 38 -25 38 -28 0 -4 -11 -16 -23 -28 -22 -21 -26 -22 -53 -7 -43
22 -88 19 -121 -9 -23 -20 -28 -32 -28 -71 0 -39 5 -51 28 -71 32 -27 82 -32
112 -11 21 16 12 37 -16 37 -15 0 -19 7 -19 30 l0 31 63 -3 62 -3 3 -87 3 -87
-115 2 -116 2 -42 42 c-38 38 -42 47 -46 101 -3 43 1 70 13 96 42 88 161 118
257 64z m340 -1 c54 -30 82 -79 82 -142 -2 -102 -57 -157 -165 -163 -107 -6
-174 46 -186 145 -17 145 136 236 269 160z m-1977 -67 c27 -49 53 -90 58 -90
4 0 12 10 17 23 5 12 26 51 48 87 35 59 41 65 75 68 l37 3 0 -165 0 -166 -40
0 -40 0 0 88 -1 87 -22 -39 c-43 -75 -63 -101 -77 -101 -8 0 -34 31 -57 70
l-43 69 0 -87 0 -87 -40 0 -40 0 0 165 0 165 38 0 c37 0 38 -1 87 -90z m385
-75 l0 -165 -45 0 -45 0 0 158 c0 87 3 162 7 165 3 4 24 7 45 7 l38 0 0 -165z
m310 130 l0 -35 -50 0 -50 0 0 -130 0 -130 -40 0 -40 0 0 130 0 130 -50 0 -50
0 0 35 0 35 140 0 140 0 0 -35z m262 10 c32 -24 48 -56 48 -96 0 -36 -23 -84
-45 -93 -14 -5 -11 -13 16 -52 17 -25 35 -42 40 -37 4 4 37 73 72 153 l63 145
43 0 44 0 68 -160 c38 -88 69 -161 69 -162 0 -2 -20 -3 -44 -3 -42 0 -45 2
-56 35 l-12 35 -69 0 -69 0 -14 -35 -15 -35 -88 0 -88 0 -25 45 c-20 37 -30
45 -52 45 -26 0 -28 -2 -28 -45 l0 -45 -45 0 -45 0 0 166 0 166 103 -4 c83 -2
107 -7 129 -23z m1388 -10 l0 -35 -50 0 -50 0 0 -130 0 -130 -40 0 -40 0 0
129 0 130 -52 3 c-52 3 -53 4 -56 36 l-3 32 145 0 146 0 0 -35z m-200 -410 c0
-10 -10 -15 -27 -15 -27 1 -27 1 -9 15 25 19 36 19 36 0z m-2248 -67 c2 -30 8
-43 18 -43 10 0 16 13 18 43 2 28 8 42 18 42 18 0 20 -80 2 -98 -19 -19 -66
-15 -78 7 -16 30 -13 91 4 91 10 0 16 -14 18 -42z m179 -3 c9 -57 3 -65 -47
-65 l-44 0 0 56 0 55 42 -3 c41 -3 43 -4 49 -43z m103 -7 c22 -50 19 -75 -7
-49 -14 14 -57 15 -57 1 0 -5 -7 -10 -15 -10 -19 0 -19 2 6 61 12 27 28 49 36
49 8 0 25 -24 37 -52z m63 32 c3 -11 14 -20 24 -20 12 0 19 7 19 20 0 11 7 20
15 20 12 0 15 -13 15 -55 0 -42 -3 -55 -15 -55 -8 0 -15 9 -15 20 0 15 -7 20
-25 20 -19 0 -25 -5 -23 -16 2 -10 -3 -19 -9 -21 -10 -3 -13 11 -13 51 0 56
16 77 27 36z m203 5 c0 -11 -7 -14 -25 -9 -14 3 -25 2 -25 -4 0 -5 11 -13 24
-16 29 -7 41 -33 25 -53 -15 -17 -71 -13 -77 5 -3 9 3 11 22 6 32 -8 34 8 4
21 -27 12 -36 44 -16 56 23 15 68 11 68 -6z m94 -18 c27 -65 28 -77 12 -77 -9
0 -16 5 -16 10 0 6 -11 10 -25 10 -14 0 -25 -4 -25 -10 0 -5 -7 -10 -15 -10
-19 0 -19 2 6 61 25 57 43 62 63 16z m82 1 c17 -34 19 -33 50 18 17 29 34 6
34 -47 0 -37 -4 -49 -15 -49 -10 0 -15 10 -15 27 l0 27 -16 -22 c-19 -28 -28
-28 -42 1 -10 22 -11 22 -11 -5 -1 -18 -6 -28 -16 -28 -12 0 -15 13 -15 55 0
65 19 74 46 23z m188 10 c14 -23 -3 -52 -33 -56 -11 -2 -21 -10 -21 -18 0 -8
-7 -14 -15 -14 -12 0 -15 13 -15 56 l0 55 36 -3 c22 -2 42 -10 48 -20z m92
-29 c28 -57 26 -69 -11 -49 -21 11 -29 11 -50 0 -14 -7 -27 -11 -29 -9 -7 7
43 109 53 109 6 0 22 -23 37 -51z m64 32 c0 -19 23 -35 34 -24 3 4 6 15 6 25
0 10 7 18 15 18 12 0 15 -13 15 -55 0 -42 -3 -55 -15 -55 -8 0 -15 9 -15 20 0
13 -7 20 -20 20 -13 0 -20 -7 -20 -20 0 -11 -7 -20 -15 -20 -12 0 -15 13 -15
55 0 42 3 55 15 55 8 0 15 -9 15 -19z m169 -12 l19 -31 18 31 c29 48 44 40 44
-24 0 -42 -3 -55 -15 -55 -9 0 -15 9 -15 23 -1 22 -1 22 -16 2 -15 -20 -15
-20 -34 5 l-20 25 0 -27 c0 -16 -4 -28 -10 -28 -5 0 -10 25 -10 55 0 62 12 69
39 24z m181 21 c0 -5 -11 -10 -25 -10 -14 0 -25 -4 -25 -10 0 -5 9 -10 20 -10
11 0 20 -7 20 -15 0 -8 -9 -15 -20 -15 -11 0 -20 -4 -20 -10 0 -5 11 -10 25
-10 14 0 25 -4 25 -10 0 -5 -18 -10 -40 -10 l-40 0 0 55 0 55 40 0 c22 0 40
-4 40 -10z m65 -17 l24 -28 1 28 c0 51 25 24 28 -31 4 -61 -13 -69 -47 -24
l-20 27 -1 -27 c0 -18 -5 -28 -15 -28 -12 0 -15 13 -15 55 0 62 10 68 45 28z
m133 -25 c-3 -52 -4 -53 -35 -56 -24 -2 -33 1 -33 12 0 21 21 31 31 15 6 -9 9
3 9 34 0 36 4 47 16 47 12 0 14 -10 12 -52z m103 0 l24 -53 3 53 3 52 36 0
c62 0 96 -56 57 -94 -18 -18 -134 -23 -134 -6 0 6 -11 10 -25 10 -14 0 -25 -4
-25 -10 0 -5 -7 -10 -15 -10 -8 0 -15 4 -15 10 0 20 44 100 56 100 6 0 22 -24
35 -52z m179 -3 c0 -42 -3 -55 -15 -55 -12 0 -15 13 -15 55 0 42 3 55 15 55
12 0 15 -13 15 -55z m148 36 c3 -10 -2 -12 -21 -8 -33 9 -53 -13 -37 -42 8
-16 17 -19 42 -14 24 5 30 3 26 -8 -2 -8 -21 -15 -41 -17 -57 -5 -81 48 -44
96 13 17 69 11 75 -7z m43 7 c1 -7 1 -22 0 -33 -2 -29 14 -49 33 -42 11 4 16
19 16 48 0 49 23 50 28 1 4 -42 -13 -72 -43 -72 -47 0 -55 9 -55 61 0 27 5 49
10 49 6 0 10 -6 11 -12z m168 -33 c25 -53 26 -65 6 -65 -8 0 -15 5 -15 10 0 6
-11 10 -25 10 -14 0 -25 -4 -25 -10 0 -5 -7 -10 -16 -10 -9 0 -14 6 -11 13 32
80 41 97 52 97 7 0 22 -20 34 -45z m78 18 l17 -26 6 23 c3 13 11 25 18 28 8 2
12 -13 12 -52 0 -63 -9 -69 -45 -28 l-24 27 -1 -27 c0 -49 -26 -33 -29 17 -3
70 15 85 46 38z"/>
<path d="M3265 1665 c-54 -53 -14 -165 60 -165 67 0 108 65 85 133 -19 59
-101 77 -145 32z"/>
<path d="M2260 1640 l0 -50 38 0 c25 0 45 7 55 18 36 40 9 82 -54 82 l-39 0 0
-50z"/>
<path d="M2616 1617 c-9 -23 -16 -46 -16 -50 0 -4 18 -7 41 -7 29 0 40 4 36
13 -2 6 -10 29 -18 50 -7 20 -16 37 -20 37 -3 0 -14 -19 -23 -43z"/>
<path d="M1460 1260 c0 -5 7 -10 15 -10 8 0 15 5 15 10 0 6 -7 10 -15 10 -8 0
-15 -4 -15 -10z"/>
<path d="M1460 1210 c0 -5 6 -10 14 -10 8 0 18 5 21 10 3 6 -3 10 -14 10 -12
0 -21 -4 -21 -10z"/>
<path d="M1580 1236 c0 -9 5 -16 10 -16 6 0 10 4 10 9 0 6 -4 13 -10 16 -5 3
-10 -1 -10 -9z"/>
<path d="M1946 1235 c-3 -9 0 -15 9 -15 9 0 12 6 9 15 -4 8 -7 15 -9 15 -2 0
-5 -7 -9 -15z"/>
<path d="M2200 1250 c0 -13 5 -20 13 -17 6 2 12 10 12 17 0 7 -6 15 -12 18 -8
2 -13 -5 -13 -18z"/>
<path d="M2306 1241 c-4 -7 -5 -15 -2 -18 9 -9 19 4 14 18 -4 11 -6 11 -12 0z"/>
<path d="M3120 1235 c0 -35 5 -40 34 -29 22 8 20 41 -3 54 -29 15 -31 13 -31
-25z"/>
<path d="M3021 1234 c0 -11 3 -14 6 -6 3 7 2 16 -1 19 -3 4 -6 -2 -5 -13z"/>
<path d="M3560 1235 c0 -8 4 -15 10 -15 5 0 7 7 4 15 -4 8 -8 15 -10 15 -2 0
-4 -7 -4 -15z"/>
<path d="M2234 3781 c-17 -10 -39 -31 -50 -45 -14 -19 -43 -35 -93 -52 -142
-48 -247 -141 -309 -274 -30 -63 -36 -89 -40 -165 -4 -77 -1 -100 21 -164 l25
-75 -21 -28 c-47 -64 -25 -202 38 -244 59 -39 238 -56 356 -34 73 14 159 59
185 97 20 29 41 119 31 129 -2 2 -21 -5 -43 -15 -67 -33 -148 -43 -244 -30
-92 12 -225 58 -262 90 l-23 20 34 -17 c42 -20 140 -54 155 -53 6 0 -16 10
-50 23 -64 23 -138 65 -130 73 2 2 22 -5 44 -16 75 -38 183 -62 303 -68 137
-7 173 5 217 70 15 23 57 69 93 104 86 82 120 145 127 234 7 95 2 104 -43 78
-20 -12 -38 -20 -40 -17 -2 2 16 15 41 28 44 24 64 60 64 113 0 31 -38 94 -71
117 -36 27 -105 37 -147 22 -22 -8 -40 -7 -69 3 -21 8 -55 14 -75 15 -45 0
-48 11 -11 39 36 29 67 35 105 22 41 -14 64 3 34 25 -29 20 -115 18 -152 -5z
m304 -147 c49 -34 67 -117 36 -162 -63 -90 -204 -39 -204 75 0 37 5 50 31 74
36 34 99 40 137 13z m-287 -8 c151 -63 107 -286 -56 -286 -99 0 -176 102 -145
195 28 84 120 125 201 91z m-66 -311 c22 0 56 3 75 7 34 7 34 7 10 -7 -37 -21
-119 -19 -157 5 -18 11 -33 22 -33 24 0 2 15 -3 33 -12 17 -9 50 -16 72 -17z
m125 -50 c52 0 110 3 129 8 34 7 34 7 16 -13 -9 -10 -38 -27 -62 -36 -37 -15
-54 -16 -97 -7 -28 6 -52 10 -54 8 -10 -10 102 -35 155 -35 35 0 63 -4 63 -9
0 -5 -12 -19 -26 -30 -36 -28 -113 -28 -171 0 -44 21 -97 77 -106 111 -5 17
-2 18 26 11 18 -4 75 -8 127 -8z"/>
<path d="M2439 3616 c-37 -18 -56 -59 -41 -90 26 -57 107 -55 132 3 24 58 -35
115 -91 87z m66 -41 c0 -22 -31 -33 -47 -17 -17 17 -1 44 24 40 15 -2 23 -10
23 -23z"/>
<path d="M2134 3556 c-57 -48 -20 -146 55 -146 36 0 81 41 81 74 0 82 -78 123
-136 72z m104 -49 c3 -23 0 -27 -23 -27 -30 0 -43 24 -25 46 19 22 45 13 48
-19z"/>
<path d="M2511 2990 c-35 -11 -68 -23 -71 -27 -4 -4 -10 -29 -13 -55 -5 -55
-9 -56 85 19 37 29 72 53 78 53 6 0 13 -13 16 -30 7 -35 28 -55 49 -46 21 8
19 43 -6 77 -24 34 -46 36 -138 9z"/>
<path d="M1587 2929 c-49 -4 -95 -10 -102 -13 -22 -8 -95 -106 -95 -127 0 -34
28 -20 72 37 l43 56 93 -6 c87 -6 92 -5 94 14 0 11 1 25 2 32 1 16 -6 16 -107
7z"/>
<path d="M3260 2902 c-6 -2 -10 -60 -10 -143 l0 -139 58 0 c44 0 63 5 75 18
22 24 23 105 2 122 -13 11 -13 15 0 33 19 27 19 57 0 84 -11 16 -28 22 -65 25
-28 1 -55 2 -60 0z m88 -74 c-2 -25 -8 -34 -25 -36 -20 -3 -23 1 -23 32 0 32
3 36 26 36 23 0 25 -3 22 -32z m2 -98 c17 -31 2 -70 -26 -70 -22 0 -24 4 -24
45 0 38 3 45 20 45 10 0 24 -9 30 -20z"/>
<path d="M3462 2898 c-49 -24 -41 -88 19 -153 27 -30 39 -51 37 -66 -4 -32
-26 -35 -39 -5 -16 33 -49 35 -49 3 0 -33 20 -56 57 -63 26 -5 37 -1 57 19 41
41 33 78 -30 150 -32 34 -42 65 -28 80 11 11 34 -5 34 -25 0 -14 5 -18 16 -14
9 3 20 6 25 6 16 0 10 26 -12 54 -22 28 -49 32 -87 14z"/>
<path d="M3604 2858 c2 -24 5 -87 5 -140 1 -91 2 -98 21 -98 18 0 20 7 20 59
0 58 1 60 27 63 39 4 43 36 6 40 -24 3 -28 8 -31 40 -3 36 -2 37 35 40 27 2
39 8 41 21 3 15 -5 17 -62 17 l-66 0 4 -42z"/>
<path d="M2755 2805 c-26 -25 -31 -50 -15 -75 8 -12 10 -10 10 11 0 29 17 49
40 49 29 0 80 -31 80 -49 0 -28 30 -61 56 -61 28 0 28 1 10 -40 -18 -44 -10
-68 25 -75 37 -8 36 -16 -1 -43 -39 -29 -41 -73 -5 -92 14 -7 25 -17 25 -22 0
-5 -5 -6 -10 -3 -20 12 -71 -7 -82 -30 -8 -18 -18 -23 -45 -22 -27 1 -41 -6
-59 -27 -13 -15 -24 -23 -24 -17 0 24 -45 51 -84 51 -37 0 -46 -6 -111 -74
-122 -128 -219 -189 -321 -203 -25 -3 -47 -9 -49 -13 -9 -14 86 -91 142 -117
71 -33 170 -37 226 -9 99 49 174 153 202 280 13 57 13 58 14 21 2 -86 -34
-180 -102 -267 l-29 -38 46 0 c60 0 148 34 190 73 63 60 72 178 21 282 l-24
50 24 -28 c32 -36 55 -116 55 -190 0 -69 10 -71 57 -8 56 73 63 141 21 224
-25 50 -5 47 25 -4 30 -49 38 -41 45 47 6 74 -7 112 -46 138 -20 13 -22 16 -7
13 11 -3 27 -8 37 -12 14 -6 15 -2 7 37 -14 62 -40 100 -79 120 -30 14 -31 17
-12 18 31 0 28 10 -15 52 -78 76 -191 101 -238 53z"/>
<path d="M2398 2784 c-3 -3 1 -22 10 -43 14 -32 25 -41 75 -60 l58 -23 -6 -52
c-7 -61 7 -92 29 -63 7 9 17 40 20 68 8 62 1 72 -99 135 -75 46 -78 47 -87 38z"/>
<path d="M2315 2710 c-74 -48 -337 -68 -467 -37 -49 12 -58 12 -62 0 -13 -32
-5 -130 13 -168 23 -51 81 -102 125 -110 80 -15 274 54 375 134 60 48 95 133
75 185 -8 20 -22 19 -59 -4z"/>
<path d="M1610 2706 c-42 -11 -46 -15 -57 -56 -16 -63 -15 -90 3 -97 20 -8 31
9 39 65 l7 45 69 -5 69 -5 0 33 c0 33 -1 34 -42 33 -24 -1 -63 -6 -88 -13z"/>
<path d="M2321 2519 c-85 -76 -225 -138 -351 -155 -46 -6 -50 -9 -50 -33 0
-34 50 -114 85 -137 15 -10 49 -23 77 -30 46 -12 55 -12 95 6 59 26 190 160
231 237 37 71 43 127 13 143 -33 17 -54 11 -100 -31z"/>
<path d="M2495 2435 c-22 -8 -41 -15 -42 -15 -2 0 -35 -44 -75 -97 -39 -54
-94 -122 -121 -150 -55 -59 -51 -63 40 -39 85 23 159 62 214 113 124 115 114
235 -16 188z"/>
<path d="M1980 2127 c-10 -29 -9 -34 17 -56 15 -13 50 -43 78 -67 47 -42 85
-57 85 -32 0 6 -27 38 -59 71 -34 33 -57 65 -55 72 4 8 -7 20 -24 29 -30 15
-30 15 -42 -17z"/>
</g>
</svg>
