<svg width="70" height="70" viewBox="0 0 70 70" fill="none" xmlns="http://www.w3.org/2000/svg">
<rect width="70" height="70" rx="15" fill="#EDEDE9"/>
<g clip-path="url(#clip0_139_1577)">
<path d="M35 35C35 33.0109 35.7902 31.1032 37.1967 29.6967C38.6032 28.2902 40.5109 27.5 42.5 27.5C44.4891 27.5 46.3968 28.2902 47.8033 29.6967C49.2098 31.1032 50 33.0109 50 35C50 36.9891 49.2098 38.8968 47.8033 40.3033C46.3968 41.7098 44.4891 42.5 42.5 42.5C40.5109 42.5 38.6032 41.7098 37.1967 40.3033C35.7902 38.8968 35 36.9891 35 35Z" fill="#1ABCFE"/>
<path d="M20 50C20 48.0109 20.7902 46.1032 22.1967 44.6967C23.6032 43.2902 25.5109 42.5 27.5 42.5H35V50C35 51.9891 34.2098 53.8968 32.8033 55.3033C31.3968 56.7098 29.4891 57.5 27.5 57.5C25.5109 57.5 23.6032 56.7098 22.1967 55.3033C20.7902 53.8968 20 51.9891 20 50V50Z" fill="#0ACF83"/>
<path d="M35 12.5V27.5H42.5C44.4891 27.5 46.3968 26.7098 47.8033 25.3033C49.2098 23.8968 50 21.9891 50 20C50 18.0109 49.2098 16.1032 47.8033 14.6967C46.3968 13.2902 44.4891 12.5 42.5 12.5H35Z" fill="#FF7262"/>
<path d="M20 20C20 21.9891 20.7902 23.8968 22.1967 25.3033C23.6032 26.7098 25.5109 27.5 27.5 27.5H35V12.5H27.5C25.5109 12.5 23.6032 13.2902 22.1967 14.6967C20.7902 16.1032 20 18.0109 20 20V20Z" fill="#F24E1E"/>
<path d="M20 35C20 36.9891 20.7902 38.8968 22.1967 40.3033C23.6032 41.7098 25.5109 42.5 27.5 42.5H35V27.5H27.5C25.5109 27.5 23.6032 28.2902 22.1967 29.6967C20.7902 31.1032 20 33.0109 20 35V35Z" fill="#A259FF"/>
</g>
<defs>
<clipPath id="clip0_139_1577">
<rect width="30" height="45" fill="white" transform="translate(20 12.5)"/>
</clipPath>
</defs>
</svg>
