<svg width="70" height="70" viewBox="0 0 70 70" fill="none" xmlns="http://www.w3.org/2000/svg">
<rect width="70" height="70" rx="15" fill="#EDEDE9"/>
<path d="M35 19C27.7998 19 23.2999 22.5556 21.4997 29.6662C24.2 26.1106 27.3501 24.7777 30.9498 25.6663C33.004 26.1733 34.472 27.6456 36.0973 29.2746C38.7443 31.9283 41.8079 34.9997 48.5003 34.9997C55.6999 34.9997 60.2005 31.444 62 24.3328C59.3003 27.8884 56.1503 29.2219 52.5498 28.3334C50.4964 27.8264 49.0284 26.3541 47.4031 24.725C44.7561 22.0713 41.6918 19 35 19ZM21.4997 34.9997C14.3001 34.9997 9.79955 38.5553 8 45.6666C10.6997 42.1109 13.8497 40.7774 17.4502 41.6666C19.5036 42.1743 20.9716 43.6459 22.597 45.2743C25.2439 47.928 28.3082 51 35 51C42.2002 51 46.7001 47.4444 48.5003 40.3331C45.8 43.8887 42.6499 45.2223 39.0502 44.333C36.9961 43.8267 35.5281 42.3537 33.9027 40.7254C31.2557 38.0716 28.1921 34.9997 21.4997 34.9997Z" fill="#06B6D4"/>
</svg>
