<svg xmlns="http://www.w3.org/2000/svg" xmlns:xlink="http://www.w3.org/1999/xlink" width="500" zoomAndPan="magnify" viewBox="0 0 375 374.999991" height="500" preserveAspectRatio="xMidYMid meet" version="1.0"><defs><clipPath id="114fa862f6"><path d="M 239 11.964844 L 332 11.964844 L 332 63 L 239 63 Z M 239 11.964844 " clip-rule="nonzero"/></clipPath><clipPath id="be9d4fc81f"><path d="M 24.25 55 L 350.5 55 L 350.5 362.964844 L 24.25 362.964844 Z M 24.25 55 " clip-rule="nonzero"/></clipPath></defs><g clip-path="url(#114fa862f6)"><path fill="#000000" d="M 285.816406 42.773438 C 300.351562 42.773438 313.707031 48.691406 323.378906 58.785156 C 328.652344 55.605469 331.972656 49.671875 331.972656 42.773438 C 331.972656 32.570312 323.703125 24.296875 313.507812 24.296875 C 310.457031 24.296875 307.628906 25.109375 305.09375 26.417969 C 301.207031 17.917969 292.6875 11.984375 282.734375 11.984375 C 271.246094 11.984375 261.679688 19.890625 258.964844 30.542969 C 258.675781 30.527344 258.40625 30.457031 258.121094 30.457031 C 247.925781 30.457031 239.65625 38.726562 239.65625 48.933594 C 239.65625 54.121094 241.785156 58.800781 245.222656 62.15625 C 254.824219 50.347656 269.441406 42.773438 285.808594 42.773438 Z M 285.816406 42.773438 " fill-opacity="1" fill-rule="nonzero"/></g><g clip-path="url(#be9d4fc81f)"><path fill="#000000" d="M 350.433594 90.109375 L 321.792969 77.707031 C 315.3125 64.335938 301.660156 55.089844 285.816406 55.089844 C 263.71875 55.089844 245.8125 73.007812 245.8125 95.113281 C 245.8125 99.238281 245.703125 105.046875 245.332031 111.546875 C 243.75 139.253906 223.988281 163.050781 196.855469 168.828125 C 186.8125 170.96875 176.4375 172.089844 165.8125 172.089844 C 113.101562 172.089844 66.351562 144.609375 37.199219 102.234375 C 29.050781 115.105469 24.261719 130.667969 24.261719 147.453125 C 24.261719 169.546875 32.519531 189.546875 45.875 204.03125 C 37.453125 201.957031 29.535156 199.566406 24.261719 197.480469 C 50.863281 288.5 115.617188 326.160156 185.054688 331.480469 L 198.4375 350.648438 L 190.429688 350.648438 C 187.03125 350.648438 184.273438 353.410156 184.273438 356.808594 C 184.273438 360.210938 187.03125 362.96875 190.429688 362.96875 L 233.511719 362.96875 C 236.910156 362.96875 239.667969 360.210938 239.667969 356.808594 C 239.667969 353.410156 236.910156 350.648438 233.511719 350.648438 L 215.046875 350.648438 L 215.046875 332.175781 L 220.28125 332.175781 C 290.792969 332.175781 350.402344 279.570312 350.433594 209.019531 C 350.457031 157.171875 325.816406 159.371094 325.816406 104.339844 L 350.433594 90.097656 Z M 270.390625 215.867188 C 270.320312 216.472656 262.855469 276.761719 196.574219 276.761719 C 147.078125 276.761719 135.320312 261.128906 110.496094 236.289062 L 122.316406 233.589844 C 111.3125 220.21875 101.878906 202.429688 98.546875 192.835938 C 98.265625 192.132812 98.105469 191.359375 98.105469 190.550781 C 98.105469 187.148438 100.863281 184.390625 104.261719 184.390625 C 106.851562 184.390625 109.074219 185.992188 109.976562 188.265625 C 123.277344 221.546875 140.699219 235.019531 146.855469 240.636719 L 135.078125 243.320312 C 149.21875 256.652344 162.3125 264.445312 196.574219 264.445312 C 251.6875 264.445312 257.914062 216.523438 258.160156 214.488281 C 258.515625 211.425781 261.117188 209.027344 264.269531 209.027344 C 267.667969 209.027344 270.429688 211.785156 270.429688 215.1875 C 270.429688 215.421875 270.421875 215.636719 270.390625 215.867188 Z M 270.390625 215.867188 " fill-opacity="1" fill-rule="nonzero"/></g></svg>