<svg xmlns="http://www.w3.org/2000/svg" xmlns:xlink="http://www.w3.org/1999/xlink" width="500" zoomAndPan="magnify" viewBox="0 0 375 374.999991" height="500" preserveAspectRatio="xMidYMid meet" version="1.0"><defs><clipPath id="5cad63cb9a"><path d="M 190 271 L 227 271 L 227 327.292969 L 190 327.292969 Z M 190 271 " clip-rule="nonzero"/></clipPath><clipPath id="219e4f4ef4"><path d="M 85 47.542969 L 146 47.542969 L 146 91 L 85 91 Z M 85 47.542969 " clip-rule="nonzero"/></clipPath><clipPath id="b91333f74e"><path d="M 189 177.457031 L 303 177.457031 L 303 327 L 189 327 Z M 189 177.457031 " clip-rule="nonzero"/></clipPath></defs><path fill="#ffcf47" d="M 155.84375 298.140625 C 158.996094 299.582031 162.363281 300.542969 165.777344 300.980469 C 161.664062 303.253906 156.148438 300.761719 151.949219 302.902344 Z M 155.84375 298.140625 " fill-opacity="1" fill-rule="nonzero"/><path fill="#ffcf47" d="M 161.359375 264.613281 C 163.722656 266.625 166.085938 268.679688 167.789062 271.214844 C 169.496094 273.792969 170.546875 276.984375 169.847656 280 C 169.277344 282.535156 167.570312 284.675781 165.910156 286.730469 C 162.628906 290.796875 159.300781 294.859375 156.019531 298.925781 C 155.054688 300.105469 154.09375 301.332031 153.699219 302.773438 C 153.304688 304.214844 153.699219 306.007812 154.96875 306.792969 C 156.804688 307.929688 159.957031 306.882812 160.921875 308.847656 C 161.53125 310.117188 160.394531 311.644531 159.039062 311.996094 C 157.683594 312.34375 156.28125 311.910156 154.96875 311.382812 C 153.65625 310.902344 152.300781 310.335938 150.898438 310.507812 C 149.324219 310.726562 148.054688 311.863281 147.089844 313.132812 C 146.128906 314.398438 145.429688 315.84375 144.421875 317.023438 C 143.414062 318.246094 142.015625 319.25 140.394531 319.25 C 138.777344 319.25 137.199219 317.851562 137.417969 316.324219 C 137.59375 315.097656 138.6875 314.269531 139.738281 313.570312 C 141.753906 312.214844 143.722656 310.816406 145.734375 309.460938 C 142.714844 309.636719 139.695312 309.855469 136.675781 310.027344 C 135.84375 310.074219 134.96875 310.117188 134.269531 309.679688 C 132.957031 308.847656 133.21875 306.664062 134.445312 305.65625 C 135.667969 304.652344 137.375 304.609375 138.90625 304.785156 C 140.4375 304.957031 142.015625 305.308594 143.546875 305 C 146.566406 304.433594 148.492188 301.546875 150.109375 298.925781 C 153.523438 293.332031 156.9375 287.691406 160.394531 282.097656 C 160.964844 281.179688 161.53125 280.21875 161.402344 279.167969 C 161.3125 278.339844 160.746094 277.640625 160.21875 276.941406 C 156.542969 272.304688 152.867188 267.671875 149.191406 263.039062 Z M 161.359375 264.613281 " fill-opacity="1" fill-rule="nonzero"/><path fill="#ffcf47" d="M 212.734375 306.136719 C 215.886719 307.582031 219.253906 308.542969 222.667969 308.980469 C 218.554688 311.253906 213.042969 308.761719 208.839844 310.902344 Z M 212.734375 306.136719 " fill-opacity="1" fill-rule="nonzero"/><g clip-path="url(#5cad63cb9a)"><path fill="#ffcf47" d="M 218.25 272.613281 C 220.613281 274.621094 222.976562 276.675781 224.683594 279.210938 C 226.390625 281.746094 227.4375 284.980469 226.738281 288 C 226.171875 290.535156 224.464844 292.675781 222.800781 294.730469 C 219.519531 298.796875 216.191406 302.859375 212.910156 306.925781 C 211.945312 308.105469 210.984375 309.328125 210.589844 310.773438 C 210.195312 312.214844 210.589844 314.007812 211.859375 314.792969 C 213.699219 315.929688 216.847656 314.878906 217.8125 316.847656 C 218.425781 318.113281 217.285156 319.644531 215.929688 319.996094 C 214.574219 320.34375 213.171875 319.90625 211.859375 319.382812 C 210.546875 318.902344 209.191406 318.332031 207.789062 318.507812 C 206.214844 318.726562 204.945312 319.863281 203.984375 321.132812 C 203.019531 322.398438 202.320312 323.839844 201.3125 325.019531 C 200.304688 326.203125 198.90625 327.292969 197.332031 327.292969 C 195.753906 327.292969 194.136719 325.894531 194.355469 324.367188 C 194.53125 323.140625 195.625 322.3125 196.675781 321.613281 C 198.6875 320.257812 200.65625 318.859375 202.667969 317.503906 C 199.648438 317.679688 196.628906 317.898438 193.609375 318.070312 C 192.777344 318.113281 191.902344 318.160156 191.203125 317.722656 C 189.890625 316.890625 190.152344 314.707031 191.378906 313.699219 C 192.605469 312.695312 194.3125 312.652344 195.84375 312.824219 C 197.375 313 198.949219 313.351562 200.480469 313.042969 C 203.5 312.476562 205.425781 309.589844 207.046875 306.96875 C 210.460938 301.375 213.871094 295.734375 217.328125 290.140625 C 217.898438 289.222656 218.46875 288.261719 218.335938 287.210938 C 218.25 286.382812 217.679688 285.683594 217.15625 284.980469 C 213.480469 280.347656 209.804688 275.714844 206.125 271.082031 Z M 218.25 272.613281 " fill-opacity="1" fill-rule="nonzero"/></g><path fill="#e8e8e8" d="M 220.742188 250.277344 C 225.644531 256.65625 227.875 265.007812 226.78125 272.917969 C 226.34375 276.066406 225.292969 279.34375 222.976562 281.484375 C 219.648438 284.589844 214.355469 284.71875 210.195312 282.882812 C 206.039062 281.046875 202.84375 277.59375 200.085938 274.011719 C 196.238281 269.027344 192.953125 263.609375 190.328125 257.882812 Z M 220.742188 250.277344 " fill-opacity="1" fill-rule="nonzero"/><path fill="#dbdbdb" d="M 162.539062 241.578125 C 167.441406 247.960938 169.671875 256.308594 168.578125 264.21875 C 168.140625 267.367188 167.089844 270.644531 164.769531 272.785156 C 161.445312 275.890625 156.148438 276.023438 151.992188 274.1875 C 147.835938 272.351562 144.640625 268.898438 141.882812 265.3125 C 138.03125 260.328125 134.75 254.910156 132.125 249.183594 Z M 162.539062 241.578125 " fill-opacity="1" fill-rule="nonzero"/><g clip-path="url(#219e4f4ef4)"><path fill="#f25a5a" d="M 98.472656 86.710938 C 96.941406 86.140625 96.195312 84.394531 95.890625 82.777344 C 95.582031 81.15625 95.539062 79.453125 94.664062 78.054688 C 93.746094 76.65625 92.125 75.871094 90.726562 74.953125 C 88.011719 73.070312 85.957031 70.144531 85.605469 66.863281 C 85.253906 63.585938 86.875 60.089844 89.804688 58.558594 C 92.738281 57.03125 96.808594 57.949219 98.515625 60.789062 C 97.902344 59.433594 97.816406 57.730469 97.597656 56.242188 C 97.378906 54.757812 97.597656 53.183594 98.472656 52.003906 C 99.390625 50.777344 100.921875 50.167969 102.453125 49.90625 C 106.042969 49.335938 109.847656 50.691406 112.257812 53.402344 C 112.257812 51.609375 113.613281 50.125 115.101562 49.074219 C 116.589844 48.070312 118.425781 47.632812 120.222656 47.589844 C 122.320312 47.5 124.554688 47.980469 126.128906 49.378906 C 127.703125 50.777344 128.449219 53.226562 127.355469 55.0625 C 128.796875 53.3125 130.855469 52.351562 133.132812 52.046875 C 135.84375 51.652344 138.734375 52.265625 140.878906 54.015625 C 142.976562 55.761719 144.160156 58.691406 143.460938 61.355469 C 142.890625 63.628906 141.097656 65.421875 139.300781 66.910156 C 142.539062 67.082031 145.035156 70.144531 145.691406 73.332031 C 146.304688 76.523438 144.859375 79.933594 142.363281 81.988281 C 139.871094 84.042969 136.414062 84.828125 133.21875 84.394531 C 130.769531 84.085938 128.40625 83.125 125.953125 83.082031 C 120.660156 82.992188 116.328125 86.972656 112.605469 90.730469 Z M 98.472656 86.710938 " fill-opacity="1" fill-rule="nonzero"/></g><path fill="#000000" d="M 142.539062 81.640625 C 142.453125 81.726562 142.410156 81.859375 142.277344 81.902344 C 139.78125 83.957031 136.371094 84.742188 133.132812 84.347656 C 130.679688 84 128.316406 83.039062 125.910156 82.992188 C 120.613281 82.949219 116.28125 86.929688 112.5625 90.644531 L 98.472656 86.796875 C 96.894531 86.230469 96.195312 84.480469 95.890625 82.863281 C 95.582031 81.246094 95.539062 79.539062 94.664062 78.140625 C 93.699219 76.742188 92.082031 75.957031 90.726562 74.996094 C 90.417969 74.777344 90.15625 74.601562 89.851562 74.339844 C 97.726562 68.832031 107.75 66.296875 117.332031 67.5625 C 127.179688 68.832031 136.28125 74.035156 142.539062 81.640625 Z M 142.539062 81.640625 " fill-opacity="0.05" fill-rule="nonzero"/><path fill="#ffffff" d="M 89.894531 60.484375 C 91.25 59.519531 93.132812 59.652344 94.664062 60.351562 C 96.152344 61.183594 97.332031 62.625 97.378906 64.285156 C 95.453125 61.75 93.089844 60.570312 89.894531 60.484375 Z M 89.894531 60.484375 " fill-opacity="0.2" fill-rule="nonzero"/><path fill="#ffffff" d="M 102.148438 52.132812 C 103.765625 51.261719 105.910156 51.652344 107.441406 52.746094 C 108.929688 53.925781 109.9375 55.804688 109.585938 57.640625 C 108.273438 54.320312 105.691406 52.441406 102.148438 52.132812 Z M 102.148438 52.132812 " fill-opacity="0.2" fill-rule="nonzero"/><path fill="#ffffff" d="M 118.164062 50.078125 C 119.828125 49.425781 121.796875 49.90625 123.242188 50.996094 C 124.597656 52.179688 125.515625 53.96875 125.210938 55.71875 C 123.851562 52.613281 121.535156 50.777344 118.164062 50.078125 Z M 118.164062 50.078125 " fill-opacity="0.2" fill-rule="nonzero"/><path fill="#ffffff" d="M 127.3125 59.257812 C 128.011719 56.855469 130.242188 55.019531 132.695312 54.277344 C 135.1875 53.664062 138.03125 54.144531 139.871094 55.847656 C 135.277344 54.144531 130.460938 55.457031 127.3125 59.257812 Z M 127.3125 59.257812 " fill-opacity="0.2" fill-rule="nonzero"/><path fill="#ffffff" d="M 135.933594 70.40625 C 137.332031 69.3125 139.34375 69.226562 141.050781 69.75 C 142.714844 70.40625 144.246094 71.671875 144.683594 73.421875 C 142.144531 71.105469 139.390625 70.144531 135.933594 70.40625 Z M 135.933594 70.40625 " fill-opacity="0.2" fill-rule="nonzero"/><path fill="#dbdbdb" d="M 247.042969 137.675781 C 252.035156 121.371094 259.691406 105.941406 269.714844 92.128906 C 273.082031 87.496094 277.242188 82.6875 282.929688 81.988281 C 285.511719 81.640625 288.398438 82.382812 290.019531 84.4375 C 291.15625 85.921875 291.507812 87.847656 291.550781 89.726562 C 291.769531 94.796875 290.238281 99.953125 287.304688 104.105469 C 288.445312 101.789062 291.59375 101.222656 294.132812 101.746094 C 296.671875 102.269531 298.773438 104.195312 299.910156 106.511719 C 301.046875 108.828125 301.355469 111.492188 301.222656 114.074219 C 300.828125 121.632812 297.019531 128.585938 293.34375 135.230469 C 294.089844 133.085938 297.109375 131.992188 299.296875 132.605469 C 301.484375 133.21875 303.148438 135.140625 303.890625 137.28125 C 304.636719 139.425781 304.59375 141.785156 304.328125 144.058594 C 303.453125 151.53125 300.347656 158.570312 297.285156 165.433594 C 297.941406 163.683594 300.960938 161.980469 302.753906 162.546875 C 304.546875 163.074219 305.863281 164.691406 306.429688 166.480469 C 307 168.230469 306.957031 170.152344 306.78125 171.988281 C 305.335938 186.894531 295.269531 199.832031 283.191406 208.707031 C 271.113281 217.578125 256.980469 223.132812 243.324219 229.382812 Z M 247.042969 137.675781 " fill-opacity="1" fill-rule="nonzero"/><path fill="#ffffff" d="M 287.4375 187.898438 C 288.09375 184.011719 289.886719 180.46875 292.164062 177.277344 C 294.484375 174.175781 297.371094 171.378906 300.871094 169.585938 C 298.683594 172.863281 296.363281 175.75 294.175781 178.765625 C 291.945312 181.738281 289.886719 184.839844 287.4375 187.898438 Z M 287.4375 187.898438 " fill-opacity="0.3" fill-rule="nonzero"/><path fill="#ffffff" d="M 283.0625 161.0625 C 283.28125 156.777344 284.898438 152.625 287.132812 148.996094 C 289.449219 145.414062 292.46875 142.179688 296.277344 140.125 C 293.828125 143.664062 291.417969 146.898438 289.277344 150.351562 C 287.042969 153.761719 285.160156 157.347656 283.0625 161.0625 Z M 283.0625 161.0625 " fill-opacity="0.3" fill-rule="nonzero"/><path fill="#ffffff" d="M 275.972656 135.753906 C 277.152344 130.550781 279.472656 125.699219 282.359375 121.242188 C 285.292969 116.828125 288.792969 112.761719 293.082031 109.613281 C 290.238281 114.117188 287.261719 118.3125 284.460938 122.640625 C 281.574219 126.921875 278.949219 131.339844 275.972656 135.753906 Z M 275.972656 135.753906 " fill-opacity="0.3" fill-rule="nonzero"/><path fill="#ffffff" d="M 261.792969 114.773438 C 263.542969 108.957031 265.992188 103.320312 269.539062 98.25 C 273.082031 93.265625 277.941406 88.808594 283.847656 86.972656 C 278.902344 90.554688 275.007812 94.925781 271.640625 99.734375 C 268.136719 104.5 265.292969 109.789062 261.792969 114.773438 Z M 261.792969 114.773438 " fill-opacity="0.3" fill-rule="nonzero"/><path fill="#e8e8e8" d="M 98.777344 112.980469 C 99.039062 107.910156 93 105.332031 89.457031 101.660156 C 84.6875 96.761719 84.46875 88.546875 87.925781 82.6875 C 91.382812 76.832031 97.816406 73.117188 104.511719 71.804688 C 115.976562 69.488281 128.535156 73.769531 136.195312 82.601562 C 148.230469 96.414062 147.398438 118.136719 159.433594 131.949219 C 165.035156 138.375 172.953125 142.441406 181.136719 144.671875 C 189.367188 146.898438 197.941406 147.425781 206.433594 147.773438 C 219.167969 148.253906 233.085938 147.859375 242.84375 139.644531 C 250.195312 133.4375 253.914062 123.6875 261.574219 117.875 C 265.6875 114.726562 272.382812 113.375 275.492188 117.4375 C 277.242188 119.710938 277.195312 122.859375 276.804688 125.699219 C 275.445312 135.664062 270.808594 145.195312 263.71875 152.363281 C 268.445312 150.046875 272.296875 147.160156 275.183594 142.746094 C 276.015625 141.523438 276.714844 140.167969 277.808594 139.164062 C 278.859375 138.113281 280.347656 137.371094 281.835938 137.632812 C 283.542969 137.9375 284.8125 139.554688 285.207031 141.21875 C 285.597656 142.921875 285.292969 144.714844 284.988281 146.417969 C 283.015625 156.121094 279.210938 165.476562 273.914062 173.867188 C 276.539062 169.105469 281.046875 165.78125 285.644531 162.855469 C 286.429688 162.328125 287.394531 161.847656 288.3125 162.109375 C 289.667969 162.503906 290.0625 164.207031 290.105469 165.609375 C 290.457031 174.699219 286.519531 183.878906 279.648438 189.910156 C 281.398438 188.816406 283.761719 188.511719 285.816406 188.644531 C 288.445312 195.898438 283.453125 200.183594 279.472656 205.078125 C 275.359375 210.148438 273.171875 217.097656 269.539062 222.605469 C 262.1875 233.753906 252.777344 243.589844 241.878906 251.28125 C 229.582031 259.9375 215.1875 266.054688 200.132812 267.015625 C 172.167969 268.851562 139.300781 257.574219 117.859375 239.785156 C 103.636719 227.984375 93.308594 211.636719 88.710938 193.757812 C 84.117188 175.878906 85.34375 156.558594 92.125 139.425781 C 95.800781 129.894531 98.253906 123.164062 98.777344 112.980469 Z M 98.777344 112.980469 " fill-opacity="1" fill-rule="nonzero"/><path fill="#dbdbdb" d="M 100.351562 158.21875 C 103.722656 155.859375 105.78125 152.230469 107.003906 148.429688 C 109.628906 149.566406 112.738281 149.523438 115.320312 148.472656 C 118.078125 147.378906 120.308594 145.238281 121.492188 142.484375 C 127.09375 143.445312 132.867188 139.863281 134.574219 134.574219 C 138.296875 134.878906 142.015625 134.136719 145.210938 132.300781 C 148.578125 130.289062 151.292969 127.1875 152.605469 123.601562 C 150.765625 126.921875 147.921875 129.589844 144.597656 131.164062 C 141.316406 132.738281 137.507812 133.175781 134.007812 132.476562 C 133.523438 132.386719 133 132.695312 132.824219 133.175781 L 132.824219 133.21875 C 132.125 135.621094 130.460938 137.765625 128.273438 138.988281 C 126.085938 140.210938 123.460938 140.605469 121.097656 139.90625 C 120.484375 139.730469 119.785156 140.035156 119.566406 140.691406 L 119.566406 140.734375 C 118.734375 143.140625 116.851562 145.28125 114.445312 146.242188 C 111.992188 147.292969 109.148438 147.292969 106.917969 145.980469 C 106.828125 145.9375 106.699219 145.894531 106.609375 145.851562 C 106.042969 145.71875 105.472656 146.070312 105.296875 146.636719 C 104.335938 150.570312 102.714844 154.503906 99.523438 157.039062 C 96.457031 159.488281 91.730469 160.449219 88.054688 158.089844 C 91.339844 161.0625 96.722656 160.753906 100.351562 158.21875 Z M 100.351562 158.21875 " fill-opacity="1" fill-rule="nonzero"/><path fill="#dbdbdb" d="M 150.8125 139.6875 C 148.492188 141.390625 145.210938 142.527344 142.890625 141.261719 C 142.671875 141.128906 142.363281 141.128906 142.101562 141.304688 C 141.796875 141.523438 141.707031 142.003906 141.972656 142.308594 C 143.285156 144.144531 143.546875 146.636719 142.933594 148.777344 C 142.363281 150.964844 140.789062 152.757812 138.820312 153.847656 C 134.882812 156.253906 129.675781 155.597656 125.953125 152.84375 C 125.558594 152.539062 124.992188 152.539062 124.554688 152.84375 C 124.027344 153.238281 123.898438 153.980469 124.292969 154.503906 L 124.335938 154.550781 C 127.136719 158.4375 126.566406 164.296875 122.933594 167.398438 C 119.476562 170.722656 113.4375 170.851562 110.023438 167.355469 C 109.71875 167.050781 109.28125 166.917969 108.84375 167.09375 C 108.273438 167.3125 108.011719 167.96875 108.230469 168.492188 C 110.332031 173.78125 110.285156 180.25 106.609375 184.796875 C 104.816406 187.027344 102.324219 188.773438 99.390625 189.210938 C 96.5 189.691406 93.351562 189.082031 90.988281 187.199219 C 93.132812 189.34375 96.414062 190.304688 99.476562 190 C 102.628906 189.734375 105.605469 188.074219 107.660156 185.671875 C 111.25 181.648438 112.167969 175.96875 111.117188 170.765625 C 112.738281 171.640625 114.574219 172.164062 116.414062 172.164062 C 119.347656 172.207031 122.320312 171.070312 124.511719 169.105469 C 126.699219 167.179688 128.273438 164.382812 128.492188 161.410156 C 128.625 159.75 128.40625 158.089844 127.921875 156.472656 C 131.773438 157.914062 136.324219 157.871094 139.914062 155.597656 C 142.234375 154.15625 144.070312 151.796875 144.640625 149.128906 C 145.121094 147.074219 144.902344 144.84375 144.027344 142.921875 C 145.121094 143.054688 146.214844 142.921875 147.179688 142.570312 C 148.710938 142.046875 150.109375 141.21875 151.292969 140.167969 C 153.699219 138.027344 155.054688 135.140625 156.28125 132.386719 C 154.75 135.183594 153.175781 137.894531 150.8125 139.6875 Z M 150.8125 139.6875 " fill-opacity="1" fill-rule="nonzero"/><path fill="#dbdbdb" d="M 226.476562 243.195312 C 232.648438 246.296875 239.515625 247.785156 246.433594 247.785156 C 244.898438 249.007812 243.414062 250.101562 241.835938 251.238281 C 240.304688 252.285156 238.816406 253.292969 237.285156 254.253906 C 234.964844 253.902344 232.691406 253.335938 230.457031 252.59375 C 230.546875 254.867188 229.757812 257.445312 228.09375 259.324219 C 227.703125 259.761719 227.21875 260.242188 226.695312 260.589844 C 224.507812 262.121094 222.230469 262.558594 220.21875 262.644531 C 219.648438 262.691406 219.125 262.691406 218.597656 262.691406 C 216.0625 262.601562 214.003906 262.164062 211.816406 261.816406 C 205.121094 260.546875 198.554688 258.1875 192.558594 254.648438 C 192.472656 254.996094 192.429688 255.300781 192.296875 255.652344 C 191.335938 258.011719 189.585938 260.109375 187.265625 261.378906 C 182.757812 263.738281 177.898438 263.214844 173.917969 262.035156 C 165.648438 259.585938 159.039062 253.992188 154.136719 247.566406 C 149.28125 241.054688 145.867188 233.796875 142.539062 226.714844 C 139.171875 219.589844 136.105469 212.203125 134.75 204.421875 C 136.9375 211.984375 140.527344 218.980469 144.335938 225.796875 C 148.140625 232.617188 152.035156 239.480469 156.980469 245.25 C 161.882812 250.976562 168.097656 255.695312 175.144531 257.445312 C 178.601562 258.363281 182.234375 258.320312 184.726562 256.789062 C 187.046875 255.519531 188.097656 251.9375 186.914062 250.539062 L 172.824219 233.839844 L 191.027344 246.691406 C 197.460938 251.238281 205.121094 253.902344 212.996094 255.300781 C 214.96875 255.609375 216.980469 255.914062 218.6875 255.914062 C 220.394531 255.957031 221.925781 255.566406 222.582031 254.996094 C 223.28125 254.429688 223.589844 253.773438 223.5 252.503906 C 223.414062 251.238281 222.757812 249.664062 221.835938 248.265625 L 215.011719 237.511719 Z M 226.476562 243.195312 " fill-opacity="1" fill-rule="nonzero"/><path fill="#dbdbdb" d="M 251.160156 230.300781 C 254.789062 231.347656 258.464844 232.222656 262.054688 232.484375 C 259.472656 235.675781 256.628906 238.691406 253.609375 241.578125 C 253.566406 241.535156 253.523438 241.535156 253.476562 241.488281 C 251.726562 240.222656 249.234375 238.910156 247.132812 236.246094 L 240.042969 227.109375 Z M 251.160156 230.300781 " fill-opacity="1" fill-rule="nonzero"/><path fill="#dbdbdb" d="M 277.898438 204.378906 C 277.285156 207.570312 275.445312 210.148438 273.171875 212.027344 C 272.910156 212.246094 272.644531 212.378906 272.46875 212.554688 C 273.128906 212.816406 273.785156 213.078125 274.484375 213.296875 C 273.433594 215.351562 272.425781 217.492188 271.332031 219.460938 C 267.042969 217.625 262.363281 216.53125 257.679688 216.269531 L 257.808594 209.800781 C 260.085938 209.800781 262.273438 209.753906 264.199219 209.40625 C 266.125 209.054688 268.136719 208.355469 269.449219 207.394531 C 270.851562 206.347656 271.945312 204.816406 272.25 203.332031 C 272.558594 201.929688 272.207031 200.488281 271.027344 199.265625 C 268.664062 196.6875 263.980469 195.460938 259.472656 194.324219 C 254.964844 193.144531 250.414062 192.140625 245.777344 191.179688 C 236.542969 189.253906 227.265625 187.199219 218.207031 184.273438 C 213.652344 182.742188 209.191406 181.039062 204.945312 178.808594 C 200.742188 176.621094 196.804688 173.914062 193.21875 170.851562 C 200.960938 176.316406 209.757812 179.769531 218.816406 182.042969 C 227.921875 184.359375 237.242188 185.539062 246.605469 187.113281 C 251.246094 187.945312 255.929688 188.730469 260.609375 189.734375 C 265.117188 190.828125 270.371094 191.398438 274.878906 195.550781 C 277.152344 197.605469 278.511719 201.144531 277.898438 204.378906 Z M 277.898438 204.378906 " fill-opacity="1" fill-rule="nonzero"/><path fill="#000000" d="M 275.359375 202.0625 C 272.734375 205.339844 270.851562 209.101562 269.101562 212.726562 C 267.832031 215.308594 266.648438 217.753906 265.25 219.808594 C 258.246094 230.429688 249.144531 239.871094 238.949219 247.128906 C 226.390625 255.957031 212.867188 261.117188 199.78125 261.992188 C 197.898438 262.078125 196.019531 262.121094 194.09375 262.121094 C 168.929688 262.121094 140.308594 251.804688 121.050781 235.894531 C 113.746094 229.820312 107.53125 222.476562 102.714844 214.34375 C 103.023438 214.257812 103.328125 214.125 103.636719 214.082031 C 113.746094 211.503906 124.246094 209.230469 134.617188 210.324219 C 147.136719 211.636719 158.511719 217.753906 170.371094 221.90625 C 182.277344 226.015625 196.148438 227.941406 206.828125 221.296875 C 212.253906 217.972656 216.28125 212.683594 221.882812 209.582031 C 231.859375 203.984375 244.199219 206.347656 255.710938 205.820312 C 262.363281 205.558594 269.011719 204.160156 275.359375 202.0625 Z M 275.359375 202.0625 " fill-opacity="0.05" fill-rule="nonzero"/><path fill="#e8e8e8" d="M 193.21875 170.851562 C 184.726562 164.078125 173.65625 160.230469 162.847656 161.410156 C 152.035156 162.589844 141.664062 169.105469 136.851562 178.808594 C 132.957031 186.675781 132.78125 195.941406 134.75 204.511719 C 136.71875 213.035156 140.613281 220.988281 144.683594 228.769531 C 148.183594 235.457031 151.816406 242.144531 156.71875 247.828125 C 161.621094 253.511719 168.007812 258.273438 175.316406 260.023438 C 179.039062 260.898438 183.152344 260.941406 186.390625 258.929688 C 189.628906 256.875 191.378906 252.285156 189.320312 249.09375 C 197.113281 254.867188 206.390625 257.925781 216.015625 259.191406 C 219.5625 259.671875 223.808594 259.5 225.90625 256.570312 C 228.007812 253.640625 226.78125 249.53125 224.855469 246.472656 C 234.179688 251.195312 244.726562 252.546875 255.007812 250.800781 C 256.933594 250.449219 259.035156 249.925781 260.171875 248.351562 C 262.054688 245.730469 260.261719 241.972656 257.765625 239.917969 C 255.273438 237.863281 252.121094 236.59375 250.152344 234.015625 C 259.34375 236.683594 268.96875 237.90625 277.632812 233.796875 C 280.960938 232.222656 284.242188 229.164062 283.804688 225.492188 C 283.453125 222.476562 280.699219 220.332031 278.070312 218.847656 C 271.902344 215.394531 264.945312 213.382812 257.898438 213.078125 C 262.097656 213.078125 265.601562 212.859375 269.363281 211.023438 C 273.128906 209.1875 276.101562 204.992188 275.050781 200.925781 C 273.914062 196.335938 268.664062 194.28125 264.113281 193.058594 C 240.304688 186.675781 212.429688 186.195312 193.21875 170.851562 Z M 193.21875 170.851562 " fill-opacity="1" fill-rule="nonzero"/><path fill="#ffffff" d="M 149.890625 193.671875 C 153.65625 186.195312 162.40625 181.78125 171.074219 181.125 C 179.78125 180.46875 188.402344 183.003906 196.324219 186.5 C 204.246094 190 211.640625 194.414062 219.605469 197.824219 C 227.570312 201.230469 236.277344 203.636719 244.945312 202.71875 C 246.476562 202.542969 248.050781 202.28125 249.539062 202.761719 C 251.027344 203.242188 252.207031 204.773438 251.640625 206.128906 C 251.160156 207.265625 249.757812 207.703125 248.53125 208.007812 C 242.40625 209.449219 236.015625 210.019531 229.714844 209.625 C 235.273438 211.460938 239.824219 215.042969 245.425781 216.878906 C 248.359375 217.84375 251.683594 219.199219 252.382812 222.082031 C 252.777344 223.785156 252.078125 225.578125 250.808594 226.847656 C 249.582031 228.113281 247.875 228.902344 246.167969 229.46875 C 240.128906 231.4375 233.390625 230.605469 227.4375 228.507812 C 221.488281 226.367188 216.105469 223 210.808594 219.632812 C 212.996094 222.914062 214.089844 225.796875 216.28125 229.074219 C 217.546875 231 218.863281 232.921875 219.472656 235.152344 C 220.085938 237.335938 219.867188 239.871094 218.378906 241.621094 C 216.628906 243.675781 213.566406 244.242188 210.808594 243.9375 C 205.644531 243.324219 201.226562 240.003906 198.207031 235.980469 C 195.230469 231.960938 193.480469 227.238281 191.730469 222.5625 C 192.035156 226.539062 191.949219 230.300781 190.371094 234.015625 C 188.796875 237.730469 184.816406 240.835938 180.65625 240.222656 C 176.019531 239.523438 173.347656 234.714844 172.472656 230.300781 C 171.597656 225.886719 171.640625 221.164062 169.191406 217.316406 C 167.132812 214.125 163.632812 212.074219 160.175781 210.238281 C 156.71875 208.445312 153.085938 206.652344 150.546875 203.8125 C 148.011719 200.882812 148.183594 197.035156 149.890625 193.671875 Z M 149.890625 193.671875 " fill-opacity="0.3" fill-rule="nonzero"/><path fill="#ffffff" d="M 284.941406 146.332031 C 284.941406 146.375 284.898438 146.460938 284.898438 146.550781 C 281.703125 150.308594 278.117188 153.632812 274.132812 156.472656 C 263.191406 164.296875 249.976562 168.097656 236.847656 170.941406 C 225.558594 173.386719 213.871094 175.136719 202.449219 173.386719 C 193 171.902344 183.328125 168.011719 174.050781 170.589844 C 165.121094 173.082031 158.425781 181.210938 149.28125 182.875 C 141.140625 184.402344 133.085938 180.425781 124.949219 178.808594 C 111.820312 176.230469 97.597656 180.292969 87.75 189.386719 C 84.378906 172.734375 85.867188 155.160156 92.082031 139.382812 C 95.84375 129.941406 98.253906 123.207031 98.820312 112.980469 C 99.082031 107.910156 93.042969 105.332031 89.5 101.703125 C 84.730469 96.808594 84.46875 88.589844 87.925781 82.6875 C 91.382812 76.832031 97.859375 73.117188 104.511719 71.804688 C 116.019531 69.488281 128.535156 73.769531 136.195312 82.558594 C 148.230469 96.414062 147.398438 118.09375 159.433594 131.90625 C 165.035156 138.332031 172.953125 142.351562 181.136719 144.625 C 189.410156 146.855469 197.941406 147.335938 206.433594 147.730469 C 219.167969 148.167969 233.128906 147.773438 242.84375 139.601562 C 250.195312 133.394531 253.914062 123.644531 261.574219 117.789062 C 265.6875 114.640625 272.339844 113.242188 275.492188 117.351562 C 277.242188 119.625 277.195312 122.816406 276.804688 125.65625 C 275.492188 135.621094 270.851562 145.105469 263.761719 152.320312 C 268.488281 150.046875 272.296875 147.117188 275.183594 142.703125 C 275.972656 141.4375 276.757812 140.125 277.808594 139.074219 C 278.859375 138.070312 280.347656 137.328125 281.792969 137.546875 C 283.5 137.851562 284.769531 139.46875 285.160156 141.128906 C 285.597656 142.835938 285.292969 144.625 284.941406 146.332031 Z M 284.941406 146.332031 " fill-opacity="0.3" fill-rule="nonzero"/><path fill="#ffffff" d="M 276.804688 125.65625 C 276.277344 129.589844 275.226562 133.480469 273.695312 137.195312 C 272.734375 137.632812 271.769531 138.113281 270.808594 138.550781 C 255.535156 145.761719 240.042969 153.0625 223.5 156.515625 C 206.957031 160.011719 188.972656 159.355469 174.09375 151.3125 C 164.859375 146.289062 157.070312 138.636719 147.179688 135.140625 C 142.144531 133.394531 136.851562 132.824219 131.773438 131.292969 C 126.699219 129.765625 121.664062 127.097656 119.082031 122.507812 C 115.800781 116.695312 117.203125 109.484375 115.890625 102.925781 C 113.613281 91.167969 102.542969 82.6875 90.898438 79.804688 C 90.636719 79.757812 90.460938 79.714844 90.199219 79.671875 C 93.789062 75.5625 99.039062 72.898438 104.511719 71.847656 C 116.019531 69.53125 128.535156 73.816406 136.195312 82.601562 C 148.230469 96.457031 147.398438 118.136719 159.433594 131.949219 C 165.035156 138.375 172.953125 142.398438 181.136719 144.671875 C 189.410156 146.898438 197.941406 147.378906 206.433594 147.773438 C 219.167969 148.210938 233.128906 147.816406 242.84375 139.644531 C 250.195312 133.4375 253.914062 123.6875 261.574219 117.832031 C 265.6875 114.683594 272.339844 113.285156 275.492188 117.394531 C 277.242188 119.625 277.195312 122.816406 276.804688 125.65625 Z M 276.804688 125.65625 " fill-opacity="0.3" fill-rule="nonzero"/><path fill="#ef8626" d="M 72.738281 97.15625 C 76.765625 99.34375 80.746094 101.527344 84.992188 103.40625 C 86.128906 103.929688 87.355469 104.414062 88.625 104.585938 C 89.9375 104.761719 91.339844 104.542969 92.300781 103.84375 C 93.351562 103.058594 93.699219 101.789062 94.488281 100.785156 C 95.277344 99.777344 97.027344 99.035156 98.078125 99.867188 C 98.996094 98.90625 99.300781 97.289062 98.472656 96.238281 C 97.640625 95.1875 95.84375 93.527344 94.445312 93.878906 C 93.089844 95.320312 90.550781 95.671875 88.320312 95.714844 C 83.417969 95.757812 76.722656 95.320312 72.738281 97.15625 Z M 72.738281 97.15625 " fill-opacity="1" fill-rule="nonzero"/><path fill="#ff9933" d="M 70.507812 97.507812 C 70.945312 97.417969 73 97.023438 74.621094 97.289062 C 79.128906 98.074219 83.855469 97.375 88.316406 96.5 C 90.242188 96.105469 92.214844 95.625 93.832031 94.621094 C 95.40625 93.617188 96.589844 92 96.328125 90.335938 C 96.195312 89.332031 95.582031 88.414062 94.796875 87.671875 C 92.257812 85.265625 88.054688 84.394531 84.25 84.917969 C 80.441406 85.441406 77.027344 87.148438 74.007812 89.113281 C 72.738281 89.945312 71.46875 90.863281 70.507812 91.953125 C 69.542969 93.046875 69.019531 94.359375 68.757812 95.714844 C 68.449219 97.070312 69.9375 97.679688 70.507812 97.507812 Z M 70.507812 97.507812 " fill-opacity="1" fill-rule="nonzero"/><path fill="#ef8626" d="M 84.816406 88.28125 C 85.515625 88.019531 86.304688 88.109375 87.050781 88.238281 C 87.3125 88.28125 87.617188 88.328125 87.835938 88.5 C 88.054688 88.632812 88.273438 88.894531 88.230469 89.199219 C 88.230469 89.464844 88.011719 89.683594 87.792969 89.8125 C 87.574219 89.945312 87.3125 89.988281 87.050781 89.988281 C 86.480469 90.03125 84.074219 90.511719 83.679688 90.074219 C 83.109375 89.464844 84.378906 88.414062 84.816406 88.28125 Z M 84.816406 88.28125 " fill-opacity="1" fill-rule="nonzero"/><path fill="#f25a5a" d="M 99.742188 100.742188 C 99.523438 102.664062 98.253906 104.324219 96.722656 105.503906 C 95.1875 106.683594 93.4375 107.558594 91.820312 108.609375 C 87.792969 111.230469 84.640625 115.210938 83.023438 119.710938 C 82.324219 121.679688 81.886719 123.777344 82.324219 125.832031 C 82.804688 127.839844 84.335938 129.722656 86.347656 130.113281 C 87.925781 130.375 89.542969 129.765625 90.769531 128.804688 C 91.996094 127.839844 92.957031 126.53125 93.875 125.21875 C 94.226562 124.695312 94.621094 124.167969 95.234375 123.996094 C 96.0625 123.777344 96.894531 124.433594 97.246094 125.21875 C 97.550781 126.003906 97.507812 126.878906 97.464844 127.753906 C 97.378906 129.589844 97.464844 131.46875 98.121094 133.175781 C 98.777344 134.878906 100.046875 136.453125 101.796875 137.019531 C 103.898438 137.71875 106.261719 136.890625 107.878906 135.445312 C 110.8125 132.867188 111.820312 128.671875 111.46875 124.78125 C 111.117188 120.890625 109.675781 117.21875 108.40625 113.503906 C 107.136719 109.832031 106.085938 105.941406 106.566406 102.050781 Z M 99.742188 100.742188 " fill-opacity="1" fill-rule="nonzero"/><path fill="#f25a5a" d="M 95.015625 91.867188 C 95.890625 86.011719 100.789062 81.332031 106.085938 80.941406 C 111.382812 80.503906 116.675781 84.128906 119.039062 89.417969 C 120.175781 92 120.703125 95.058594 119.914062 97.8125 C 118.777344 101.746094 115.320312 104.28125 111.863281 105.8125 C 107.265625 107.867188 103.984375 107.210938 100.089844 104.195312 C 96.546875 101.484375 94.269531 96.761719 95.015625 91.867188 Z M 95.015625 91.867188 " fill-opacity="1" fill-rule="nonzero"/><path fill="#333333" d="M 96.941406 89.726562 C 97.332031 87.363281 99.523438 85.484375 101.929688 85.3125 C 104.335938 85.136719 106.699219 86.621094 107.792969 88.765625 C 108.316406 89.8125 108.535156 91.035156 108.1875 92.171875 C 107.660156 93.789062 106.128906 94.796875 104.554688 95.40625 C 102.496094 96.238281 101.007812 95.976562 99.214844 94.753906 C 97.640625 93.660156 96.632812 91.734375 96.941406 89.726562 Z M 96.941406 89.726562 " fill-opacity="1" fill-rule="nonzero"/><path fill="#ffffff" d="M 98.996094 88.5 C 99.128906 87.847656 99.742188 87.277344 100.398438 87.234375 C 101.054688 87.191406 101.753906 87.582031 102.058594 88.195312 C 102.191406 88.5 102.277344 88.851562 102.191406 89.15625 C 102.058594 89.59375 101.621094 89.898438 101.183594 90.074219 C 100.617188 90.292969 100.179688 90.25 99.695312 89.898438 C 99.214844 89.59375 98.910156 89.070312 98.996094 88.5 Z M 98.996094 88.5 " fill-opacity="1" fill-rule="nonzero"/><path fill="#9c5f20" d="M 288.679688 313.382812 C 288.945312 311.269531 290.25 308.960938 290.746094 307.191406 C 291.929688 302.976562 292.589844 298.632812 293.828125 294.433594 C 298.171875 279.703125 300.695312 264.328125 299.875 248.9375 C 299.074219 233.976562 295.980469 217.074219 292.433594 202.613281 L 292.433594 180.457031 L 201.597656 180.457031 L 201.597656 202.613281 C 196.5625 224.304688 189.882812 250.882812 192.035156 273.332031 C 192.808594 281.40625 194.328125 289.386719 196.175781 297.277344 C 197.085938 301.148438 198.074219 305.003906 199.097656 308.847656 C 199.917969 311.921875 201.253906 314.90625 201.550781 318.101562 C 201.601562 318.617188 201.835938 324.378906 201.597656 324.4375 C 201.597656 324.4375 223.46875 318.960938 223.46875 318.960938 C 225.890625 318.351562 228.398438 318.160156 230.886719 318.386719 L 297.347656 324.4375 C 297.347656 324.4375 289.699219 316.773438 289.691406 316.769531 C 288.734375 315.808594 288.527344 314.628906 288.679688 313.382812 Z M 288.679688 313.382812 " fill-opacity="1" fill-rule="nonzero"/><path fill="#c12929" d="M 276.273438 237.378906 C 273.3125 233.765625 269.558594 236.4375 269.558594 236.4375 C 269.558594 236.4375 270.558594 232.164062 267.859375 230.207031 C 265.402344 228.425781 260.476562 231.789062 260.476562 231.789062 C 260.476562 231.789062 256.625 229.21875 254.058594 230.007812 C 251.488281 230.800781 254.476562 237.378906 254.476562 237.378906 L 265.402344 252.273438 L 272.046875 253.300781 C 277.300781 251.371094 273.507812 245.066406 273.507812 245.066406 C 273.507812 245.066406 278.808594 240.472656 276.273438 237.378906 Z M 276.273438 237.378906 " fill-opacity="1" fill-rule="nonzero"/><path fill="#c12929" d="M 262.625 259.617188 C 261.976562 259.617188 260.539062 259.617188 260.539062 259.617188 C 255.578125 259.617188 251.257812 265.898438 250.945312 271.132812 C 250.9375 272.019531 250.953125 272.59375 250.953125 272.59375 C 250.953125 272.59375 265.167969 269.445312 262.945312 259.71875 C 262.945312 259.714844 262.828125 259.675781 262.625 259.617188 Z M 262.625 259.617188 " fill-opacity="1" fill-rule="nonzero"/><path fill="#edbf36" d="M 267.859375 252.453125 C 266.421875 252.320312 262.945312 259.714844 262.945312 259.714844 L 277.6875 262.28125 C 277.6875 262.28125 279.910156 253.570312 267.859375 252.453125 Z M 267.859375 252.453125 " fill-opacity="1" fill-rule="nonzero"/><path fill="#f4c69d" d="M 230.246094 250.574219 C 229.128906 253.414062 228.621094 256.484375 227.332031 259.25 C 223.917969 266.554688 214.945312 274.609375 205.382812 280.207031 C 213.46875 294.140625 228.496094 303.53125 245.742188 303.53125 C 248.457031 303.53125 251.101562 303.25 253.6875 302.804688 C 254.402344 294.949219 251.636719 279.6875 250.953125 272.589844 C 250.425781 267.152344 255.105469 259.617188 260.539062 259.617188 C 260.539062 259.617188 262.933594 259.617188 262.945312 259.617188 L 267.859375 252.453125 C 267.859375 232.757812 237.613281 231.839844 230.246094 250.574219 Z M 230.246094 250.574219 " fill-opacity="1" fill-rule="nonzero"/><path fill="#ffffff" d="M 201.507812 190.304688 L 292.433594 190.304688 L 292.433594 197.6875 L 201.507812 197.6875 Z M 201.507812 190.304688 " fill-opacity="1" fill-rule="nonzero"/><path fill="#8c551d" d="M 288.679688 313.382812 C 288.710938 313.125 288.796875 312.863281 288.855469 312.601562 L 230.890625 307.324219 C 228.402344 307.097656 225.894531 307.292969 223.46875 307.898438 C 223.46875 307.898438 214.464844 310.152344 208.011719 311.769531 C 204.863281 312.558594 201.824219 310.292969 201.554688 307.058594 C 201.554688 307.050781 201.554688 307.046875 201.550781 307.039062 C 201.253906 303.84375 199.917969 300.859375 199.097656 297.785156 C 198.078125 293.941406 197.085938 290.089844 196.175781 286.214844 C 194.328125 278.324219 192.804688 270.34375 192.035156 262.273438 C 191.917969 261.0625 191.839844 259.835938 191.773438 258.605469 C 191.539062 263.640625 191.578125 268.582031 192.035156 273.332031 C 192.808594 281.40625 194.328125 289.386719 196.175781 297.277344 C 197.085938 301.148438 198.078125 305.003906 199.097656 308.847656 C 199.917969 311.921875 201.253906 314.90625 201.550781 318.101562 C 201.601562 318.617188 201.835938 324.378906 201.597656 324.4375 C 201.597656 324.4375 223.46875 318.960938 223.46875 318.960938 C 225.890625 318.351562 228.398438 318.160156 230.886719 318.386719 L 297.347656 324.4375 C 297.347656 324.4375 289.699219 316.773438 289.691406 316.769531 C 288.734375 315.808594 288.527344 314.628906 288.679688 313.382812 Z M 288.679688 313.382812 " fill-opacity="1" fill-rule="nonzero"/><path fill="#000000" d="M 258.027344 248.222656 C 258.027344 248.640625 257.945312 249.042969 257.785156 249.429688 C 257.625 249.816406 257.398438 250.15625 257.101562 250.453125 C 256.808594 250.75 256.46875 250.976562 256.082031 251.136719 C 255.695312 251.296875 255.292969 251.378906 254.875 251.378906 C 254.457031 251.378906 254.054688 251.296875 253.671875 251.136719 C 253.285156 250.976562 252.945312 250.75 252.648438 250.453125 C 252.351562 250.15625 252.125 249.816406 251.964844 249.429688 C 251.804688 249.042969 251.726562 248.640625 251.726562 248.222656 C 251.726562 247.804688 251.804688 247.402344 251.964844 247.015625 C 252.125 246.628906 252.351562 246.285156 252.648438 245.992188 C 252.945312 245.695312 253.285156 245.464844 253.671875 245.304688 C 254.054688 245.144531 254.457031 245.066406 254.875 245.066406 C 255.292969 245.066406 255.695312 245.144531 256.082031 245.304688 C 256.46875 245.464844 256.808594 245.695312 257.101562 245.992188 C 257.398438 246.285156 257.625 246.628906 257.785156 247.015625 C 257.945312 247.402344 258.027344 247.804688 258.027344 248.222656 Z M 258.027344 248.222656 " fill-opacity="1" fill-rule="nonzero"/><g clip-path="url(#b91333f74e)"><path fill="#000000" d="M 294.59375 301.65625 C 295.09375 299.378906 295.570312 297.226562 296.183594 295.132812 C 301.027344 278.710938 303.09375 263.125 302.328125 248.804688 C 301.617188 235.550781 298.980469 219.050781 294.890625 202.3125 L 294.890625 180.457031 C 294.890625 179.097656 293.792969 177.996094 292.433594 177.996094 L 201.597656 177.996094 C 200.238281 177.996094 199.136719 179.097656 199.136719 180.457031 L 199.136719 202.328125 L 198.277344 206.027344 C 193.234375 227.609375 187.527344 252.070312 189.589844 273.570312 C 191.050781 288.832031 195.210938 304.027344 198.878906 317.433594 L 201.25 316.78125 L 198.945312 317.675781 C 199.074219 318.152344 199.136719 318.632812 199.136719 319.140625 L 199.136719 324.433594 C 199.136719 325.195312 199.484375 325.910156 200.082031 326.375 C 200.679688 326.839844 201.453125 327.011719 202.1875 326.824219 L 224.058594 321.347656 C 226.222656 320.800781 228.445312 320.628906 230.664062 320.835938 L 297.121094 326.886719 C 297.195312 326.894531 297.273438 326.898438 297.34375 326.898438 C 298.292969 326.898438 299.164062 326.347656 299.570312 325.480469 C 300.007812 324.542969 299.816406 323.429688 299.082031 322.695312 L 291.429688 315.023438 C 291.011719 314.605469 290.898438 313.980469 291.144531 313.433594 C 292.847656 309.636719 293.734375 305.582031 294.59375 301.65625 Z M 289.792969 300.605469 C 288.992188 304.261719 288.214844 307.71875 286.859375 310.914062 L 277.6875 310.914062 L 277.6875 315.835938 L 286.386719 315.835938 C 286.679688 316.828125 287.199219 317.753906 287.957031 318.507812 L 290.8125 321.371094 L 231.113281 315.933594 C 230.363281 315.867188 229.617188 315.832031 228.867188 315.832031 C 226.855469 315.832031 224.84375 316.082031 222.875 316.574219 L 204.054688 321.285156 L 204.054688 319.144531 C 204.054688 318.210938 203.933594 317.289062 203.695312 316.40625 C 203.695312 316.402344 203.625 316.140625 203.625 316.136719 C 203.597656 316.039062 203.570312 315.9375 203.542969 315.839844 L 208.878906 315.839844 L 208.878906 310.917969 L 202.199219 310.917969 C 198.988281 299.042969 195.71875 286.023438 194.480469 273.101562 C 192.492188 252.40625 198.109375 228.363281 203.058594 207.148438 L 203.988281 203.171875 C 204.03125 202.992188 204.050781 202.804688 204.050781 202.613281 L 204.050781 182.921875 L 289.976562 182.921875 L 289.976562 202.613281 C 289.976562 202.808594 290 203.003906 290.046875 203.195312 C 294.101562 219.746094 296.722656 236.035156 297.417969 249.070312 C 298.152344 262.828125 296.152344 277.855469 291.46875 293.734375 C 290.804688 296 290.289062 298.339844 289.792969 300.605469 Z M 289.792969 300.605469 " fill-opacity="1" fill-rule="nonzero"/></g><path fill="#000000" d="M 256.25 299.78125 C 256.238281 293.972656 255.214844 286.324219 254.339844 279.898438 C 254.066406 277.871094 253.8125 276 253.617188 274.378906 C 256.480469 273.425781 261.476562 271.273438 264.019531 267.246094 C 264.925781 265.8125 265.402344 264.277344 265.546875 262.671875 L 277.265625 264.707031 C 277.40625 264.734375 277.546875 264.746094 277.6875 264.746094 C 278.792969 264.746094 279.785156 263.996094 280.066406 262.894531 C 280.175781 262.460938 281.066406 258.582031 278.558594 255.019531 C 277.972656 254.183594 277.242188 253.460938 276.402344 252.828125 C 276.625 252.449219 276.800781 252.082031 276.917969 251.746094 C 277.691406 249.539062 277.101562 247.167969 276.476562 245.589844 C 278.773438 243.035156 280.839844 239.074219 278.171875 235.820312 C 276.335938 233.585938 274.066406 232.894531 272.078125 233.054688 C 271.800781 231.289062 271.015625 229.457031 269.292969 228.210938 C 266.472656 226.167969 262.574219 227.753906 260.449219 228.925781 C 258.730469 228.027344 255.859375 226.886719 253.332031 227.65625 C 252.277344 227.980469 251.441406 228.726562 250.980469 229.75 C 250.355469 231.148438 250.519531 232.976562 250.925781 234.65625 C 241.992188 234.675781 231.980469 239.4375 227.957031 249.675781 C 227.429688 251.019531 227.035156 252.378906 226.65625 253.691406 C 226.191406 255.300781 225.753906 256.820312 225.105469 258.210938 C 222.355469 264.085938 215.042969 271.238281 206.320312 276.757812 C 203.265625 270.738281 201.507812 263.960938 201.507812 256.761719 C 201.507812 243 207.730469 230.25 218.589844 221.785156 L 215.570312 217.898438 C 203.507812 227.304688 196.59375 241.46875 196.59375 256.761719 C 196.59375 283.90625 218.640625 305.992188 245.742188 305.992188 C 255.179688 305.992188 264.347656 303.304688 272.261719 298.21875 L 269.605469 294.074219 C 265.480469 296.726562 260.964844 298.628906 256.25 299.78125 Z M 253.84375 269.035156 C 254.351562 267.351562 255.226562 265.65625 256.429688 264.328125 C 257.742188 262.878906 259.203125 262.078125 260.53125 262.078125 L 260.679688 262.078125 C 260.617188 262.972656 260.371094 263.8125 259.871094 264.601562 C 258.597656 266.625 256.0625 268.09375 253.84375 269.035156 Z M 266.648438 257.863281 C 267.335938 256.617188 267.996094 255.5625 268.445312 254.996094 C 271.367188 255.386719 273.457031 256.351562 274.507812 257.808594 C 274.871094 258.3125 275.089844 258.851562 275.222656 259.355469 Z M 259.109375 233.839844 C 259.941406 234.394531 261.027344 234.390625 261.851562 233.828125 C 263.757812 232.539062 266.011719 231.90625 266.410156 232.203125 C 267.507812 232.996094 267.308594 235.1875 267.160156 235.875 C 266.925781 236.871094 267.332031 237.910156 268.183594 238.480469 C 269.03125 239.050781 270.144531 239.039062 270.976562 238.445312 C 271.421875 238.125 272.972656 237.238281 274.371094 238.941406 C 274.949219 239.652344 273.292969 241.980469 271.894531 243.207031 C 270.992188 243.988281 270.78125 245.308594 271.398438 246.335938 C 271.882812 247.140625 272.640625 249.074219 272.277344 250.109375 C 272.238281 250.210938 272.144531 250.433594 271.816406 250.667969 C 271.277344 250.519531 270.71875 250.394531 270.132812 250.285156 C 269.308594 242.699219 264.191406 237.109375 256.265625 235.273438 C 255.863281 234.183594 255.566406 233.0625 255.484375 232.335938 C 256.503906 232.464844 258.035156 233.128906 259.109375 233.839844 Z M 208.773438 281.027344 C 218.425781 274.960938 226.375 267.097656 229.550781 260.296875 C 230.363281 258.558594 230.878906 256.78125 231.375 255.058594 C 231.738281 253.796875 232.085938 252.609375 232.53125 251.476562 C 236.277344 241.945312 246.640625 238.386719 254.476562 239.878906 C 260.855469 241.089844 264.792969 245.289062 265.296875 251.179688 C 264.300781 252.171875 263.054688 253.949219 261.453125 257.15625 L 260.53125 257.15625 C 257.800781 257.15625 255.050781 258.527344 252.792969 261.019531 C 249.8125 264.308594 248.128906 268.941406 248.503906 272.828125 C 248.699219 274.859375 249.066406 277.558594 249.472656 280.5625 C 250.328125 286.875 251.453125 295.171875 251.34375 300.695312 C 249.488281 300.929688 247.625 301.070312 245.742188 301.070312 C 230.292969 301.070312 216.6875 293.082031 208.773438 281.027344 Z M 208.773438 281.027344 " fill-opacity="1" fill-rule="nonzero"/><path fill="#000000" d="M 276.003906 289.074219 L 279.371094 292.664062 C 280.964844 291.164062 282.476562 289.542969 283.847656 287.855469 L 280.035156 284.746094 C 278.800781 286.265625 277.445312 287.722656 276.003906 289.074219 Z M 276.003906 289.074219 " fill-opacity="1" fill-rule="nonzero"/><path fill="#000000" d="M 206.421875 195.226562 L 213.792969 195.226562 L 213.792969 200.148438 L 206.421875 200.148438 Z M 206.421875 195.226562 " fill-opacity="1" fill-rule="nonzero"/><path fill="#000000" d="M 218.710938 195.226562 L 226.082031 195.226562 L 226.082031 200.148438 L 218.710938 200.148438 Z M 218.710938 195.226562 " fill-opacity="1" fill-rule="nonzero"/><path fill="#000000" d="M 230.996094 195.226562 L 238.367188 195.226562 L 238.367188 200.148438 L 230.996094 200.148438 Z M 230.996094 195.226562 " fill-opacity="1" fill-rule="nonzero"/><path fill="#000000" d="M 243.285156 195.226562 L 250.65625 195.226562 L 250.65625 200.148438 L 243.285156 200.148438 Z M 243.285156 195.226562 " fill-opacity="1" fill-rule="nonzero"/><path fill="#000000" d="M 255.570312 195.226562 L 262.945312 195.226562 L 262.945312 200.148438 L 255.570312 200.148438 Z M 255.570312 195.226562 " fill-opacity="1" fill-rule="nonzero"/><path fill="#000000" d="M 267.859375 195.226562 L 275.230469 195.226562 L 275.230469 200.148438 L 267.859375 200.148438 Z M 267.859375 195.226562 " fill-opacity="1" fill-rule="nonzero"/><path fill="#000000" d="M 280.144531 195.226562 L 287.519531 195.226562 L 287.519531 200.148438 L 280.144531 200.148438 Z M 280.144531 195.226562 " fill-opacity="1" fill-rule="nonzero"/></svg>