<svg width="56" height="56" viewBox="0 0 56 56" fill="none" xmlns="http://www.w3.org/2000/svg">
<circle opacity="0.15" cx="28" cy="28" r="28" fill="white"/>
<path d="M33.5999 17.15C33.5999 18.886 32.1859 20.3 30.4499 20.3H25.5499C24.6819 20.3 23.8979 19.95 23.3239 19.376C22.7499 18.802 22.3999 18.018 22.3999 17.15C22.3999 15.414 23.8139 14 25.5499 14H30.4499C31.3179 14 32.1019 14.35 32.6759 14.924C33.2499 15.498 33.5999 16.282 33.5999 17.15Z" fill="white"/>
<path d="M37.562 18.2421C37.24 17.9761 36.876 17.7661 36.484 17.6121C36.078 17.4581 35.672 17.7801 35.588 18.2001C35.112 20.5941 32.998 22.4001 30.45 22.4001H25.55C24.15 22.4001 22.834 21.8541 21.84 20.8601C21.112 20.1321 20.608 19.2081 20.412 18.2141C20.328 17.7941 19.908 17.4581 19.502 17.6261C17.878 18.2841 16.8 19.7681 16.8 22.7501V36.4001C16.8 40.6001 19.306 42.0001 22.4 42.0001H33.6C36.694 42.0001 39.2 40.6001 39.2 36.4001V22.7501C39.2 20.4681 38.57 19.0681 37.562 18.2421ZM22.4 28.3501H28C28.574 28.3501 29.05 28.8261 29.05 29.4001C29.05 29.9741 28.574 30.4501 28 30.4501H22.4C21.826 30.4501 21.35 29.9741 21.35 29.4001C21.35 28.8261 21.826 28.3501 22.4 28.3501ZM33.6 36.0501H22.4C21.826 36.0501 21.35 35.5741 21.35 35.0001C21.35 34.4261 21.826 33.9501 22.4 33.9501H33.6C34.174 33.9501 34.65 34.4261 34.65 35.0001C34.65 35.5741 34.174 36.0501 33.6 36.0501Z" fill="white"/>
</svg>
