<svg width="48" height="48" viewBox="0 0 48 48" fill="none" xmlns="http://www.w3.org/2000/svg">
<path d="M34.3837 17.3269C37.4704 19.5413 41.2517 20.8442 45.3358 20.8442V12.9572C44.5629 12.9574 43.7919 12.8765 43.0358 12.7157V18.9239C38.952 18.9239 35.1712 17.621 32.0837 15.4068V31.5017C32.0837 39.5532 25.5798 46.0798 17.5574 46.0798C14.5641 46.0798 11.7819 45.1716 9.4707 43.6141C12.1085 46.3208 15.7872 47.9999 19.8569 47.9999C27.8798 47.9999 34.384 41.4734 34.384 33.4215V17.3269H34.3837ZM37.221 9.36999C35.6435 7.64045 34.6078 5.40535 34.3837 2.93435V1.91992H32.2041C32.7527 5.06056 34.624 7.74374 37.221 9.36999ZM14.5449 37.4356C13.6635 36.2759 13.1872 34.8572 13.1894 33.3985C13.1894 29.716 16.1642 26.7302 19.8343 26.7302C20.5183 26.7301 21.1982 26.8352 21.85 27.0427V18.9795C21.0882 18.8748 20.3194 18.8303 19.551 18.8466V25.1226C18.8986 24.915 18.2184 24.8096 17.5343 24.8103C13.8642 24.8103 10.8895 27.7957 10.8895 31.4787C10.8895 34.0828 12.3764 36.3373 14.5449 37.4356Z" fill="#FF004F"/>
<path d="M32.0834 15.4066C35.171 17.6208 38.9518 18.9237 43.0355 18.9237V12.7156C40.756 12.2283 38.738 11.0328 37.2208 9.36999C34.6236 7.74357 32.7525 5.0604 32.2039 1.91992H26.4787V33.4212C26.4657 37.0936 23.496 40.0672 19.8338 40.0672C17.6757 40.0672 15.7584 39.0348 14.5442 37.4356C12.3759 36.3373 10.889 34.0826 10.889 31.4788C10.889 27.7962 13.8636 24.8104 17.5337 24.8104C18.2369 24.8104 18.9147 24.9203 19.5504 25.1228V18.8468C11.6689 19.0102 5.33032 25.473 5.33032 33.4214C5.33032 37.3891 6.90878 40.9861 9.47064 43.6143C11.7818 45.1716 14.564 46.08 17.5574 46.08C25.5799 46.08 32.0836 39.5531 32.0836 31.5017V15.4066H32.0834Z" fill="black"/>
<path d="M43.0356 12.7156V11.037C40.98 11.0401 38.9648 10.4624 37.2208 9.36987C38.7647 11.0661 40.7976 12.2357 43.0356 12.7156ZM32.2039 1.91997C32.1516 1.61982 32.1114 1.3177 32.0835 1.01443V0H24.1785V31.5016C24.1659 35.1735 21.1964 38.1471 17.5338 38.1471C16.4585 38.1471 15.4433 37.891 14.5442 37.4358C15.7584 39.0349 17.6757 40.0671 19.8338 40.0671C23.4957 40.0671 26.4659 37.0938 26.4787 33.4214V1.91997H32.2039ZM19.5508 18.8468V17.0598C18.8903 16.9692 18.2243 16.9237 17.5576 16.924C9.53435 16.9239 3.03052 23.4508 3.03052 31.5016C3.03052 36.549 5.58664 40.9973 9.47085 43.614C6.90899 40.986 5.33053 37.3889 5.33053 33.4213C5.33053 25.473 11.669 19.0102 19.5508 18.8468Z" fill="#00F2EA"/>
</svg>
