<svg width="70" height="70" viewBox="0 0 70 70" fill="none" xmlns="http://www.w3.org/2000/svg">
<rect width="70" height="70" rx="15" fill="#EDEDE9"/>
<path d="M55.4769 23.2277C55.4921 23.2851 55.4999 23.3442 55.5 23.4035V32.6334C55.5 32.7518 55.4693 32.8682 55.411 32.9707C55.3527 33.0732 55.2689 33.1582 55.1681 33.2172L47.5641 37.6773V46.5177C47.5641 46.7583 47.4386 46.9803 47.2338 47.1015L31.3611 56.4104C31.3247 56.4314 31.2851 56.4449 31.2455 56.4592C31.2306 56.4642 31.2166 56.4735 31.2009 56.4777C31.0899 56.5074 30.9733 56.5074 30.8623 56.4777C30.8442 56.4726 30.8277 56.4625 30.8103 56.4558C30.774 56.4423 30.736 56.4306 30.7013 56.4104L14.8319 47.1015C14.7311 47.0425 14.6474 46.9574 14.5891 46.8549C14.5308 46.7524 14.5001 46.6361 14.5 46.5177V18.8282C14.5 18.7676 14.5083 18.7087 14.5231 18.6515C14.5281 18.6322 14.5396 18.6145 14.5462 18.5951C14.5586 18.5598 14.5702 18.5236 14.5884 18.4908C14.6007 18.469 14.6189 18.4513 14.6338 18.4311C14.6528 18.4042 14.6701 18.3764 14.6924 18.3529C14.7114 18.3335 14.7362 18.3192 14.7576 18.3024C14.7816 18.2822 14.803 18.2603 14.8303 18.2444H14.8311L22.7662 13.5899C22.8667 13.531 22.9806 13.5 23.0965 13.5C23.2124 13.5 23.3263 13.531 23.4268 13.5899L31.3619 18.2444H31.3636C31.39 18.2612 31.4123 18.2822 31.4362 18.3016C31.4577 18.3184 31.4816 18.3335 31.5006 18.352C31.5237 18.3764 31.5403 18.4042 31.5601 18.4311C31.5741 18.4513 31.5931 18.469 31.6047 18.4908C31.6237 18.5245 31.6344 18.5598 31.6476 18.5951C31.6542 18.6145 31.6658 18.6322 31.6707 18.6523C31.6859 18.7097 31.6937 18.7688 31.6938 18.8282V36.1227L38.3062 32.2439V23.4027C38.3062 23.3438 38.3144 23.2841 38.3293 23.2277C38.3351 23.2075 38.3458 23.1899 38.3524 23.1705C38.3656 23.1352 38.3772 23.099 38.3953 23.0662C38.4077 23.0443 38.4259 23.0267 38.4399 23.0065C38.4597 22.9796 38.4763 22.9518 38.4994 22.9283C38.5184 22.9089 38.5423 22.8946 38.5638 22.8778C38.5886 22.8576 38.61 22.8357 38.6364 22.8197H38.6373L46.5732 18.1653C46.6737 18.1063 46.7876 18.0753 46.9035 18.0753C47.0194 18.0753 47.1333 18.1063 47.2338 18.1653L55.1689 22.8197C55.197 22.8366 55.2184 22.8576 55.2432 22.8769C55.2638 22.8938 55.2878 22.9089 55.3068 22.9274C55.3299 22.9518 55.3464 22.9796 55.3662 23.0065C55.3811 23.0267 55.3993 23.0443 55.4108 23.0662C55.4298 23.099 55.4405 23.1352 55.4538 23.1705C55.4612 23.1899 55.4719 23.2075 55.4769 23.2277ZM54.1772 32.2439V24.5686L51.4003 26.1972L47.5641 28.4475V36.1227L54.178 32.2439H54.1772ZM46.2421 46.1282V38.4479L42.4686 40.6434L31.693 46.9088V54.6615L46.2421 46.1282ZM15.8228 19.9932V46.1282L30.3702 54.6606V46.9097L22.7704 42.5278L22.7679 42.5261L22.7646 42.5244C22.739 42.5093 22.7175 42.4874 22.6936 42.4689C22.6729 42.4521 22.649 42.4386 22.6308 42.4201L22.6292 42.4176C22.6077 42.3965 22.5928 42.3705 22.5747 42.3469C22.5581 42.3242 22.5383 42.3048 22.5251 42.2813L22.5243 42.2788C22.5094 42.2535 22.5003 42.2232 22.4896 42.1946C22.4789 42.1694 22.4648 42.1459 22.4582 42.1189V42.1181C22.45 42.0861 22.4483 42.0525 22.445 42.0197C22.4417 41.9944 22.4351 41.9692 22.4351 41.944V23.8721L18.5997 21.621L15.8228 19.9941V19.9932ZM23.0973 14.951L16.4858 18.8282L23.0957 22.7053L29.7063 18.8273L23.0957 14.951H23.0973ZM26.5356 39.1478L30.371 36.8983V19.9932L27.5942 21.6218L23.7579 23.8721V40.7772L26.5356 39.1478ZM46.9035 19.5264L40.2928 23.4035L46.9035 27.2807L53.5133 23.4027L46.9035 19.5264ZM46.2421 28.4475L42.4058 26.1972L39.629 24.5686V32.2439L43.4644 34.4933L46.2421 36.1227V28.4475ZM31.0308 45.7437L40.7272 40.1042L45.5741 37.2861L38.9684 33.4115L31.3627 37.8725L24.4309 41.9381L31.0308 45.7437Z" fill="#FF2D20"/>
</svg>
