<svg width="70" height="70" viewBox="0 0 70 70" fill="none" xmlns="http://www.w3.org/2000/svg">
<rect width="70" height="70" rx="15" fill="#EDEDE9"/>
<path d="M20.2745 51.8143L17 14H53L49.7255 51.7939L34.9702 56" fill="#E44D26"/>
<path d="M34.9998 52.7844V17.1038H49.7153L46.9071 49.3643" fill="#F16529"/>
<path d="M23.688 21.7283H35V26.3632H28.6296L29.0463 31.1104H35V35.7351H24.9184L23.688 21.7283ZM25.1169 38.0627H29.6417L29.9592 41.7686L35 43.1571V47.9961L25.7519 45.3418" fill="#EBEBEB"/>
<path d="M46.2722 21.7283H34.98V26.3632H45.8554L46.2722 21.7283ZM45.4486 31.1104H34.98V35.7453H40.5368L40.0109 41.7686L34.98 43.1571V47.9757L44.2082 45.3418" fill="white"/>
</svg>
