<svg width="70" height="70" viewBox="0 0 70 70" fill="none" xmlns="http://www.w3.org/2000/svg">
<rect width="70" height="70" rx="15" fill="#EDEDE9"/>
<g clip-path="url(#clip0_139_1599)">
<path d="M26.4 26.4L27.562 25.5608C27.198 25.0568 26.5506 24.8449 25.959 25.0362C25.3675 25.2275 24.9667 25.7783 24.9667 26.4H26.4ZM35 53.6333C24.7091 53.6333 16.3667 45.291 16.3667 35H13.5C13.5 46.874 23.1259 56.5 35 56.5V53.6333ZM53.6333 35C53.6333 45.291 45.291 53.6333 35 53.6333V56.5C46.874 56.5 56.5 46.874 56.5 35H53.6333ZM35 16.3667C45.291 16.3667 53.6333 24.7091 53.6333 35H56.5C56.5 23.1259 46.874 13.5 35 13.5V16.3667ZM35 13.5C23.1259 13.5 13.5 23.1259 13.5 35H16.3667C16.3667 24.7091 24.7091 16.3667 35 16.3667V13.5ZM27.8333 47.9V26.4H24.9667V47.9H27.8333ZM25.238 27.2392L43.8715 53.0391L46.1952 51.3609L27.562 25.5608L25.238 27.2392ZM42.1667 24.9667V42.1667H45.0333V24.9667H42.1667Z" fill="black"/>
</g>
<defs>
<clipPath id="clip0_139_1599">
<rect width="43" height="43" fill="white" transform="translate(13.5 13.5)"/>
</clipPath>
</defs>
</svg>
