<svg width="70" height="70" viewBox="0 0 70 70" fill="none" xmlns="http://www.w3.org/2000/svg">
<rect width="70" height="70" rx="15" fill="#EDEDE9"/>
<path d="M40.1677 28.615L35.5966 32.8986L31.3535 24.281L33.5455 19.326C34.0995 18.3376 35.0056 18.3246 35.5596 19.326L40.1677 28.615Z" fill="#FFA000"/>
<path d="M35.5985 32.8967L18.5 48.903L31.3554 24.281L35.5985 32.8967Z" fill="#F57F17"/>
<path d="M45.1798 22.0639C45.9988 21.2788 46.8418 21.5436 47.0549 22.6588L51.5 48.6869L36.7565 57.5954C36.2396 57.8863 34.8684 58.0001 34.8684 58.0001C34.8684 58.0001 33.6214 57.8472 33.1434 57.5824L18.5 48.9032L45.1798 22.0639Z" fill="#FFCA28"/>
<path d="M31.3554 24.2811L18.5 48.9031L24.2291 12.9147C24.4441 11.7995 25.0722 11.6858 25.6392 12.6741L31.3554 24.2811Z" fill="#FFA000"/>
</svg>
